{
DisplayStrings = (
/si_A
);
copyright = "Copyright (c) 2015 mooniak";
customParameters = (
{
name = note;
value = "2015-3-5: Created with FontForge (http://fontforge.org)";
},
{
name = openTypeNameVersion;
value = "Version ";
}
);
date = "2015-03-05 07:28:11 +0000";
familyName = "Ayanna";
featurePrefixes = (
{

glyphs = (
{
glyphname = si_A;
layers = (
{
layerId = "AFC4C3A3-2D14-4C11-872C-451CCFDE8196";
name = Light;
paths = (
{
closed = 1;
nodes = (
"329 -205 LINE",
"326.645 408 LINE",
"329 425 OFFCURVE",
"340.934 469.962 OFFCURVE",
"351 490 CURVE",
"375 539 OFFCURVE",
"422.001 585.236 OFFCURVE",
"490 599 CURVE",
"500.844 574.562 LINE",
"488.433 565.218 OFFCURVE",
"484 551.492 OFFCURVE",
"484 535 CURVE SMOOTH",
"484 499.147 OFFCURVE",
"514 454.956 OFFCURVE",
"514 411 CURVE SMOOTH",
"514 358.441 OFFCURVE",
"484.578 320.268 OFFCURVE",
"416.747 320.268 CURVE SMOOTH",
"400.689 320.268 OFFCURVE",
"376 326 OFFCURVE",
"362 333 CURVE",
"362 367 LINE",
"380 357 OFFCURVE",
"397.824 354.142 OFFCURVE",
"411.957 354.142 CURVE SMOOTH",
"458.078 354.142 OFFCURVE",
"478 377.225 OFFCURVE",
"478 411 CURVE SMOOTH",
"478 441.547 OFFCURVE",
"452.851 489.447 OFFCURVE",
"452.851 528.16 CURVE SMOOTH",
"452.851 536.641 OFFCURVE",
"454.058 544.681 OFFCURVE",
"457 552 CURVE",
"429 542 OFFCURVE",
"370.5 487.69 OFFCURVE",
"366 422.986 CURVE",
"366 -205 LINE"
);
},
{
closed = 1;
nodes = (
"33 212 CURVE SMOOTH",
"33 312.682 OFFCURVE",
"106 411 OFFCURVE",
"229.945 411 CURVE SMOOTH",
"254.226 411 OFFCURVE",
"302 411 OFFCURVE",
"325.802 411 CURVE",
"327.802 422 OFFCURVE",
"331 438.288 OFFCURVE",
"331 454 CURVE SMOOTH",
"331 524.746 OFFCURVE",
"288.918 557 OFFCURVE",
"240.556 557 CURVE SMOOTH",
"200.171 557 OFFCURVE",
"157.723 530.043 OFFCURVE",
"157.723 474 CURVE SMOOTH",
"157.723 431.347 OFFCURVE",
"179.467 406.53 OFFCURVE",
"188.63 398 CURVE",
"164.723 376 LINE",
"152.723 387 OFFCURVE",
"124.247 419 OFFCURVE",
"124.247 474 CURVE SMOOTH",
"124.247 553 OFFCURVE",
"183.85 591 OFFCURVE",
"240.556 591 CURVE SMOOTH",
"305.112 591 OFFCURVE",
"365 548.099 OFFCURVE",
"365 454 CURVE SMOOTH",
"365 424.453 OFFCURVE",
"360 399.965 OFFCURVE",
"351 374 CURVE",
"351 374 OFFCURVE",
"273 374 OFFCURVE",
"229.945 374 CURVE SMOOTH",
"130.144 374 OFFCURVE",
"70 295.036 OFFCURVE",
"70 212 CURVE SMOOTH",
"70 107.483 OFFCURVE",
"148.333 40 OFFCURVE",
"255 40 CURVE SMOOTH",
"383 40 OFFCURVE",
"442.476 105.71 OFFCURVE",
"475 138 CURVE",
"498 113 LINE",
"462.963 76.92 OFFCURVE",
"399 3 OFFCURVE",
"255 3 CURVE SMOOTH",
"127 3 OFFCURVE",
"33 85 OFFCURVE"
);
}
);
width = 547;
}
);
unicode = 0D85;
},
{
glyphname = si_Ba;
layers = (
{
layerId = "AFC4C3A3-2D14-4C11-872C-451CCFDE8196";
name = Light;
paths = (
{
closed = 1;
nodes = (
"33 220 CURVE SMOOTH",
"33 419.134 OFFCURVE",
"108.666 486 OFFCURVE",
"196.061 486 CURVE SMOOTH",
"287.595 486 OFFCURVE",
"331 436.897 OFFCURVE",
"331 344 CURVE SMOOTH",
"331 247 OFFCURVE",
"257 228 OFFCURVE",
"257 137 CURVE SMOOTH",
"257 65.13 OFFCURVE",
"303.975 39 OFFCURVE",
"357 39 CURVE SMOOTH",
"458.697 39 OFFCURVE",
"485.619 145.855 OFFCURVE",
"485.619 293 CURVE SMOOTH",
"485.619 576.887 OFFCURVE",
"411.168 712 OFFCURVE",
"258.062 712 CURVE SMOOTH",
"187.19 712 OFFCURVE",
"118.714 665.927 OFFCURVE",
"95.39 605 CURVE",
"61.39 618 LINE",
"89.589 692.593 OFFCURVE",
"172.377 749 OFFCURVE",
"258.062 749 CURVE SMOOTH",
"436.062 749 OFFCURVE",
"522.619 601.955 OFFCURVE",
"522.619 293 CURVE SMOOTH",
"522.619 125 OFFCURVE",
"487.952 3 OFFCURVE",
"357 3 CURVE SMOOTH",
"262.843 3 OFFCURVE",
"221.114 58.315 OFFCURVE",
"221.114 137 CURVE SMOOTH",
"221.114 241 OFFCURVE",
"295 258 OFFCURVE",
"295 344 CURVE SMOOTH",
"295 413.346 OFFCURVE",
"263.175 450 OFFCURVE",
"196.061 450 CURVE SMOOTH",
"128.497 450 OFFCURVE",
"70 392.184 OFFCURVE",
"70 220 CURVE SMOOTH",
"70 105.193 OFFCURVE",
"95.778 39 OFFCURVE",
"155 39 CURVE SMOOTH",
"193.885 39 OFFCURVE",
"220.538 79 OFFCURVE",
"227 115 CURVE",
"257 108 LINE",
"247.556 52 OFFCURVE",
"216.124 3 OFFCURVE",
"155 3 CURVE SMOOTH",
"70 3 OFFCURVE",
"33 82.359 OFFCURVE"
);
}
);
width = 555;
}
);
unicode = 0DB6;
},
{
glyphname = si_Bha;
layers = (
{
layerId = "AFC4C3A3-2D14-4C11-872C-451CCFDE8196";
name = Light;
paths = (
{
closed = 1;
nodes = (
"238.242 238 LINE",
"286.271 264.464 OFFCURVE",
"291.527 324.425 OFFCURVE",
"291.527 368.48 CURVE SMOOTH",
"291.527 478.833 OFFCURVE",
"322.921 580.844 OFFCURVE",
"440.242 580.844 CURVE SMOOTH",
"532.681 580.844 OFFCURVE",
"615.614 527.844 OFFCURVE",
"615.614 291.844 CURVE SMOOTH",
"615.614 56.844 OFFCURVE",
"533.283 2.844 OFFCURVE",
"447.242 2.844 CURVE SMOOTH",
"391.478 2.844 OFFCURVE",
"355.003 31.525 OFFCURVE",
"336.242 70.641 CURVE",
"359.614 122.844 LINE",
"362.614 82.844 OFFCURVE",
"394.614 39.844 OFFCURVE",
"447.242 39.844 CURVE SMOOTH",
"514.12 39.844 OFFCURVE",
"578.114 86.931 OFFCURVE",
"578.114 291.844 CURVE SMOOTH",
"578.114 497.629 OFFCURVE",
"513.943 543.844 OFFCURVE",
"440.242 543.844 CURVE SMOOTH",
"345.83 543.844 OFFCURVE",
"328.723 455.258 OFFCURVE",
"328.723 362.739 CURVE SMOOTH",
"328.723 310.831 OFFCURVE",
"320.979 240.182 OFFCURVE",
"250.242 209 CURVE"
);
},
{
closed = 1;
nodes = (
"43.112 200.987 CURVE SMOOTH",
"43.112 222.746 OFFCURVE",
"45.464 245.831 OFFCURVE",
"50.325 270 CURVE SMOOTH",
"59.058 313.411 OFFCURVE",
"75.039 351.78 OFFCURVE",
"96.723 369 CURVE",
"33 369 LINE",
"33 405 LINE",
"318.242 405 LINE",
"318.242 369 LINE",
"190.572 369 LINE SMOOTH",
"124.947 369 OFFCURVE",
"97.038 316.259 OFFCURVE",
"86.526 264 CURVE SMOOTH",
"82.358 243.278 OFFCURVE",
"80.35 223.495 OFFCURVE",
"80.35 204.875 CURVE SMOOTH",
"80.35 106.07 OFFCURVE",
"136.893 40 OFFCURVE",
"227.242 40 CURVE SMOOTH",
"316.104 40 OFFCURVE",
"349.242 103.167 OFFCURVE",
"349.242 158 CURVE SMOOTH",
"349.242 200.669 OFFCURVE",
"333.838 231.955 OFFCURVE",
"304.766 231.955 CURVE SMOOTH",
"295.599 231.955 OFFCURVE",
"285.072 228.845 OFFCURVE",
"273.242 222 CURVE",
"264.242 249 LINE",
"281.735 257.285 OFFCURVE",
"297.866 261.202 OFFCURVE",
"312.278 261.202 CURVE SMOOTH",
"357.849 261.202 OFFCURVE",
"386.242 222.041 OFFCURVE",
"386.242 158 CURVE SMOOTH",
"386.242 85.974 OFFCURVE",
"343.054 3 OFFCURVE",
"227.242 3 CURVE SMOOTH",
"113.146 3 OFFCURVE",
"43.112 82.229 OFFCURVE"
);
},
{
closed = 1;
nodes = (
"73.691 474 CURVE SMOOTH",
"73.691 553 OFFCURVE",
"133.294 591 OFFCURVE",
"190 591 CURVE SMOOTH",
"252.062 591 OFFCURVE",
"309.737 555.986 OFFCURVE",
"320.764 480 CURVE SMOOTH",
"321.951 471.812 OFFCURVE",
"322.573 463.148 OFFCURVE",
"322.573 454 CURVE SMOOTH",
"322.573 422.535 OFFCURVE",
"319 399 OFFCURVE",
"310 372 CURVE",
"288.573 402 LINE",
"288.573 416 OFFCURVE",
"288.573 435 OFFCURVE",
"288.573 454 CURVE SMOOTH",
"288.573 523.372 OFFCURVE",
"242.709 555 OFFCURVE",
"190 555 CURVE SMOOTH",
"150.845 555 OFFCURVE",
"109.691 528.692 OFFCURVE",
"109.691 474 CURVE SMOOTH",
"109.691 432 OFFCURVE",
"127.037 406 OFFCURVE",
"136.167 396 CURVE",
"114.167 376 LINE",
"102.167 387 OFFCURVE",
"73.691 419 OFFCURVE"
);
}
);
width = 648;
}
);
unicode = 0DB7;
},
{
glyphname = si_Ca;
layers = (
{
layerId = "AFC4C3A3-2D14-4C11-872C-451CCFDE8196";
name = Light;
paths = (
{
closed = 1;
nodes = (
"47.243 207 CURVE SMOOTH",
"47.243 309.342 OFFCURVE",
"97.243 349 OFFCURVE",
"106.243 354 CURVE",
"33 354 LINE",
"33 389 LINE",
"305.52 389 LINE",
"313.243 354 LINE",
"183.243 354 LINE SMOOTH",
"132.243 354 OFFCURVE",
"83.243 296.709 OFFCURVE",
"83.243 208 CURVE SMOOTH",
"83.243 142.715 OFFCURVE",
"115.394 40 OFFCURVE",
"252.243 40 CURVE SMOOTH",
"380.108 40 OFFCURVE",
"453.243 150.519 OFFCURVE",
"453.243 354 CURVE SMOOTH",
"453.243 634.015 OFFCURVE",
"362.466 712 OFFCURVE",
"251.243 712 CURVE SMOOTH",
"180.371 712 OFFCURVE",
"122.567 665.927 OFFCURVE",
"99.243 605 CURVE",
"65.243 618 LINE",
"103.243 716 OFFCURVE",
"191.211 749 OFFCURVE",
"251.243 749 CURVE SMOOTH",
"383.389 749 OFFCURVE",
"491.243 662.955 OFFCURVE",
"491.243 354 CURVE SMOOTH",
"491.243 126.541 OFFCURVE",
"404.282 3 OFFCURVE",
"252.243 3 CURVE SMOOTH",
"86.243 3 OFFCURVE",
"47.243 127.726 OFFCURVE"
);
},
{
closed = 1;
nodes = (
"81.243 420 CURVE SMOOTH",
"81.243 488 OFFCURVE",
"132.587 524 OFFCURVE",
"191.243 524 CURVE SMOOTH",
"255.8 524 OFFCURVE",
"315.688 481.099 OFFCURVE",
"315.688 387 CURVE SMOOTH",
"315.688 375.04 OFFCURVE",
"314.802 364.262 OFFCURVE",
"313.243 354 CURVE",
"281.863 379 LINE",
"281.771 381.638 OFFCURVE",
"281.688 384.229 OFFCURVE",
"281.688 387 CURVE SMOOTH",
"281.688 457.746 OFFCURVE",
"239.605 490 OFFCURVE",
"191.243 490 CURVE SMOOTH",
"149.286 490 OFFCURVE",
"114.719 467 OFFCURVE",
"114.719 420 CURVE SMOOTH",
"114.719 406.329 OFFCURVE",
"117.708 394.165 OFFCURVE",
"122.624 384 CURVE SMOOTH",
"93.754 370 LINE SMOOTH",
"86.4 384.32 OFFCURVE",
"81.243 401.846 OFFCURVE"
);
}
);
width = 524;
}
);
unicode = 0DA0;
},
{
glyphname = si_Cha;
layers = (
{
layerId = "AFC4C3A3-2D14-4C11-872C-451CCFDE8196";
name = Light;
paths = (
{
closed = 1;
nodes = (
"412.864 575 LINE SMOOTH",
"484.497 647.766 OFFCURVE",
"533 705.781 OFFCURVE",
"533 776 CURVE",
"569 776 LINE",
"569 698.187 OFFCURVE",
"518.717 632.518 OFFCURVE",
"441.609 553 CURVE SMOOTH"
);
},
{
closed = 1;
nodes = (
"271.834 454 CURVE SMOOTH",
"271.834 466.186 OFFCURVE",
"272.838 477.514 OFFCURVE",
"274.727 488 CURVE SMOOTH",
"287.42 558.491 OFFCURVE",
"340.082 591 OFFCURVE",
"396.278 591 CURVE SMOOTH",
"491 591 OFFCURVE",
"526 505 OFFCURVE",
"526 426 CURVE SMOOTH",
"526 296.292 OFFCURVE",
"465.155 196 OFFCURVE",
"368 196 CURVE SMOOTH",
"300.656 196 OFFCURVE",
"267.956 247.021 OFFCURVE",
"267.956 298.338 CURVE SMOOTH",
"267.956 338.461 OFFCURVE",
"287.947 378.765 OFFCURVE",
"327 395 CURVE",
"347 366 LINE",
"320.153 355.846 OFFCURVE",
"305.698 326.094 OFFCURVE",
"305.698 296.997 CURVE SMOOTH",
"305.698 263.053 OFFCURVE",
"325.372 230 OFFCURVE",
"368 230 CURVE SMOOTH",
"438 230 OFFCURVE",
"492.524 322 OFFCURVE",
"492.524 426 CURVE SMOOTH",
"492.524 482.043 OFFCURVE",
"463 557 OFFCURVE",
"396.278 557 CURVE SMOOTH",
"347.916 557 OFFCURVE",
"305.834 524.746 OFFCURVE",
"305.834 454 CURVE SMOOTH",
"305.834 435 OFFCURVE",
"305.834 416 OFFCURVE",
"305.834 402 CURVE",
"288.834 369 LINE",
"279.118 397.663 OFFCURVE",
"271.834 421.384 OFFCURVE"
);
},
{
closed = 1;
nodes = (
"70 224.437 CURVE SMOOTH",
"70 107.242 OFFCURVE",
"156.024 30 OFFCURVE",
"288.834 30 CURVE SMOOTH",
"421.644 30 OFFCURVE",
"507.668 106.806 OFFCURVE",
"507.668 224 CURVE SMOOTH",
"507.668 299.407 OFFCURVE",
"469.191 365 OFFCURVE",
"385 365 CURVE SMOOTH",
"192.668 365 LINE SMOOTH",
"108.477 365 OFFCURVE",
"70 299.844 OFFCURVE"
);
},
{
closed = 1;
nodes = (
"33 224.437 CURVE SMOOTH",
"33 319.693 OFFCURVE",
"85.903 402 OFFCURVE",
"192.668 402 CURVE SMOOTH",
"385 402 LINE SMOOTH",
"491.765 402 OFFCURVE",
"544.668 319.257 OFFCURVE",
"544.668 224 CURVE SMOOTH",
"544.668 84.505 OFFCURVE",
"444.34 -7 OFFCURVE",
"288.834 -7 CURVE SMOOTH",
"133.328 -7 OFFCURVE",
"33 84.941 OFFCURVE"
);
},
{
closed = 1;
nodes = (
"65.08 474 CURVE SMOOTH",
"65.08 553 OFFCURVE",
"124.683 591 OFFCURVE",
"181.389 591 CURVE SMOOTH",
"237.585 591 OFFCURVE",
"290.247 558.491 OFFCURVE",
"302.94 488 CURVE SMOOTH",
"304.829 477.514 OFFCURVE",
"305.833 466.186 OFFCURVE",
"305.833 454 CURVE SMOOTH",
"305.833 421.384 OFFCURVE",
"298.549 397.663 OFFCURVE",
"288.833 369 CURVE",
"271.833 402 LINE",
"271.833 416 OFFCURVE",
"271.834 435 OFFCURVE",
"271.834 454 CURVE SMOOTH",
"271.834 524.746 OFFCURVE",
"229.751 557 OFFCURVE",
"181.389 557 CURVE SMOOTH",
"141.004 557 OFFCURVE",
"98.556 530.043 OFFCURVE",
"98.556 474 CURVE SMOOTH",
"98.556 437.959 OFFCURVE",
"115.944 402 OFFCURVE",
"142.944 382 CURVE",
"116.944 361 LINE",
"85.397 385.565 OFFCURVE",
"65.08 429.732 OFFCURVE"
);
}
);
width = 602;
}
);
unicode = 0DA1;
},
{
glyphname = si_Da;
layers = (
{
layerId = "AFC4C3A3-2D14-4C11-872C-451CCFDE8196";
name = Light;
paths = (
{
closed = 1;
nodes = (
"33 212 CURVE SMOOTH",
"33 312.682 OFFCURVE",
"106 411 OFFCURVE",
"229.945 411 CURVE SMOOTH",
"254.226 411 OFFCURVE",
"302 411 OFFCURVE",
"325.802 411 CURVE",
"327.802 422 OFFCURVE",
"331 438.288 OFFCURVE",
"331 454 CURVE SMOOTH",
"331 524.746 OFFCURVE",
"288.918 557 OFFCURVE",
"240.556 557 CURVE SMOOTH",
"200.171 557 OFFCURVE",
"157.723 530.043 OFFCURVE",
"157.723 474 CURVE SMOOTH",
"157.723 431.347 OFFCURVE",
"179.467 406.53 OFFCURVE",
"188.63 398 CURVE",
"164.723 376 LINE",
"152.723 387 OFFCURVE",
"124.247 419 OFFCURVE",
"124.247 474 CURVE SMOOTH",
"124.247 553 OFFCURVE",
"183.85 591 OFFCURVE",
"240.556 591 CURVE SMOOTH",
"305.112 591 OFFCURVE",
"365 548.099 OFFCURVE",
"365 454 CURVE SMOOTH",
"365 424.453 OFFCURVE",
"360 399.965 OFFCURVE",
"351 374 CURVE",
"351 374 OFFCURVE",
"273 374 OFFCURVE",
"229.945 374 CURVE SMOOTH",
"130.144 374 OFFCURVE",
"70 295.036 OFFCURVE",
"70 212 CURVE SMOOTH",
"70 101.981 OFFCURVE",
"151.336 41.842 OFFCURVE",
"233.843 41.842 CURVE SMOOTH",
"285.123 41.842 OFFCURVE",
"336.856 65.074 OFFCURVE",
"369.795 114 CURVE",
"399.072 91.696 LINE",
"358.854 31.546 OFFCURVE",
"295.688 2.998 OFFCURVE",
"233.072 2.998 CURVE SMOOTH",
"132.322 2.998 OFFCURVE",
"33 76.908 OFFCURVE"
);
},
{
closed = 1;
nodes = (
"173.124 -57 CURVE SMOOTH",
"173.124 -24.173 OFFCURVE",
"180.868 1.596 OFFCURVE",
"205.795 34 CURVE",
"234.795 36 LINE",
"236.795 17 LINE",
"214.646 -8.84 OFFCURVE",
"210.124 -30.466 OFFCURVE",
"210.124 -57 CURVE SMOOTH",
"210.124 -111.588 OFFCURVE",
"250.591 -156.696 OFFCURVE",
"305.795 -156.696 CURVE SMOOTH",
"359.233 -156.696 OFFCURVE",
"393.213 -132.977 OFFCURVE",
"421.165 -83 CURVE",
"450.442 -105.304 LINE",
"415.396 -164.568 OFFCURVE",
"372.795 -192.696 OFFCURVE",
"305.795 -192.696 CURVE SMOOTH",
"226.38 -192.696 OFFCURVE",
"173.124 -129.529 OFFCURVE"
);
}
);
width = 420;
}
);
unicode = 0DAF;
},
{
glyphname = si_Dda;
layers = (
{
layerId = "AFC4C3A3-2D14-4C11-872C-451CCFDE8196";
name = Light;
paths = (
{
closed = 1;
nodes = (
"33.243 179.103 CURVE SMOOTH",
"33.243 248 OFFCURVE",
"53.222 327 OFFCURVE",
"87.222 354 CURVE",
"33 354 LINE",
"33 389 LINE",
"310.283 389 LINE",
"318.007 354 LINE",
"181.071 354 LINE SMOOTH",
"83.296 354 OFFCURVE",
"70.243 236.715 OFFCURVE",
"70.243 179.103 CURVE SMOOTH",
"70.243 101.944 OFFCURVE",
"94.643 40 OFFCURVE",
"156.687 40 CURVE SMOOTH",
"247.853 40 OFFCURVE",
"254.444 148.886 OFFCURVE",
"257.687 224.5 CURVE",
"291.687 224.5 LINE",
"294.929 148.886 OFFCURVE",
"301.521 40 OFFCURVE",
"392.687 40 CURVE SMOOTH",
"485.42 40 OFFCURVE",
"492.243 164 OFFCURVE",
"492.243 293 CURVE SMOOTH",
"492.243 576.887 OFFCURVE",
"417.792 712 OFFCURVE",
"264.687 712 CURVE SMOOTH",
"193.814 712 OFFCURVE",
"125.338 665.927 OFFCURVE",
"102.014 605 CURVE",
"68.014 618 LINE",
"96.213 692.593 OFFCURVE",
"179.001 749 OFFCURVE",
"264.687 749 CURVE SMOOTH",
"442.687 749 OFFCURVE",
"529.243 601.955 OFFCURVE",
"529.243 293 CURVE SMOOTH",
"529.243 145.135 OFFCURVE",
"519.884 3 OFFCURVE",
"392.687 3 CURVE SMOOTH",
"297.521 3 OFFCURVE",
"278.521 85 OFFCURVE",
"274.687 115 CURVE",
"270.853 85 OFFCURVE",
"251.853 3 OFFCURVE",
"156.687 3 CURVE SMOOTH",
"68.087 3 OFFCURVE",
"33.243 81.421 OFFCURVE"
);
},
{
closed = 1;
nodes = (
"86.007 420 CURVE SMOOTH",
"86.007 488 OFFCURVE",
"137.351 524 OFFCURVE",
"196.007 524 CURVE SMOOTH",
"260.563 524 OFFCURVE",
"320.451 481.099 OFFCURVE",
"320.451 387 CURVE SMOOTH",
"320.451 375.04 OFFCURVE",
"319.565 364.262 OFFCURVE",
"318.007 354 CURVE",
"286.627 379 LINE",
"286.534 381.638 OFFCURVE",
"286.451 384.229 OFFCURVE",
"286.451 387 CURVE SMOOTH",
"286.451 457.746 OFFCURVE",
"244.369 490 OFFCURVE",
"196.007 490 CURVE SMOOTH",
"154.05 490 OFFCURVE",
"119.482 467 OFFCURVE",
"119.482 420 CURVE SMOOTH",
"119.482 395.6 OFFCURVE",
"129.007 376 OFFCURVE",
"142.007 364 CURVE SMOOTH",
"117.825 344 LINE SMOOTH",
"102.007 358 OFFCURVE",
"86.007 388.023 OFFCURVE"
);
}
);
width = 562;
}
);
unicode = 0DA9;
},
{
glyphname = si_Ddha;
layers = (
{
layerId = "AFC4C3A3-2D14-4C11-872C-451CCFDE8196";
name = Light;
paths = (
{
closed = 1;
nodes = (
"299.255 603 CURVE SMOOTH",
"299.255 667.298 OFFCURVE",
"341.738 706.649 OFFCURVE",
"341.738 740.685 CURVE SMOOTH",
"341.738 754.219 OFFCURVE",
"335.021 766.912 OFFCURVE",
"316.243 780 CURVE",
"316.243 780 OFFCURVE",
"379.853 761 OFFCURVE",
"379.853 761 CURVE",
"377.508 749.59 OFFCURVE",
"373.952 726.29 OFFCURVE",
"373.952 726.29 CURVE",
"373.952 693.053 OFFCURVE",
"335.243 661.163 OFFCURVE",
"335.243 603 CURVE SMOOTH",
"335.243 561.562 OFFCURVE",
"376.989 524.959 OFFCURVE",
"440.212 524.959 CURVE SMOOTH",
"448.669 524.959 OFFCURVE",
"457.51 525.614 OFFCURVE",
"466.687 527 CURVE",
"489.853 522 LINE",
"474.687 494 LINE",
"462.438 492.013 OFFCURVE",
"450.64 491.073 OFFCURVE",
"439.353 491.073 CURVE SMOOTH",
"354.972 491.073 OFFCURVE",
"299.255 543.567 OFFCURVE"
);
},
{
closed = 1;
nodes = (
"33.243 179.103 CURVE SMOOTH",
"33.243 248 OFFCURVE",
"53.222 327 OFFCURVE",
"87.222 354 CURVE",
"33 354 LINE",
"33 389 LINE",
"310.283 389 LINE",
"318.007 354 LINE",
"181.071 354 LINE SMOOTH",
"83.296 354 OFFCURVE",
"70.243 236.715 OFFCURVE",
"70.243 179.103 CURVE SMOOTH",
"70.243 101.944 OFFCURVE",
"94.644 40 OFFCURVE",
"156.687 40 CURVE SMOOTH",
"247.853 40 OFFCURVE",
"254.444 148.886 OFFCURVE",
"257.687 224.5 CURVE",
"291.687 224.5 LINE",
"294.929 148.886 OFFCURVE",
"301.521 40 OFFCURVE",
"392.687 40 CURVE SMOOTH",
"485.42 40 OFFCURVE",
"492.243 164 OFFCURVE",
"492.243 293 CURVE SMOOTH",
"492.243 382.184 OFFCURVE",
"482.971 458.763 OFFCURVE",
"466.712 524 CURVE",
"445.534 608.981 OFFCURVE",
"412.502 674.718 OFFCURVE",
"372.673 724 CURVE",
"355.048 745.808 OFFCURVE",
"336.092 764.394 OFFCURVE",
"316.243 780 CURVE",
"339.243 807 LINE",
"401.793 758.919 OFFCURVE",
"456.129 684.035 OFFCURVE",
"490.486 576 CURVE SMOOTH",
"514.915 499.187 OFFCURVE",
"529.243 405.613 OFFCURVE",
"529.243 293 CURVE SMOOTH",
"529.243 145.135 OFFCURVE",
"519.884 3 OFFCURVE",
"392.687 3 CURVE SMOOTH",
"297.521 3 OFFCURVE",
"278.521 85 OFFCURVE",
"274.687 115 CURVE",
"270.853 85 OFFCURVE",
"251.853 3 OFFCURVE",
"156.687 3 CURVE SMOOTH",
"68.087 3 OFFCURVE",
"33.243 81.421 OFFCURVE"
);
},
{
closed = 1;
nodes = (
"86.007 420 CURVE SMOOTH",
"86.007 488 OFFCURVE",
"137.351 524 OFFCURVE",
"196.007 524 CURVE SMOOTH",
"260.563 524 OFFCURVE",
"320.451 481.099 OFFCURVE",
"320.451 387 CURVE SMOOTH",
"320.451 375.04 OFFCURVE",
"319.565 364.262 OFFCURVE",
"318.007 354 CURVE",
"286.627 379 LINE",
"286.534 381.638 OFFCURVE",
"286.451 384.229 OFFCURVE",
"286.451 387 CURVE SMOOTH",
"286.451 457.746 OFFCURVE",
"244.369 490 OFFCURVE",
"196.007 490 CURVE SMOOTH",
"154.05 490 OFFCURVE",
"119.482 467 OFFCURVE",
"119.482 420 CURVE SMOOTH",
"119.482 395.6 OFFCURVE",
"129.007 376 OFFCURVE",
"142.007 364 CURVE",
"117.825 344 LINE",
"102.007 358 OFFCURVE",
"86.007 388.023 OFFCURVE"
);
}
);
width = 562;
}
);
unicode = 0DAA;
},
{
glyphname = si_Dha;
layers = (
{
layerId = "AFC4C3A3-2D14-4C11-872C-451CCFDE8196";
name = Light;
paths = (
{
closed = 1;
nodes = (
"32.609 214 CURVE SMOOTH",
"32.609 266.264 OFFCURVE",
"43.58 312.662 OFFCURVE",
"61.717 350 CURVE SMOOTH",
"90.837 409.948 OFFCURVE",
"138.43 446.538 OFFCURVE",
"188.747 446.538 CURVE SMOOTH",
"207.651 446.538 OFFCURVE",
"225.995 441.8 OFFCURVE",
"245.747 432 CURVE",
"229.747 400 LINE",
"215.539 407.104 OFFCURVE",
"202.345 410.538 OFFCURVE",
"188.747 410.538 CURVE SMOOTH",
"149.977 410.538 OFFCURVE",
"114.854 379.613 OFFCURVE",
"92.952 331 CURVE SMOOTH",
"78.338 298.563 OFFCURVE",
"69.609 258.253 OFFCURVE",
"69.609 214 CURVE SMOOTH",
"69.609 130.796 OFFCURVE",
"92.002 40 OFFCURVE",
"159.443 40 CURVE SMOOTH",
"250.609 40 OFFCURVE",
"257.201 148.886 OFFCURVE",
"260.443 224.5 CURVE",
"294.443 224.5 LINE",
"297.686 148.886 OFFCURVE",
"304.277 40 OFFCURVE",
"395.443 40 CURVE SMOOTH",
"488.177 40 OFFCURVE",
"495 164 OFFCURVE",
"495 293 CURVE SMOOTH",
"495 576.887 OFFCURVE",
"420.549 712 OFFCURVE",
"267.443 712 CURVE SMOOTH",
"196.571 712 OFFCURVE",
"128.095 665.927 OFFCURVE",
"104.771 605 CURVE",
"70.771 618 LINE",
"98.97 692.593 OFFCURVE",
"181.758 749 OFFCURVE",
"267.443 749 CURVE SMOOTH",
"445.443 749 OFFCURVE",
"532 601.955 OFFCURVE",
"532 293 CURVE SMOOTH",
"532 145.135 OFFCURVE",
"522.641 3 OFFCURVE",
"395.443 3 CURVE SMOOTH",
"300.277 3 OFFCURVE",
"281.277 85 OFFCURVE",
"277.443 115 CURVE",
"273.609 85 OFFCURVE",
"254.609 3 OFFCURVE",
"159.443 3 CURVE SMOOTH",
"61.448 3 OFFCURVE",
"32.609 115.606 OFFCURVE"
);
}
);
width = 564;
}
);
unicode = 0DB0;
},
{
glyphname = si_E;
layers = (
{
layerId = "AFC4C3A3-2D14-4C11-872C-451CCFDE8196";
name = Light;
paths = (
{
closed = 1;
nodes = (
"282.826 603 CURVE SMOOTH",
"282.826 667.298 OFFCURVE",
"325.31 706.649 OFFCURVE",
"325.31 740.685 CURVE SMOOTH",
"325.31 754.219 OFFCURVE",
"318.592 766.912 OFFCURVE",
"299.814 780 CURVE",
"363.424 761 LINE",
"361.079 749.59 OFFCURVE",
"357.523 726.29 OFFCURVE",
"357.523 726.29 CURVE",
"357.523 693.053 OFFCURVE",
"318.814 661.163 OFFCURVE",
"318.814 603 CURVE SMOOTH",
"318.814 561.562 OFFCURVE",
"360.561 524.959 OFFCURVE",
"423.783 524.959 CURVE SMOOTH",
"432.24 524.959 OFFCURVE",
"441.081 525.614 OFFCURVE",
"450.258 527 CURVE",
"473.424 522 LINE",
"458.258 494 LINE",
"446.01 492.013 OFFCURVE",
"434.211 491.073 OFFCURVE",
"422.924 491.073 CURVE SMOOTH",
"338.543 491.073 OFFCURVE",
"282.826 543.567 OFFCURVE"
);
},
{
closed = 1;
nodes = (
"47.243 207 CURVE SMOOTH",
"47.243 309.342 OFFCURVE",
"97.243 349 OFFCURVE",
"106.243 354 CURVE",
"33 354 LINE",
"33 389 LINE",
"305.52 389 LINE",
"313.243 354 LINE",
"183.243 354 LINE SMOOTH",
"132.243 354 OFFCURVE",
"83.243 296.709 OFFCURVE",
"83.243 208 CURVE SMOOTH",
"83.243 142.715 OFFCURVE",
"115.394 40 OFFCURVE",
"252.243 40 CURVE SMOOTH",
"390.425 40 OFFCURVE",
"465.409 150.386 OFFCURVE",
"465.409 342 CURVE SMOOTH",
"465.409 410.759 OFFCURVE",
"461.175 471.187 OFFCURVE",
"450.283 524 CURVE",
"429.105 608.981 OFFCURVE",
"396.073 674.718 OFFCURVE",
"356.244 724 CURVE",
"338.619 745.808 OFFCURVE",
"319.663 764.394 OFFCURVE",
"299.814 780 CURVE",
"322.814 807 LINE",
"441.823 715.402 OFFCURVE",
"502.409 562.866 OFFCURVE",
"502.409 342 CURVE SMOOTH",
"502.409 126.91 OFFCURVE",
"414.409 3 OFFCURVE",
"252.243 3 CURVE SMOOTH",
"86.243 3 OFFCURVE",
"47.243 127.726 OFFCURVE"
);
},
{
closed = 1;
nodes = (
"81.243 420 CURVE SMOOTH",
"81.243 488 OFFCURVE",
"132.587 524 OFFCURVE",
"191.243 524 CURVE SMOOTH",
"255.8 524 OFFCURVE",
"315.688 481.099 OFFCURVE",
"315.688 387 CURVE SMOOTH",
"315.688 375.04 OFFCURVE",
"314.802 364.262 OFFCURVE",
"313.243 354 CURVE",
"281.863 379 LINE",
"281.771 381.638 OFFCURVE",
"281.688 384.229 OFFCURVE",
"281.688 387 CURVE SMOOTH",
"281.688 457.746 OFFCURVE",
"239.605 490 OFFCURVE",
"191.243 490 CURVE SMOOTH",
"149.286 490 OFFCURVE",
"114.719 467 OFFCURVE",
"114.719 420 CURVE SMOOTH",
"114.719 406.329 OFFCURVE",
"117.708 394.165 OFFCURVE",
"122.624 384 CURVE SMOOTH",
"93.754 370 LINE SMOOTH",
"86.4 384.32 OFFCURVE",
"81.243 401.846 OFFCURVE"
);
}
);
width = 535;
}
);
unicode = 0D91;
},
{
glyphname = si_Ee;
layers = (
{
layerId = "AFC4C3A3-2D14-4C11-872C-451CCFDE8196";
name = Light;
paths = (
{
closed = 1;
nodes = (
"470 638 CURVE",
"477 672 LINE",
"484.02 670.738 OFFCURVE",
"496.299 667.194 OFFCURVE",
"514 667.194 CURVE SMOOTH",
"549.928 667.194 OFFCURVE",
"581 688 OFFCURVE",
"581 749 CURVE SMOOTH",
"581 828.298 OFFCURVE",
"521.5 829 OFFCURVE",
"496 829 CURVE SMOOTH",
"492.98 829 OFFCURVE",
"487 829 OFFCURVE",
"487 829 CURVE",
"469 848 LINE",
"496 863 LINE",
"532 863 OFFCURVE",
"616 862 OFFCURVE",
"616 749 CURVE SMOOTH",
"616 664 OFFCURVE",
"568.695 632.194 OFFCURVE",
"514 632.194 CURVE SMOOTH",
"499.592 632.194 OFFCURVE",
"484.755 634.109 OFFCURVE"
);
},
{
closed = 1;
nodes = (
"461 863 LINE",
"496 863 LINE",
"496 855 LINE",
"492 839 LINE",
"492 662 LINE",
"496 642 LINE",
"496 459 LINE",
"461 459 LINE"
);
},
{
closed = 1;
nodes = (
"282.826 603 CURVE SMOOTH",
"282.826 667.298 OFFCURVE",
"325.31 706.649 OFFCURVE",
"325.31 740.685 CURVE SMOOTH",
"325.31 754.219 OFFCURVE",
"318.592 766.912 OFFCURVE",
"299.814 780 CURVE",
"299.814 780 OFFCURVE",
"363.424 761 OFFCURVE",
"363.424 761 CURVE",
"361.079 749.59 OFFCURVE",
"357.523 726.29 OFFCURVE",
"357.523 726.29 CURVE",
"357.523 693.053 OFFCURVE",
"318.814 661.163 OFFCURVE",
"318.814 603 CURVE SMOOTH",
"318.814 561.562 OFFCURVE",
"360.561 524.959 OFFCURVE",
"423.783 524.959 CURVE SMOOTH",
"432.24 524.959 OFFCURVE",
"441.081 525.614 OFFCURVE",
"450.258 527 CURVE",
"473.424 522 LINE",
"458.258 494 LINE",
"446.01 492.013 OFFCURVE",
"434.211 491.073 OFFCURVE",
"422.924 491.073 CURVE SMOOTH",
"338.543 491.073 OFFCURVE",
"282.826 543.567 OFFCURVE"
);
},
{
closed = 1;
nodes = (
"47.243 207 CURVE SMOOTH",
"47.243 309.342 OFFCURVE",
"97.243 349 OFFCURVE",
"106.243 354 CURVE",
"33 354 LINE",
"33 389 LINE",
"305.52 389 LINE",
"313.243 354 LINE",
"183.243 354 LINE SMOOTH",
"132.243 354 OFFCURVE",
"83.243 296.709 OFFCURVE",
"83.243 208 CURVE SMOOTH",
"83.243 142.715 OFFCURVE",
"115.394 40 OFFCURVE",
"252.243 40 CURVE SMOOTH",
"390.425 40 OFFCURVE",
"465.409 150.386 OFFCURVE",
"465.409 342 CURVE SMOOTH",
"465.409 410.759 OFFCURVE",
"461.175 471.187 OFFCURVE",
"450.283 524 CURVE",
"429.105 608.981 OFFCURVE",
"396.073 674.718 OFFCURVE",
"356.244 724 CURVE",
"338.619 745.808 OFFCURVE",
"319.663 764.394 OFFCURVE",
"299.814 780 CURVE",
"322.814 807 LINE",
"394.625 751.729 OFFCURVE",
"445.164 674.271 OFFCURVE",
"473.956 573 CURVE",
"478.348 557.556 OFFCURVE",
"482.232 541.558 OFFCURVE",
"485.61 525 CURVE",
"496.789 470.199 OFFCURVE",
"502.409 409.269 OFFCURVE",
"502.409 342 CURVE SMOOTH",
"502.409 126.91 OFFCURVE",
"414.409 3 OFFCURVE",
"252.243 3 CURVE SMOOTH",
"86.243 3 OFFCURVE",
"47.243 127.726 OFFCURVE"
);
},
{
closed = 1;
nodes = (
"81.243 420 CURVE SMOOTH",
"81.243 488 OFFCURVE",
"132.587 524 OFFCURVE",
"191.243 524 CURVE SMOOTH",
"255.8 524 OFFCURVE",
"315.688 481.099 OFFCURVE",
"315.688 387 CURVE SMOOTH",
"315.688 375.04 OFFCURVE",
"314.802 364.262 OFFCURVE",
"313.243 354 CURVE",
"281.863 379 LINE",
"281.771 381.638 OFFCURVE",
"281.688 384.229 OFFCURVE",
"281.688 387 CURVE SMOOTH",
"281.688 457.746 OFFCURVE",
"239.605 490 OFFCURVE",
"191.243 490 CURVE SMOOTH",
"149.286 490 OFFCURVE",
"114.719 467 OFFCURVE",
"114.719 420 CURVE SMOOTH",
"114.719 406.329 OFFCURVE",
"117.708 394.165 OFFCURVE",
"122.624 384 CURVE SMOOTH",
"93.754 370 LINE SMOOTH",
"86.4 384.32 OFFCURVE",
"81.243 401.846 OFFCURVE"
);
}
);
width = 535;
}
);
unicode = 0D92;
},
{
glyphname = si_Fa;
layers = (
{
layerId = "AFC4C3A3-2D14-4C11-872C-451CCFDE8196";
name = Light;
paths = (
{
closed = 1;
nodes = (
"33 292 CURVE SMOOTH",
"33 460.068 OFFCURVE",
"54.217 591 OFFCURVE",
"167.979 591 CURVE SMOOTH",
"263.145 591 OFFCURVE",
"282.145 509 OFFCURVE",
"285.979 479 CURVE",
"289.812 509 OFFCURVE",
"308.812 591 OFFCURVE",
"403.979 591 CURVE SMOOTH",
"517.74 591 OFFCURVE",
"538.957 460.068 OFFCURVE",
"538.957 292 CURVE SMOOTH",
"538.957 126 OFFCURVE",
"489.74 3 OFFCURVE",
"338.74 3 CURVE",
"338.74 40 LINE",
"461.836 40 OFFCURVE",
"501.957 147.253 OFFCURVE",
"501.957 292 CURVE SMOOTH",
"501.957 439.271 OFFCURVE",
"481.74 554 OFFCURVE",
"403.979 554 CURVE SMOOTH",
"312.812 554 OFFCURVE",
"306.221 445.114 OFFCURVE",
"302.979 369.5 CURVE",
"268.979 369.5 LINE",
"265.736 445.114 OFFCURVE",
"259.145 554 OFFCURVE",
"167.979 554 CURVE SMOOTH",
"90.217 554 OFFCURVE",
"70 439.271 OFFCURVE",
"70 292 CURVE SMOOTH",
"70 147.253 OFFCURVE",
"110.121 40 OFFCURVE",
"233.217 40 CURVE",
"233.217 3 LINE",
"82.217 3 OFFCURVE",
"33 126 OFFCURVE"
);
}
);
width = 571;
}
);
unicode = 0DC6;
},
{
glyphname = si_Ga;
layers = (
{
layerId = "AFC4C3A3-2D14-4C11-872C-451CCFDE8196";
name = Light;
paths = (
{
closed = 1;
nodes = (
"229 276 LINE",
"273.565 295.978 OFFCURVE",
"279.831 338.024 OFFCURVE",
"279.831 369.95 CURVE SMOOTH",
"279.831 382.439 OFFCURVE",
"278.872 393.38 OFFCURVE",
"278.872 400.844 CURVE SMOOTH",
"278.872 512.851 OFFCURVE",
"348 581 OFFCURVE",
"428 581 CURVE SMOOTH",
"520.438 581 OFFCURVE",
"603.372 528 OFFCURVE",
"603.372 292 CURVE SMOOTH",
"603.372 57 OFFCURVE",
"521.041 3 OFFCURVE",
"435 3 CURVE SMOOTH",
"379.235 3 OFFCURVE",
"342.761 31.682 OFFCURVE",
"324 70.797 CURVE SMOOTH",
"347.372 123 LINE",
"350.372 83 OFFCURVE",
"382.372 40 OFFCURVE",
"435 40 CURVE SMOOTH",
"501.878 40 OFFCURVE",
"565.872 87.087 OFFCURVE",
"565.872 292 CURVE SMOOTH",
"565.872 497.785 OFFCURVE",
"501.701 544 OFFCURVE",
"428 544 CURVE SMOOTH",
"352.452 544 OFFCURVE",
"315.872 474.387 OFFCURVE",
"315.872 400.844 CURVE SMOOTH",
"315.872 392.56 OFFCURVE",
"316.457 382.064 OFFCURVE",
"316.457 370.388 CURVE SMOOTH",
"316.457 328.728 OFFCURVE",
"309.013 272.025 OFFCURVE",
"241 247 CURVE"
);
},
{
closed = 1;
nodes = (
"33 276 CURVE SMOOTH",
"33 524.011 OFFCURVE",
"115.331 581 OFFCURVE",
"201.372 581 CURVE SMOOTH",
"275 581 OFFCURVE",
"315 531 OFFCURVE",
"325 473 CURVE",
"289 461 LINE",
"286 501 OFFCURVE",
"254 544 OFFCURVE",
"201.372 544 CURVE SMOOTH",
"134.494 544 OFFCURVE",
"70.5 493.924 OFFCURVE",
"70.5 276 CURVE SMOOTH",
"70.5 83.28 OFFCURVE",
"144.299 40 OFFCURVE",
"218 40 CURVE SMOOTH",
"304.77 40 OFFCURVE",
"337.128 111.732 OFFCURVE",
"337.128 174 CURVE SMOOTH",
"337.128 224.729 OFFCURVE",
"313.176 268.541 OFFCURVE",
"276 272 CURVE",
"293 301 LINE",
"329 298.771 OFFCURVE",
"374.128 249.754 OFFCURVE",
"374.128 174 CURVE SMOOTH",
"374.128 94.539 OFFCURVE",
"331.72 3 OFFCURVE",
"218 3 CURVE SMOOTH",
"125.562 3 OFFCURVE",
"33 53.065 OFFCURVE"
);
}
);
width = 636;
}
);
unicode = 0D9C;
},
{
glyphname = si_Gha;
layers = (
{
layerId = "AFC4C3A3-2D14-4C11-872C-451CCFDE8196";
name = Light;
paths = (
{
closed = 1;
nodes = (
"278.722 454 CURVE SMOOTH",
"278.722 466.186 OFFCURVE",
"279.727 477.513 OFFCURVE",
"281.616 488 CURVE SMOOTH",
"294.312 558.491 OFFCURVE",
"346.971 591 OFFCURVE",
"403.167 591 CURVE SMOOTH",
"459.873 591 OFFCURVE",
"519.476 553 OFFCURVE",
"519.476 474 CURVE SMOOTH",
"519.476 429.732 OFFCURVE",
"499.158 385.565 OFFCURVE",
"467.611 361 CURVE",
"441.611 382 LINE",
"468.611 402 OFFCURVE",
"486 437.959 OFFCURVE",
"486 474 CURVE SMOOTH",
"486 530.043 OFFCURVE",
"443.552 557 OFFCURVE",
"403.167 557 CURVE SMOOTH",
"354.805 557 OFFCURVE",
"312.723 524.746 OFFCURVE",
"312.723 454 CURVE SMOOTH",
"312.723 435 OFFCURVE",
"312.723 416 OFFCURVE",
"312.723 402 CURVE",
"295.723 369 LINE",
"286.006 397.663 OFFCURVE",
"278.722 421.384 OFFCURVE"
);
},
{
closed = 1;
nodes = (
"79.744 189.103 CURVE SMOOTH",
"79.744 102.481 OFFCURVE",
"111.698 35 OFFCURVE",
"177.723 35 CURVE SMOOTH",
"205.601 35 OFFCURVE",
"225.889 57.186 OFFCURVE",
"225.889 85 CURVE SMOOTH",
"225.889 124 OFFCURVE",
"204.889 135 OFFCURVE",
"204.889 171 CURVE SMOOTH",
"204.889 225.03 OFFCURVE",
"243.398 239 OFFCURVE",
"295.723 239 CURVE SMOOTH",
"348.047 239 OFFCURVE",
"386.557 225.03 OFFCURVE",
"386.557 171 CURVE SMOOTH",
"386.557 135 OFFCURVE",
"365.557 124 OFFCURVE",
"365.557 85 CURVE SMOOTH",
"365.557 57.186 OFFCURVE",
"385.845 35 OFFCURVE",
"413.723 35 CURVE SMOOTH",
"479.747 35 OFFCURVE",
"511.701 102.481 OFFCURVE",
"511.701 189.103 CURVE SMOOTH",
"511.701 247 OFFCURVE",
"500.571 364 OFFCURVE",
"416.723 364 CURVE SMOOTH",
"190.572 364 LINE SMOOTH",
"92.797 364 OFFCURVE",
"79.744 246.168 OFFCURVE"
);
},
{
closed = 1;
nodes = (
"42.744 194.103 CURVE SMOOTH",
"42.744 263 OFFCURVE",
"62.723 342 OFFCURVE",
"96.723 369 CURVE",
"33 369 LINE",
"33 405 LINE",
"418.572 405 LINE SMOOTH",
"448.889 405 OFFCURVE",
"472.316 394.708 OFFCURVE",
"490.591 378 CURVE SMOOTH",
"536 336.482 OFFCURVE",
"548.701 255.352 OFFCURVE",
"548.701 194.103 CURVE SMOOTH",
"548.701 86.684 OFFCURVE",
"504.68 3 OFFCURVE",
"413.723 3 CURVE SMOOTH",
"364.43 3 OFFCURVE",
"328.557 41.603 OFFCURVE",
"328.557 90 CURVE SMOOTH",
"328.557 131 OFFCURVE",
"349.557 147 OFFCURVE",
"349.557 172 CURVE SMOOTH",
"349.557 200.921 OFFCURVE",
"324.646 207 OFFCURVE",
"295.723 207 CURVE SMOOTH",
"266.799 207 OFFCURVE",
"241.889 200.921 OFFCURVE",
"241.889 172 CURVE SMOOTH",
"241.889 147 OFFCURVE",
"262.889 131 OFFCURVE",
"262.889 90 CURVE SMOOTH",
"262.889 41.603 OFFCURVE",
"227.016 3 OFFCURVE",
"177.723 3 CURVE SMOOTH",
"86.766 3 OFFCURVE",
"42.744 86.684 OFFCURVE"
);
},
{
closed = 1;
nodes = (
"71.97 474 CURVE SMOOTH",
"71.97 553 OFFCURVE",
"131.572 591 OFFCURVE",
"188.278 591 CURVE SMOOTH",
"244.475 591 OFFCURVE",
"297.134 558.491 OFFCURVE",
"309.83 488 CURVE SMOOTH",
"311.719 477.513 OFFCURVE",
"312.724 466.186 OFFCURVE",
"312.724 454 CURVE SMOOTH",
"312.724 421.384 OFFCURVE",
"305.439 397.663 OFFCURVE",
"295.723 369 CURVE",
"278.723 402 LINE",
"278.723 416 OFFCURVE",
"278.723 435 OFFCURVE",
"278.723 454 CURVE SMOOTH",
"278.723 524.746 OFFCURVE",
"236.641 557 OFFCURVE",
"188.278 557 CURVE SMOOTH",
"147.893 557 OFFCURVE",
"105.445 530.043 OFFCURVE",
"105.445 474 CURVE SMOOTH",
"105.445 432 OFFCURVE",
"124.445 406 OFFCURVE",
"134.445 396 CURVE",
"112.445 376 LINE",
"100.445 387 OFFCURVE",
"71.97 419 OFFCURVE"
);
}
);
width = 581;
}
);
unicode = 0D9D;
},
{
glyphname = si_Ha;
layers = (
{
layerId = "AFC4C3A3-2D14-4C11-872C-451CCFDE8196";
name = Light;
paths = (
{
closed = 1;
nodes = (
"218.647 238 LINE",
"266.676 264.465 OFFCURVE",
"271.933 324.425 OFFCURVE",
"271.933 368.48 CURVE SMOOTH",
"271.933 478.833 OFFCURVE",
"303.326 580.844 OFFCURVE",
"420.647 580.844 CURVE SMOOTH",
"513.086 580.844 OFFCURVE",
"596.02 527.844 OFFCURVE",
"596.02 291.844 CURVE SMOOTH",
"596.02 56.844 OFFCURVE",
"513.688 2.844 OFFCURVE",
"427.647 2.844 CURVE SMOOTH",
"371.883 2.844 OFFCURVE",
"335.408 31.525 OFFCURVE",
"316.647 70.641 CURVE",
"340.02 122.844 LINE",
"343.02 82.844 OFFCURVE",
"375.02 39.844 OFFCURVE",
"427.647 39.844 CURVE SMOOTH",
"494.525 39.844 OFFCURVE",
"558.52 86.931 OFFCURVE",
"558.52 291.844 CURVE SMOOTH",
"558.52 497.629 OFFCURVE",
"494.349 543.844 OFFCURVE",
"420.647 543.844 CURVE SMOOTH",
"326.236 543.844 OFFCURVE",
"309.128 455.258 OFFCURVE",
"309.128 362.739 CURVE SMOOTH",
"309.128 310.831 OFFCURVE",
"301.386 240.182 OFFCURVE",
"230.647 209 CURVE"
);
},
{
closed = 1;
nodes = (
"33 210 CURVE SMOOTH",
"33 265.954 OFFCURVE",
"45.7 340.071 OFFCURVE",
"91.11 378 CURVE SMOOTH",
"110.114 393.873 OFFCURVE",
"132.956 405 OFFCURVE",
"163.129 405 CURVE SMOOTH",
"293.812 405 LINE",
"285.979 369 LINE",
"164.979 369 LINE SMOOTH",
"81.13 369 OFFCURVE",
"70 262.635 OFFCURVE",
"70 210 CURVE SMOOTH",
"70 101.003 OFFCURVE",
"117.298 40 OFFCURVE",
"207.647 40 CURVE SMOOTH",
"296.509 40 OFFCURVE",
"329.647 103.167 OFFCURVE",
"329.647 158 CURVE SMOOTH",
"329.647 200.669 OFFCURVE",
"314.244 231.955 OFFCURVE",
"285.171 231.955 CURVE SMOOTH",
"276.004 231.955 OFFCURVE",
"265.479 228.845 OFFCURVE",
"253.647 222 CURVE",
"244.647 249 LINE",
"262.142 257.285 OFFCURVE",
"278.271 261.202 OFFCURVE",
"292.684 261.202 CURVE SMOOTH",
"338.254 261.202 OFFCURVE",
"366.647 222.041 OFFCURVE",
"366.647 158 CURVE SMOOTH",
"366.647 85.974 OFFCURVE",
"323.459 3 OFFCURVE",
"207.647 3 CURVE SMOOTH",
"93.552 3 OFFCURVE",
"33 81.362 OFFCURVE"
);
},
{
closed = 1;
nodes = (
"62.226 474 CURVE SMOOTH",
"62.226 553 OFFCURVE",
"121.828 591 OFFCURVE",
"178.534 591 CURVE SMOOTH",
"234.73 591 OFFCURVE",
"287.391 558.491 OFFCURVE",
"300.085 488 CURVE SMOOTH",
"301.974 477.513 OFFCURVE",
"302.979 466.186 OFFCURVE",
"302.979 454 CURVE SMOOTH",
"302.979 421.384 OFFCURVE",
"295.695 397.663 OFFCURVE",
"285.979 369 CURVE",
"269.275 404 LINE",
"269.112 419.017 OFFCURVE",
"268.979 435.438 OFFCURVE",
"268.979 454 CURVE SMOOTH",
"268.979 524.746 OFFCURVE",
"226.896 557 OFFCURVE",
"178.534 557 CURVE SMOOTH",
"138.149 557 OFFCURVE",
"95.701 530.043 OFFCURVE",
"95.701 474 CURVE SMOOTH",
"95.701 437.959 OFFCURVE",
"113.09 402 OFFCURVE",
"140.09 382 CURVE",
"114.09 361 LINE",
"82.543 385.565 OFFCURVE",
"62.226 429.732 OFFCURVE"
);
}
);
width = 629;
}
);
unicode = 0DC4;
},
{
glyphname = si_I;
layers = (
{
layerId = "AFC4C3A3-2D14-4C11-872C-451CCFDE8196";
name = Light;
paths = (
{
closed = 1;
nodes = (
"107 -137.54 CURVE",
"135 -114 LINE",
"162.146 -148.369 OFFCURVE",
"195.619 -163.339 OFFCURVE",
"226.71 -163.339 CURVE SMOOTH",
"285.534 -163.339 OFFCURVE",
"320 -121.752 OFFCURVE",
"320 -70 CURVE SMOOTH",
"320 -27.862 OFFCURVE",
"309.14 19.872 OFFCURVE",
"225 27.071 CURVE SMOOTH",
"217.872 27.681 OFFCURVE",
"210.218 28 OFFCURVE",
"202 28 CURVE",
"225 56 LINE",
"271 45 LINE",
"314 43 OFFCURVE",
"357 6 OFFCURVE",
"357 -70 CURVE SMOOTH",
"357 -142.267 OFFCURVE",
"308.684 -200.339 OFFCURVE",
"226.71 -200.339 CURVE SMOOTH",
"186.127 -200.339 OFFCURVE",
"142.435 -181.285 OFFCURVE"
);
},
{
closed = 1;
nodes = (
"33 375 CURVE SMOOTH",
"33 476.045 OFFCURVE",
"101.125 591 OFFCURVE",
"251 591 CURVE SMOOTH",
"372.7 591 OFFCURVE",
"480 515.195 OFFCURVE",
"480 322 CURVE SMOOTH",
"480 174.285 OFFCURVE",
"404.957 84.644 OFFCURVE",
"304 47.572 CURVE SMOOTH",
"272.073 35.849 OFFCURVE",
"237.556 29.383 OFFCURVE",
"202 28 CURVE",
"200.999 65.774 LINE",
"304 65.774 OFFCURVE",
"443 136.219 OFFCURVE",
"443 322 CURVE SMOOTH",
"443 488.622 OFFCURVE",
"353.037 554 OFFCURVE",
"251 554 CURVE SMOOTH",
"133.621 554 OFFCURVE",
"67 467.325 OFFCURVE",
"67 375 CURVE SMOOTH",
"67 302.069 OFFCURVE",
"102 248 OFFCURVE",
"102 248 CURVE",
"114 218 LINE",
"80 223 LINE",
"49 260 OFFCURVE",
"33 307 OFFCURVE"
);
},
{
closed = 1;
nodes = (
"88.099 299.957 CURVE SMOOTH",
"88.099 251.448 OFFCURVE",
"127.188 212.307 OFFCURVE",
"175.749 212.307 CURVE SMOOTH",
"224.254 212.307 OFFCURVE",
"263.401 251.394 OFFCURVE",
"263.401 299.957 CURVE SMOOTH",
"263.401 348.466 OFFCURVE",
"224.311 387.611 OFFCURVE",
"175.749 387.611 CURVE SMOOTH",
"127.24 387.611 OFFCURVE",
"88.099 348.518 OFFCURVE"
);
},
{
closed = 1;
nodes = (
"56.856 275.716 CURVE SMOOTH",
"56.856 283.542 OFFCURVE",
"58 291.635 OFFCURVE",
"58 300 CURVE",
"58 367.725 OFFCURVE",
"104 423.869 OFFCURVE",
"176 423.869 CURVE SMOOTH",
"202.995 423.869 OFFCURVE",
"227.885 414.98 OFFCURVE",
"248.058 400 CURVE SMOOTH",
"278.496 377.397 OFFCURVE",
"298.198 340.928 OFFCURVE",
"298.198 300.198 CURVE SMOOTH",
"298.198 232.474 OFFCURVE",
"243.725 178 OFFCURVE",
"176 178 CURVE SMOOTH",
"122.373 178 OFFCURVE",
"76.131 212.155 OFFCURVE",
"59.203 260 CURVE SMOOTH",
"57.394 265.114 OFFCURVE",
"56.856 270.353 OFFCURVE"
);
}
);
width = 513;
}
);
unicode = 0D89;
},
{
glyphname = si_Ii;
layers = (
{
components = (
{
name = si_Ra;
transform = "{1, 0, 0, 1, 11, -4}";
}
);
layerId = "AFC4C3A3-2D14-4C11-872C-451CCFDE8196";
name = Light;
paths = (
{
closed = 1;
nodes = (
"182 745 CURVE SMOOTH",
"182 761 OFFCURVE",
"195 774 OFFCURVE",
"211 774 CURVE SMOOTH",
"227 774 OFFCURVE",
"240 761 OFFCURVE",
"240 745 CURVE SMOOTH",
"240 729 OFFCURVE",
"227 716 OFFCURVE",
"211 716 CURVE SMOOTH",
"195 716 OFFCURVE",
"182 729 OFFCURVE"
);
},
{
closed = 1;
nodes = (
"406 680 CURVE SMOOTH",
"406 696 OFFCURVE",
"419 709 OFFCURVE",
"435 709 CURVE SMOOTH",
"451 709 OFFCURVE",
"464 696 OFFCURVE",
"464 680 CURVE SMOOTH",
"464 664 OFFCURVE",
"451 651 OFFCURVE",
"435 651 CURVE SMOOTH",
"419 651 OFFCURVE",
"406 664 OFFCURVE"
);
}
);
width = 497;
}
);
unicode = 0D8A;
},
{
glyphname = si_Ja;
layers = (
{
layerId = "AFC4C3A3-2D14-4C11-872C-451CCFDE8196";
name = Light;
paths = (
{
closed = 1;
nodes = (
"574 776 LINE",
"574 677.845 OFFCURVE",
"525.443 629.11 OFFCURVE",
"450.59 556 CURVE SMOOTH",
"421.907 578 LINE SMOOTH",
"491.541 644.76 OFFCURVE",
"538 687.527 OFFCURVE",
"538 776 CURVE"
);
}
);
width = 594;
}
);
unicode = 0DA2;
},
{
glyphname = si_Ja;
layers = (
{
layerId = "AFC4C3A3-2D14-4C11-872C-451CCFDE8196";
name = Light;
paths = (
{
closed = 1;
nodes = (
"412.864 575 LINE SMOOTH",
"484.497 647.766 OFFCURVE",
"533 705.781 OFFCURVE",
"533 776 CURVE",
"569 776 LINE",
"569 698.187 OFFCURVE",
"518.717 632.518 OFFCURVE",
"441.609 553 CURVE SMOOTH"
);
},
{
closed = 1;
nodes = (
"271.833 454 CURVE SMOOTH",
"271.833 466.186 OFFCURVE",
"272.838 477.513 OFFCURVE",
"274.728 488 CURVE SMOOTH",
"287.424 558.491 OFFCURVE",
"340.082 591 OFFCURVE",
"396.278 591 CURVE SMOOTH",
"452.984 591 OFFCURVE",
"512.587 553 OFFCURVE",
"512.587 474 CURVE SMOOTH",
"512.587 429.732 OFFCURVE",
"492.27 385.565 OFFCURVE",
"460.723 361 CURVE",
"434.723 382 LINE",
"461.723 402 OFFCURVE",
"479.111 437.959 OFFCURVE",
"479.111 474 CURVE SMOOTH",
"479.111 530.043 OFFCURVE",
"436.663 557 OFFCURVE",
"396.278 557 CURVE SMOOTH",
"347.916 557 OFFCURVE",
"305.834 524.746 OFFCURVE",
"305.834 454 CURVE SMOOTH",
"305.834 435 OFFCURVE",
"305.834 416 OFFCURVE",
"305.834 402 CURVE",
"288.834 369 LINE",
"279.117 397.663 OFFCURVE",
"271.833 421.384 OFFCURVE"
);
},
{
closed = 1;
nodes = (
"70 224.437 CURVE SMOOTH",
"70 107.242 OFFCURVE",
"156.024 30 OFFCURVE",
"288.834 30 CURVE SMOOTH",
"421.644 30 OFFCURVE",
"507.668 106.806 OFFCURVE",
"507.668 224 CURVE SMOOTH",
"507.668 299.407 OFFCURVE",
"469.191 365 OFFCURVE",
"385 365 CURVE SMOOTH",
"192.668 365 LINE SMOOTH",
"108.477 365 OFFCURVE",
"70 299.844 OFFCURVE"
);
},
{
closed = 1;
nodes = (
"33 224.437 CURVE SMOOTH",
"33 319.693 OFFCURVE",
"85.903 402 OFFCURVE",
"192.668 402 CURVE SMOOTH",
"385 402 LINE SMOOTH",
"491.765 402 OFFCURVE",
"544.668 319.257 OFFCURVE",
"544.668 224 CURVE SMOOTH",
"544.668 84.505 OFFCURVE",
"444.34 -7 OFFCURVE",
"288.834 -7 CURVE SMOOTH",
"133.328 -7 OFFCURVE",
"33 84.941 OFFCURVE"
);
},
{
closed = 1;
nodes = (
"65.08 474 CURVE SMOOTH",
"65.08 553 OFFCURVE",
"124.683 591 OFFCURVE",
"181.389 591 CURVE SMOOTH",
"237.585 591 OFFCURVE",
"290.247 558.491 OFFCURVE",
"302.94 488 CURVE SMOOTH",
"304.829 477.514 OFFCURVE",
"305.833 466.186 OFFCURVE",
"305.833 454 CURVE SMOOTH",
"305.833 421.384 OFFCURVE",
"298.549 397.663 OFFCURVE",
"288.833 369 CURVE",
"271.833 402 LINE",
"271.833 416 OFFCURVE",
"271.833 435 OFFCURVE",
"271.833 454 CURVE SMOOTH",
"271.833 524.746 OFFCURVE",
"229.751 557 OFFCURVE",
"181.389 557 CURVE SMOOTH",
"141.004 557 OFFCURVE",
"98.556 530.043 OFFCURVE",
"98.556 474 CURVE SMOOTH",
"98.556 437.959 OFFCURVE",
"115.944 402 OFFCURVE",
"142.944 382 CURVE",
"116.944 361 LINE",
"85.397 385.565 OFFCURVE",
"65.08 429.732 OFFCURVE"
);
}
);
width = 602;
}
);
unicode = 0DA2;
},
{
glyphname = si_Jha;
layers = (
{
layerId = "AFC4C3A3-2D14-4C11-872C-451CCFDE8196";
name = Light;
paths = (
{
closed = 1;
nodes = (
"481.371 214.001 CURVE SMOOTH",
"481.371 266.265 OFFCURVE",
"492.342 312.663 OFFCURVE",
"510.479 350.001 CURVE SMOOTH",
"539.599 409.949 OFFCURVE",
"587.191 446.539 OFFCURVE",
"637.509 446.539 CURVE SMOOTH",
"656.413 446.539 OFFCURVE",
"674.757 441.801 OFFCURVE",
"694.509 432.001 CURVE",
"678.509 400.001 LINE",
"664.301 407.104 OFFCURVE",
"651.106 410.539 OFFCURVE",
"637.509 410.539 CURVE SMOOTH",
"598.738 410.539 OFFCURVE",
"563.616 379.614 OFFCURVE",
"541.714 331.001 CURVE SMOOTH",
"527.1 298.564 OFFCURVE",
"518.371 258.254 OFFCURVE",
"518.371 214.001 CURVE SMOOTH",
"518.371 130.797 OFFCURVE",
"540.764 40 OFFCURVE",
"608.205 40 CURVE SMOOTH",
"699.371 40 OFFCURVE",
"705.963 148.887 OFFCURVE",
"709.205 224.501 CURVE",
"743.205 224.501 LINE",
"746.447 148.887 OFFCURVE",
"753.039 40 OFFCURVE",
"844.205 40 CURVE SMOOTH",
"936.938 40 OFFCURVE",
"943.762 164.001 OFFCURVE",
"943.762 293.001 CURVE SMOOTH",
"943.762 576.888 OFFCURVE",
"869.311 712 OFFCURVE",
"716.205 712 CURVE SMOOTH",
"645.333 712 OFFCURVE",
"576.856 665.928 OFFCURVE",
"553.532 605 CURVE",
"519.532 618 LINE",
"547.731 692.594 OFFCURVE",
"630.52 749 OFFCURVE",
"716.205 749 CURVE SMOOTH",
"894.205 749 OFFCURVE",
"980.762 601.956 OFFCURVE",
"980.762 293.001 CURVE SMOOTH",
"980.762 145.136 OFFCURVE",
"971.402 3 OFFCURVE",
"844.205 3 CURVE SMOOTH",
"749.039 3 OFFCURVE",
"730.039 85 OFFCURVE",
"726.205 115 CURVE",
"722.371 85 OFFCURVE",
"703.371 3 OFFCURVE",
"608.205 3 CURVE SMOOTH",
"510.21 3 OFFCURVE",
"481.371 115.607 OFFCURVE"
);
},
{
closed = 1;
nodes = (
"33 184 LINE",
"251 458 LINE SMOOTH",
"302.665 522.937 OFFCURVE",
"366.435 572 OFFCURVE",
"440 572 CURVE SMOOTH",
"526.536 572 OFFCURVE",
"600.354 525.958 OFFCURVE",
"635.96 420 CURVE",
"601.252 406 LINE",
"573.511 492.688 OFFCURVE",
"511.05 535 OFFCURVE",
"440 535 CURVE SMOOTH",
"375.756 535 OFFCURVE",
"323.03 489.902 OFFCURVE",
"278 433 CURVE SMOOTH",
"84.906 189 LINE",
"58 155 LINE"
);
},
{
closed = 1;
nodes = (
"74 105 CURVE SMOOTH",
"74 110.711 OFFCURVE",
"74.801 120.668 OFFCURVE",
"74.801 130.404 CURVE SMOOTH",
"74.801 144.302 OFFCURVE",
"73.167 157.747 OFFCURVE",
"65.236 157.747 CURVE SMOOTH",
"63.245 157.747 OFFCURVE",
"60.857 156.899 OFFCURVE",
"58 155 CURVE",
"65 184 LINE",
"82 190 LINE",
"83.64 190.461 OFFCURVE",
"85.109 190.739 OFFCURVE",
"87 190.739 CURVE SMOOTH",
"105.915 190.739 OFFCURVE",
"108.25 155.333 OFFCURVE",
"108.25 127.894 CURVE SMOOTH",
"108.25 118.896 OFFCURVE",
"108 110.755 OFFCURVE",
"108 105 CURVE SMOOTH",
"108 68.7 OFFCURVE",
"118.004 40 OFFCURVE",
"157.999 40 CURVE SMOOTH",
"209.757 40 OFFCURVE",
"223.231 100.28 OFFCURVE",
"223.878 159 CURVE SMOOTH",
"223.999 170 LINE",
"259.999 170 LINE",
"260.12 159 LINE SMOOTH",
"260.767 100.28 OFFCURVE",
"274.241 40 OFFCURVE",
"325.999 40 CURVE SMOOTH",
"402.447 40 OFFCURVE",
"404.999 157.619 OFFCURVE",
"404.999 196 CURVE SMOOTH",
"404.999 336.163 OFFCURVE",
"353.231 387.667 OFFCURVE",
"293.999 387.667 CURVE SMOOTH",
"254.999 387.667 OFFCURVE",
"235.999 375 OFFCURVE",
"218.999 360 CURVE",
"204.999 382 LINE",
"227.999 402 OFFCURVE",
"256.999 424.667 OFFCURVE",
"293.999 424.667 CURVE SMOOTH",
"372.999 424.667 OFFCURVE",
"442.042 363.221 OFFCURVE",
"442.042 196 CURVE SMOOTH",
"442.042 123.089 OFFCURVE",
"429.497 3 OFFCURVE",
"325.999 3 CURVE SMOOTH",
"267.938 3 OFFCURVE",
"242.999 48 OFFCURVE",
"241.999 79 CURVE",
"241.999 48 OFFCURVE",
"219.144 3 OFFCURVE",
"157.999 3 CURVE SMOOTH",
"90.808 3 OFFCURVE",
"74 48.037 OFFCURVE"
);
},
{
closed = 1;
nodes = (
"36.246 474 CURVE SMOOTH",
"36.246 553 OFFCURVE",
"95.849 591 OFFCURVE",
"152.555 591 CURVE SMOOTH",
"217.111 591 OFFCURVE",
"276.999 548.099 OFFCURVE",
"276.999 454 CURVE SMOOTH",
"242.999 402 LINE",
"242.999 416 OFFCURVE",
"242.999 435 OFFCURVE",
"242.999 454 CURVE SMOOTH",
"242.999 524.746 OFFCURVE",
"200.917 557 OFFCURVE",
"152.555 557 CURVE SMOOTH",
"112.169 557 OFFCURVE",
"69.722 530.043 OFFCURVE",
"69.722 474 CURVE SMOOTH",
"69.722 407.775 OFFCURVE",
"113 368 OFFCURVE",
"189.999 356 CURVE",
"181.999 325 LINE",
"95 338 OFFCURVE",
"36.246 390.378 OFFCURVE"
);
}
);
width = 1013;
}
);
unicode = 0DA3;
},
{
glyphname = si_Jnya;
layers = (
{
layerId = "AFC4C3A3-2D14-4C11-872C-451CCFDE8196";
name = Light;
paths = (
{
closed = 1;
nodes = (
"701.682 -57 CURVE SMOOTH",
"701.682 -24.172 OFFCURVE",
"709.426 1.597 OFFCURVE",
"734.353 34 CURVE",
"763.353 36 LINE",
"765.353 17 LINE",
"743.204 -8.839 OFFCURVE",
"738.682 -30.465 OFFCURVE",
"738.682 -57 CURVE SMOOTH",
"738.682 -111.587 OFFCURVE",
"779.148 -156.695 OFFCURVE",
"834.353 -156.695 CURVE SMOOTH",
"887.791 -156.695 OFFCURVE",
"921.771 -132.976 OFFCURVE",
"949.723 -83 CURVE",
"979 -105.303 LINE",
"943.954 -164.567 OFFCURVE",
"901.353 -192.695 OFFCURVE",
"834.353 -192.695 CURVE SMOOTH",
"754.938 -192.695 OFFCURVE",
"701.682 -129.528 OFFCURVE"
);
},
{
closed = 1;
nodes = (
"561.558 212.001 CURVE SMOOTH",
"561.558 312.683 OFFCURVE",
"634.558 411.001 OFFCURVE",
"758.503 411.001 CURVE SMOOTH",
"782.783 411.001 OFFCURVE",
"830.558 411.001 OFFCURVE",
"854.359 411.001 CURVE",
"856.359 422.001 OFFCURVE",
"859.558 438.289 OFFCURVE",
"859.558 454.001 CURVE SMOOTH",
"859.558 524.747 OFFCURVE",
"817.476 557 OFFCURVE",
"769.113 557 CURVE SMOOTH",
"728.729 557 OFFCURVE",
"686.28 530.044 OFFCURVE",
"686.28 474.001 CURVE SMOOTH",
"686.28 431.348 OFFCURVE",
"708.024 406.531 OFFCURVE",
"717.188 398.001 CURVE",
"693.28 376.001 LINE",
"681.28 387.001 OFFCURVE",
"652.805 419.001 OFFCURVE",
"652.805 474.001 CURVE SMOOTH",
"652.805 553 OFFCURVE",
"712.407 591 OFFCURVE",
"769.113 591 CURVE SMOOTH",
"833.67 591 OFFCURVE",
"893.558 548.1 OFFCURVE",
"893.558 454.001 CURVE SMOOTH",
"893.558 424.454 OFFCURVE",
"888.558 399.966 OFFCURVE",
"879.558 374.001 CURVE",
"879.558 374.001 OFFCURVE",
"801.558 374.001 OFFCURVE",
"758.503 374.001 CURVE SMOOTH",
"658.701 374.001 OFFCURVE",
"598.558 295.037 OFFCURVE",
"598.558 212.001 CURVE SMOOTH",
"598.558 101.982 OFFCURVE",
"679.894 41.843 OFFCURVE",
"762.4 41.843 CURVE SMOOTH",
"813.681 41.843 OFFCURVE",
"865.414 65.074 OFFCURVE",
"898.353 114 CURVE",
"927.63 91.697 LINE",
"887.411 31.547 OFFCURVE",
"824.245 3 OFFCURVE",
"761.63 3 CURVE SMOOTH",
"660.88 3 OFFCURVE",
"561.558 76.909 OFFCURVE"
);
},
{
closed = 1;
nodes = (
"373.558 276 LINE",
"418.123 295.978 OFFCURVE",
"424.389 338.024 OFFCURVE",
"424.389 369.95 CURVE SMOOTH",
"424.389 382.439 OFFCURVE",
"423.43 393.38 OFFCURVE",
"423.43 400.844 CURVE SMOOTH",
"423.43 512.851 OFFCURVE",
"488.85 581 OFFCURVE",
"564.558 581 CURVE SMOOTH",
"628.718 581 OFFCURVE",
"686.28 544 OFFCURVE",
"686.28 474.001 CURVE SMOOTH",
"652.805 474.001 LINE SMOOTH",
"652.805 515 OFFCURVE",
"611.731 544 OFFCURVE",
"564.558 544 CURVE SMOOTH",
"494.399 544 OFFCURVE",
"460.43 474.387 OFFCURVE",
"460.43 400.844 CURVE SMOOTH",
"460.43 392.56 OFFCURVE",
"461.015 382.064 OFFCURVE",
"461.015 370.388 CURVE SMOOTH",
"461.015 328.728 OFFCURVE",
"453.57 272.025 OFFCURVE",
"385.558 247 CURVE"
);
},
{
closed = 1;
nodes = (
"177.558 276 CURVE SMOOTH",
"177.558 524.011 OFFCURVE",
"259.889 581 OFFCURVE",
"345.93 581 CURVE SMOOTH",
"419.558 581 OFFCURVE",
"459.558 531 OFFCURVE",
"469.558 473 CURVE",
"433.558 461 LINE",
"430.558 501 OFFCURVE",
"398.558 544 OFFCURVE",
"345.93 544 CURVE SMOOTH",
"279.052 544 OFFCURVE",
"215.058 493.924 OFFCURVE",
"215.058 276 CURVE SMOOTH",
"215.058 83.28 OFFCURVE",
"288.856 40 OFFCURVE",
"362.558 40 CURVE SMOOTH",
"449.327 40 OFFCURVE",
"481.686 111.732 OFFCURVE",
"481.686 174 CURVE SMOOTH",
"481.686 224.729 OFFCURVE",
"457.733 268.541 OFFCURVE",
"420.558 272 CURVE",
"437.558 301 LINE",
"473.558 298.771 OFFCURVE",
"518.686 249.754 OFFCURVE",
"518.686 174 CURVE SMOOTH",
"518.686 94.539 OFFCURVE",
"476.277 3 OFFCURVE",
"362.558 3 CURVE SMOOTH",
"270.119 3 OFFCURVE",
"177.558 53.065 OFFCURVE"
);
},
{
closed = 1;
nodes = (
"32.866 283.999 CURVE SMOOTH",
"32.866 516.988 OFFCURVE",
"93.124 579 OFFCURVE",
"149.866 579 CURVE SMOOTH",
"210.872 579 OFFCURVE",
"240.033 534 OFFCURVE",
"240.033 474 CURVE",
"206.558 474 LINE",
"205.216 521.657 OFFCURVE",
"180.968 542 OFFCURVE",
"149.866 542 CURVE SMOOTH",
"100.899 542 OFFCURVE",
"69.866 447.085 OFFCURVE",
"69.866 283.999 CURVE SMOOTH",
"69.866 114.294 OFFCURVE",
"110.866 49.013 OFFCURVE",
"144.866 43 CURVE",
"144.866 6 LINE",
"83.547 14.377 OFFCURVE",
"32.866 88.239 OFFCURVE"
);
}
);
width = 949;
}
);
unicode = 0DA5;
},
{
glyphname = si_Ka;
layers = (
{
layerId = "AFC4C3A3-2D14-4C11-872C-451CCFDE8196";
name = Light;
paths = (
{
closed = 1;
nodes = (
"33 184 LINE",
"251 458 LINE SMOOTH",
"306.472 527.722 OFFCURVE",
"372.542 582 OFFCURVE",
"450 582 CURVE SMOOTH",
"559.394 582 OFFCURVE",
"655 496.28 OFFCURVE",
"655 263 CURVE SMOOTH",
"655 90.423 OFFCURVE",
"606.355 3 OFFCURVE",
"504 3 CURVE SMOOTH",
"434.81 3 OFFCURVE",
"399.422 40.728 OFFCURVE",
"390 86 CURVE",
"424 95 LINE",
"430.611 65 OFFCURVE",
"455.445 40 OFFCURVE",
"504 40 CURVE SMOOTH",
"567.107 40 OFFCURVE",
"618 98.99 OFFCURVE",
"618 263 CURVE SMOOTH",
"618 469.223 OFFCURVE",
"539.649 545 OFFCURVE",
"450 545 CURVE SMOOTH",
"381.79 545 OFFCURVE",
"326.785 494.647 OFFCURVE",
"278 433 CURVE SMOOTH",
"84.906 189 LINE",
"58 155 LINE"
);
},
{
closed = 1;
nodes = (
"74 105 CURVE SMOOTH",
"74 110.711 OFFCURVE",
"74.802 120.669 OFFCURVE",
"74.802 130.404 CURVE SMOOTH",
"74.802 144.302 OFFCURVE",
"73.168 157.747 OFFCURVE",
"65.237 157.747 CURVE SMOOTH",
"63.246 157.747 OFFCURVE",
"60.858 156.9 OFFCURVE",
"58 155 CURVE",
"65 184 LINE",
"82 190 LINE",
"83.641 190.461 OFFCURVE",
"85.109 190.739 OFFCURVE",
"87 190.739 CURVE SMOOTH",
"105.916 190.739 OFFCURVE",
"108.251 155.333 OFFCURVE",
"108.251 127.894 CURVE SMOOTH",
"108.251 118.896 OFFCURVE",
"108 110.755 OFFCURVE",
"108 105 CURVE SMOOTH",
"108 68.7 OFFCURVE",
"118.005 40 OFFCURVE",
"158 40 CURVE SMOOTH",
"209.758 40 OFFCURVE",
"223.23 100.28 OFFCURVE",
"223.879 159 CURVE SMOOTH",
"224 170 LINE",
"260 170 LINE",
"260.121 159 LINE SMOOTH",
"260.77 100.28 OFFCURVE",
"274.242 40 OFFCURVE",
"326 40 CURVE SMOOTH",
"402.448 40 OFFCURVE",
"405 157.619 OFFCURVE",
"405 196 CURVE SMOOTH",
"405 336.163 OFFCURVE",
"353.232 387.667 OFFCURVE",
"294 387.667 CURVE SMOOTH",
"255 387.667 OFFCURVE",
"236 375 OFFCURVE",
"219 360 CURVE",
"205 382 LINE",
"228 402 OFFCURVE",
"257 424.667 OFFCURVE",
"294 424.667 CURVE SMOOTH",
"373 424.667 OFFCURVE",
"442.043 363.221 OFFCURVE",
"442.043 196 CURVE SMOOTH",
"442.043 123.089 OFFCURVE",
"429.498 3 OFFCURVE",
"326 3 CURVE SMOOTH",
"267.939 3 OFFCURVE",
"243 48 OFFCURVE",
"242 79 CURVE",
"242 48 OFFCURVE",
"219.145 3 OFFCURVE",
"158 3 CURVE SMOOTH",
"90.809 3 OFFCURVE",
"74 48.037 OFFCURVE"
);
},
{
closed = 1;
nodes = (
"36.247 474 CURVE SMOOTH",
"36.247 553 OFFCURVE",
"95.85 591 OFFCURVE",
"152.556 591 CURVE SMOOTH",
"217.112 591 OFFCURVE",
"277 548.099 OFFCURVE",
"277 454 CURVE",
"243 402 LINE",
"243 416 OFFCURVE",
"243 435 OFFCURVE",
"243 454 CURVE SMOOTH",
"243 524.746 OFFCURVE",
"200.918 557 OFFCURVE",
"152.556 557 CURVE SMOOTH",
"112.17 557 OFFCURVE",
"69.723 530.043 OFFCURVE",
"69.723 474 CURVE SMOOTH",
"69.723 407.775 OFFCURVE",
"113 368 OFFCURVE",
"190 356 CURVE",
"182 325 LINE",
"95 338 OFFCURVE",
"36.247 390.378 OFFCURVE"
);
}
);
width = 688;
}
);
unicode = 0D9A;
},
{
glyphname = si_Kha;
layers = (
{
layerId = "AFC4C3A3-2D14-4C11-872C-451CCFDE8196";
name = Light;
paths = (
{
closed = 1;
nodes = (
"241 165 CURVE",
"269 181 LINE",
"286.529 157.5 OFFCURVE",
"294.724 126.22 OFFCURVE",
"306.587 99 CURVE SMOOTH",
"320.961 66.02 OFFCURVE",
"340.722 39 OFFCURVE",
"389 39 CURVE SMOOTH",
"447 39 OFFCURVE",
"485.619 145.855 OFFCURVE",
"485.619 293 CURVE SMOOTH",
"485.619 576.887 OFFCURVE",
"411.168 712 OFFCURVE",
"258.062 712 CURVE SMOOTH",
"187.19 712 OFFCURVE",
"118.714 665.927 OFFCURVE",
"95.39 605 CURVE",
"61.39 618 LINE",
"89.589 692.593 OFFCURVE",
"172.377 749 OFFCURVE",
"258.062 749 CURVE SMOOTH",
"436.062 749 OFFCURVE",
"522.619 601.955 OFFCURVE",
"522.619 293 CURVE SMOOTH",
"522.619 125 OFFCURVE",
"487 3 OFFCURVE",
"389 3 CURVE SMOOTH",
"319.669 3 OFFCURVE",
"293.229 42.716 OFFCURVE",
"276.731 84 CURVE SMOOTH",
"263.96 115.958 OFFCURVE",
"257.145 148.855 OFFCURVE"
);
},
{
closed = 1;
nodes = (
"33 220 CURVE SMOOTH",
"33 419.134 OFFCURVE",
"108.666 486 OFFCURVE",
"196.061 486 CURVE SMOOTH",
"294.921 486 OFFCURVE",
"331 437.557 OFFCURVE",
"331 344 CURVE SMOOTH",
"331 268 OFFCURVE",
"302.765 243.096 OFFCURVE",
"277.41 198 CURVE SMOOTH",
"258.294 164 OFFCURVE",
"255 135.525 OFFCURVE",
"255 79 CURVE SMOOTH",
"255 46 OFFCURVE",
"259.533 -11 OFFCURVE",
"272 -53 CURVE",
"235 -56 LINE",
"225 -12 OFFCURVE",
"219.114 46.505 OFFCURVE",
"219.114 79 CURVE SMOOTH",
"219.114 131.213 OFFCURVE",
"228.666 167.632 OFFCURVE",
"241.683 203 CURVE SMOOTH",
"260.496 254.12 OFFCURVE",
"295 280.68 OFFCURVE",
"295 344 CURVE SMOOTH",
"295 414.006 OFFCURVE",
"270.721 450 OFFCURVE",
"196.061 450 CURVE SMOOTH",
"128.497 450 OFFCURVE",
"70 392.184 OFFCURVE",
"70 220 CURVE SMOOTH",
"70 105.193 OFFCURVE",
"93.655 39 OFFCURVE",
"148 39 CURVE SMOOTH",
"199.447 39 OFFCURVE",
"225.371 96.368 OFFCURVE",
"233 148 CURVE",
"258 141 LINE",
"247.814 67.4 OFFCURVE",
"225.327 3 OFFCURVE",
"148 3 CURVE SMOOTH",
"67.877 3 OFFCURVE",
"33 82.359 OFFCURVE"
);
}
);
width = 555;
}
);
unicode = 0D9B;
},
{
glyphname = si_La;
layers = (
{
layerId = "AFC4C3A3-2D14-4C11-872C-451CCFDE8196";
name = Light;
paths = (
{
closed = 1;
nodes = (
"33 208 CURVE SMOOTH",
"33 411.566 OFFCURVE",
"105.934 591 OFFCURVE",
"298.279 591 CURVE SMOOTH",
"461.801 591 OFFCURVE",
"536.445 451.985 OFFCURVE",
"536.445 332 CURVE SMOOTH",
"536.445 201.864 OFFCURVE",
"483.449 100 OFFCURVE",
"368.445 100 CURVE SMOOTH",
"282.445 100 OFFCURVE",
"243.445 166.723 OFFCURVE",
"243.445 228 CURVE SMOOTH",
"243.445 272.068 OFFCURVE",
"265.116 313.815 OFFCURVE",
"308.319 335 CURVE",
"213.445 335.005 LINE",
"213.445 369.394 LINE",
"374.445 369.394 LINE",
"374.445 332.394 LINE",
"308.064 319.017 OFFCURVE",
"280.445 270.136 OFFCURVE",
"280.445 228 CURVE SMOOTH",
"280.445 177.3 OFFCURVE",
"321.273 137 OFFCURVE",
"368.445 137 CURVE SMOOTH",
"475.67 137 OFFCURVE",
"499.445 243.145 OFFCURVE",
"499.445 332 CURVE SMOOTH",
"499.445 455.418 OFFCURVE",
"413.704 554 OFFCURVE",
"298.279 554 CURVE SMOOTH",
"139.445 554 OFFCURVE",
"70 385 OFFCURVE",
"70 208 CURVE SMOOTH",
"70 13 OFFCURVE",
"149.478 -112 OFFCURVE",
"294.279 -112 CURVE SMOOTH",
"411.279 -112 OFFCURVE",
"473.954 -34.664 OFFCURVE",
"492.279 37 CURVE",
"527.279 31 LINE",
"505.715 -55.574 OFFCURVE",
"440.279 -149 OFFCURVE",
"294.279 -149 CURVE SMOOTH",
"117.453 -149 OFFCURVE",
"33 0.277 OFFCURVE"
);
}
);
width = 569;
}
);
unicode = 0DBD;
},
{
glyphname = si_Lla;
layers = (
{
layerId = "AFC4C3A3-2D14-4C11-872C-451CCFDE8196";
name = Light;
paths = (
{
closed = 1;
nodes = (
"33 133 CURVE SMOOTH",
"33 286 OFFCURVE",
"128.666 380.5 OFFCURVE",
"222.666 380.5 CURVE SMOOTH",
"466.666 380.5 LINE",
"466.666 343.5 LINE",
"222.666 343.5 LINE SMOOTH",
"141.822 343.5 OFFCURVE",
"70 262.359 OFFCURVE",
"70 133 CURVE SMOOTH",
"70 8.267 OFFCURVE",
"134.573 -114 OFFCURVE",
"274 -114 CURVE SMOOTH",
"391 -114 OFFCURVE",
"453.675 -36.182 OFFCURVE",
"472 35 CURVE",
"507 29 LINE",
"485.436 -57.573 OFFCURVE",
"420 -150.999 OFFCURVE",
"274 -150.999 CURVE SMOOTH",
"106.826 -150.999 OFFCURVE",
"33 -11.001 OFFCURVE"
);
},
{
closed = 1;
nodes = (
"131 469 CURVE SMOOTH",
"131 532.34 OFFCURVE",
"158.498 591 OFFCURVE",
"225.666 591 CURVE SMOOTH",
"278.736 591 OFFCURVE",
"301.331 564.188 OFFCURVE",
"310.666 526 CURVE",
"319.56 565 OFFCURVE",
"343.691 591 OFFCURVE",
"389.666 591 CURVE SMOOTH",
"452.228 591 OFFCURVE",
"479.916 530.35 OFFCURVE",
"479.916 449.472 CURVE SMOOTH",
"479.916 416.586 OFFCURVE",
"475.338 380.356 OFFCURVE",
"466.666 343.5 CURVE",
"446 354 LINE",
"437.596 380 LINE",
"442.211 403.732 OFFCURVE",
"445.352 430.404 OFFCURVE",
"445.352 455.601 CURVE SMOOTH",
"445.352 507.985 OFFCURVE",
"431.778 554 OFFCURVE",
"389.666 554 CURVE SMOOTH",
"344.908 554 OFFCURVE",
"332.963 509.398 OFFCURVE",
"329.797 470 CURVE SMOOTH",
"328.77 457.219 OFFCURVE",
"328.666 444.985 OFFCURVE",
"328.666 435 CURVE SMOOTH",
"328.666 354 LINE",
"292.666 354 LINE",
"292.666 435 LINE SMOOTH",
"292.666 446.313 OFFCURVE",
"291.988 458.241 OFFCURVE",
"290.409 470 CURVE SMOOTH",
"284.617 513.133 OFFCURVE",
"266.704 554 OFFCURVE",
"225.666 554 CURVE SMOOTH",
"189.779 554 OFFCURVE",
"168 517.132 OFFCURVE",
"168 469 CURVE SMOOTH",
"168 436.175 OFFCURVE",
"184.8 380 OFFCURVE",
"212 380 CURVE",
"224 365 LINE",
"213 347 LINE",
"198.795 347 OFFCURVE",
"186.412 351.432 OFFCURVE",
"175.87 359 CURVE SMOOTH",
"146.09 380.38 OFFCURVE",
"131 426.788 OFFCURVE"
);
},
{
closed = 1;
nodes = (
"157.018 286 CURVE SMOOTH",
"157.018 321.611 OFFCURVE",
"172.991 348.173 OFFCURVE",
"207.646 373 CURVE",
"223.312 343.5 LINE",
"205.221 343.5 OFFCURVE",
"194.015 313.825 OFFCURVE",
"194.015 286 CURVE SMOOTH",
"194.015 239.091 OFFCURVE",
"227.308 200 OFFCURVE",
"305.978 200 CURVE SMOOTH",
"376.246 200 OFFCURVE",
"410.978 229.836 OFFCURVE",
"410.978 269 CURVE",
"448 269 LINE",
"448 211.868 OFFCURVE",
"397.748 163 OFFCURVE",
"305.978 163 CURVE SMOOTH",
"201.312 163 OFFCURVE",
"157.018 219.978 OFFCURVE"
);
}
);
width = 540;
}
);
unicode = 0DC5;
},
{
glyphname = si_Ma;
layers = (
{
layerId = "AFC4C3A3-2D14-4C11-872C-451CCFDE8196";
name = Light;
paths = (
{
closed = 1;
nodes = (
"33 292 CURVE SMOOTH",
"33 460 OFFCURVE",
"81.889 518 OFFCURVE",
"145 518 CURVE SMOOTH",
"206.939 518 OFFCURVE",
"220.561 483.164 OFFCURVE",
"220.561 441.975 CURVE SMOOTH",
"220.561 409.639 OFFCURVE",
"212.166 373.388 OFFCURVE",
"212.166 347 CURVE SMOOTH",
"212.166 298.445 OFFCURVE",
"222.267 265 OFFCURVE",
"267 265 CURVE SMOOTH",
"314.166 265 OFFCURVE",
"319.166 329.423 OFFCURVE",
"319.166 386 CURVE SMOOTH",
"319.166 449.77 OFFCURVE",
"291.932 485.01 OFFCURVE",
"261.166 485.01 CURVE SMOOTH",
"239.791 485.01 OFFCURVE",
"225.166 477 OFFCURVE",
"216.166 462 CURVE",
"193.166 489 LINE",
"209.356 505 OFFCURVE",
"227.706 520.01 OFFCURVE",
"261.166 520.01 CURVE SMOOTH",
"312.137 520.01 OFFCURVE",
"354.166 477.856 OFFCURVE",
"354.166 386 CURVE SMOOTH",
"354.166 342.32 OFFCURVE",
"352.166 230 OFFCURVE",
"267 230 CURVE SMOOTH",
"192.799 230 OFFCURVE",
"177.166 286.072 OFFCURVE",
"177.166 347 CURVE SMOOTH",
"177.166 372.581 OFFCURVE",
"186.428 407.848 OFFCURVE",
"186.428 436.193 CURVE SMOOTH",
"186.428 463.25 OFFCURVE",
"177.989 484 OFFCURVE",
"145 484 CURVE SMOOTH",
"102 484 OFFCURVE",
"69 438 OFFCURVE",
"69 292 CURVE SMOOTH",
"69 201.06 OFFCURVE",
"101.331 40 OFFCURVE",
"264.834 40 CURVE SMOOTH",
"392.699 40 OFFCURVE",
"465.834 150.519 OFFCURVE",
"465.834 354 CURVE SMOOTH",
"465.834 634.015 OFFCURVE",
"375.057 712 OFFCURVE",
"263.834 712 CURVE SMOOTH",
"192.962 712 OFFCURVE",
"135.158 665.927 OFFCURVE",
"111.834 605 CURVE",
"77.834 618 LINE",
"115.834 716 OFFCURVE",
"203.802 749 OFFCURVE",
"263.834 749 CURVE SMOOTH",
"395.979 749 OFFCURVE",
"503.834 662.955 OFFCURVE",
"503.834 354 CURVE SMOOTH",
"503.834 126.541 OFFCURVE",
"416.873 3 OFFCURVE",
"264.834 3 CURVE SMOOTH",
"71.274 3 OFFCURVE",
"33 187.707 OFFCURVE"
);
}
);
width = 536;
}
);
unicode = 0DB8;
},
{
glyphname = si_Mba;
layers = (
{
layerId = "AFC4C3A3-2D14-4C11-872C-451CCFDE8196";
name = Light;
paths = (
{
closed = 1;
nodes = (
"33 250.999 CURVE SMOOTH",
"33 390.371 OFFCURVE",
"64.013 524 OFFCURVE",
"151.639 524 CURVE SMOOTH",
"217 524 OFFCURVE",
"241 474 OFFCURVE",
"241 426 CURVE",
"206 419 LINE",
"206 470.221 OFFCURVE",
"181.7 489 OFFCURVE",
"152 489 CURVE SMOOTH",
"92 489 OFFCURVE",
"70 368 OFFCURVE",
"70 250.999 CURVE SMOOTH",
"70 167.891 OFFCURVE",
"73.717 40 OFFCURVE",
"155.597 40 CURVE SMOOTH",
"183.475 40 OFFCURVE",
"203.763 62.186 OFFCURVE",
"203.763 90 CURVE SMOOTH",
"203.763 129 OFFCURVE",
"182.763 140 OFFCURVE",
"182.763 176 CURVE SMOOTH",
"182.763 230.03 OFFCURVE",
"221.272 244 OFFCURVE",
"273.597 244 CURVE SMOOTH",
"325.921 244 OFFCURVE",
"364.431 230.03 OFFCURVE",
"364.431 176 CURVE SMOOTH",
"364.431 140 OFFCURVE",
"343.431 129 OFFCURVE",
"343.431 90 CURVE SMOOTH",
"343.431 62.186 OFFCURVE",
"363.719 40 OFFCURVE",
"391.597 40 CURVE SMOOTH",
"484.33 40 OFFCURVE",
"491.153 164 OFFCURVE",
"491.153 293 CURVE SMOOTH",
"491.153 576.887 OFFCURVE",
"416.702 712 OFFCURVE",
"263.597 712 CURVE SMOOTH",
"192.725 712 OFFCURVE",
"124.248 665.927 OFFCURVE",
"100.924 605 CURVE",
"66.924 618 LINE",
"95.123 692.593 OFFCURVE",
"177.911 749 OFFCURVE",
"263.597 749 CURVE SMOOTH",
"441.597 749 OFFCURVE",
"528.153 601.955 OFFCURVE",
"528.153 293 CURVE SMOOTH",
"528.153 145.135 OFFCURVE",
"518.794 3 OFFCURVE",
"391.597 3 CURVE SMOOTH",
"342.304 3 OFFCURVE",
"306.431 41.603 OFFCURVE",
"306.431 90 CURVE SMOOTH",
"306.431 131 OFFCURVE",
"327.431 147 OFFCURVE",
"327.431 172 CURVE SMOOTH",
"327.431 200.921 OFFCURVE",
"302.521 207 OFFCURVE",
"273.597 207 CURVE SMOOTH",
"244.673 207 OFFCURVE",
"219.763 200.921 OFFCURVE",
"219.763 172 CURVE SMOOTH",
"219.763 147 OFFCURVE",
"240.763 131 OFFCURVE",
"240.763 90 CURVE SMOOTH",
"240.763 41.603 OFFCURVE",
"204.89 3 OFFCURVE",
"155.597 3 CURVE SMOOTH",
"41 3 OFFCURVE",
"33 153.317 OFFCURVE"
);
},
{
closed = 1;
nodes = (
"203 370 CURVE SMOOTH",
"203 385.759 OFFCURVE",
"206 397 OFFCURVE",
"206 419 CURVE",
"241 426 LINE",
"241 415.977 OFFCURVE",
"239 386.338 OFFCURVE",
"239 370 CURVE SMOOTH",
"239 346 OFFCURVE",
"245.226 317 OFFCURVE",
"282 317 CURVE SMOOTH",
"325.195 317 OFFCURVE",
"326 381.961 OFFCURVE",
"326 402 CURVE SMOOTH",
"326 422.039 OFFCURVE",
"325.195 487 OFFCURVE",
"282 487 CURVE SMOOTH",
"258.226 487 OFFCURVE",
"242 470 OFFCURVE",
"238 441 CURVE",
"207 444 LINE",
"212 486 OFFCURVE",
"234 523 OFFCURVE",
"282 523 CURVE SMOOTH",
"360.537 523 OFFCURVE",
"362 430.526 OFFCURVE",
"362 402 CURVE SMOOTH",
"362 373.474 OFFCURVE",
"360.537 281 OFFCURVE",
"282 281 CURVE SMOOTH",
"225.009 281 OFFCURVE",
"203 322.966 OFFCURVE"
);
}
);
width = 561;
}
);
unicode = 0DB9;
},
{
glyphname = si_Na;
layers = (
{
layerId = "AFC4C3A3-2D14-4C11-872C-451CCFDE8196";
name = Light;
paths = (
{
closed = 1;
nodes = (
"40 250 CURVE",
"71 258 LINE",
"74 237 OFFCURVE",
"100 233.066 OFFCURVE",
"121 233.066 CURVE SMOOTH",
"202 233.066 OFFCURVE",
"212.521 352.542 OFFCURVE",
"259.376 448 CURVE SMOOTH",
"294.39 519.333 OFFCURVE",
"341.026 582 OFFCURVE",
"440 582 CURVE SMOOTH",
"549.394 582 OFFCURVE",
"645 496.279 OFFCURVE",
"645 262.999 CURVE SMOOTH",
"645 90.423 OFFCURVE",
"588.302 3 OFFCURVE",
"469 3 CURVE SMOOTH",
"402 3 OFFCURVE",
"355.248 40.728 OFFCURVE",
"345 86 CURVE",
"379 95 LINE",
"386.438 65 OFFCURVE",
"421 40 OFFCURVE",
"469 40 CURVE SMOOTH",
"545.947 40 OFFCURVE",
"608 98.99 OFFCURVE",
"608 262.999 CURVE SMOOTH",
"608 469.222 OFFCURVE",
"529.649 545 OFFCURVE",
"440 545 CURVE SMOOTH",
"358.301 545 OFFCURVE",
"322.919 494.012 OFFCURVE",
"293.376 434 CURVE SMOOTH",
"244.376 334.466 OFFCURVE",
"234.57 196.066 OFFCURVE",
"121 196.066 CURVE SMOOTH",
"93.036 196.066 OFFCURVE",
"51.571 205 OFFCURVE"
);
},
{
closed = 1;
nodes = (
"33 218.019 CURVE SMOOTH",
"33 235.924 OFFCURVE",
"34.476 254.048 OFFCURVE",
"37.376 272 CURVE",
"74.376 272 LINE",
"72.069 256.518 OFFCURVE",
"70.895 240.886 OFFCURVE",
"70.895 225.443 CURVE SMOOTH",
"70.895 129.058 OFFCURVE",
"116.65 40 OFFCURVE",
"218.376 40 CURVE SMOOTH",
"304.872 40 OFFCURVE",
"367.376 89.306 OFFCURVE",
"367.376 195.999 CURVE SMOOTH",
"367.376 310.944 OFFCURVE",
"330.545 352.658 OFFCURVE",
"288.234 352.658 CURVE SMOOTH",
"276.028 352.658 OFFCURVE",
"263.365 349.187 OFFCURVE",
"251 343 CURVE",
"233 370 LINE",
"253.131 380.394 OFFCURVE",
"275.517 387.294 OFFCURVE",
"297.292 387.294 CURVE SMOOTH",
"352.845 387.294 OFFCURVE",
"404.419 342.384 OFFCURVE",
"404.419 195.999 CURVE SMOOTH",
"404.419 64 OFFCURVE",
"326.376 3 OFFCURVE",
"218.376 3 CURVE SMOOTH",
"90.514 3 OFFCURVE",
"33 106.261 OFFCURVE"
);
},
{
closed = 1;
nodes = (
"48.444 473.563 CURVE SMOOTH",
"48.444 552.563 OFFCURVE",
"108.047 590.563 OFFCURVE",
"164.753 590.563 CURVE SMOOTH",
"229.31 590.563 OFFCURVE",
"289.197 547.662 OFFCURVE",
"289.197 453.563 CURVE",
"255.197 401.563 LINE",
"255.197 415.563 OFFCURVE",
"255.197 434.563 OFFCURVE",
"255.197 453.563 CURVE SMOOTH",
"255.197 524.31 OFFCURVE",
"213.115 556.563 OFFCURVE",
"164.753 556.563 CURVE SMOOTH",
"124.367 556.563 OFFCURVE",
"81.92 529.606 OFFCURVE",
"81.92 473.563 CURVE SMOOTH",
"81.92 412.751 OFFCURVE",
"118.413 374.241 OFFCURVE",
"184 359.062 CURVE SMOOTH",
"197.802 355.867 OFFCURVE",
"210.115 354.418 OFFCURVE",
"228 354.079 CURVE",
"226 323.458 LINE",
"209.269 323.458 OFFCURVE",
"194.879 323.869 OFFCURVE",
"178 327.509 CURVE SMOOTH",
"99.984 344.33 OFFCURVE",
"48.444 395.242 OFFCURVE"
);
}
);
width = 669;
}
);
unicode = 0DB1;
},
{
glyphname = si_Nda;
layers = (
{
layerId = "AFC4C3A3-2D14-4C11-872C-451CCFDE8196";
name = Light;
paths = (
{
closed = 1;
nodes = (
"289.384 -57 CURVE SMOOTH",
"289.384 -24.172 OFFCURVE",
"297.128 1.597 OFFCURVE",
"322.055 34 CURVE",
"351.055 36 LINE",
"353.055 17 LINE",
"330.906 -8.839 OFFCURVE",
"326.384 -30.465 OFFCURVE",
"326.384 -57 CURVE SMOOTH",
"326.384 -111.587 OFFCURVE",
"366.851 -156.695 OFFCURVE",
"422.055 -156.695 CURVE SMOOTH",
"475.493 -156.695 OFFCURVE",
"509.473 -132.976 OFFCURVE",
"537.425 -83 CURVE",
"566.702 -105.303 LINE",
"531.656 -164.567 OFFCURVE",
"489.055 -192.695 OFFCURVE",
"422.055 -192.695 CURVE SMOOTH",
"342.64 -192.695 OFFCURVE",
"289.384 -129.528 OFFCURVE"
);
},
{
closed = 1;
nodes = (
"149.26 212.001 CURVE SMOOTH",
"149.26 312.683 OFFCURVE",
"222.26 411.001 OFFCURVE",
"346.205 411.001 CURVE SMOOTH",
"370.485 411.001 OFFCURVE",
"418.26 411.001 OFFCURVE",
"442.062 411.001 CURVE",
"444.062 422.001 OFFCURVE",
"447.26 438.289 OFFCURVE",
"447.26 454.001 CURVE SMOOTH",
"447.26 524.747 OFFCURVE",
"405.178 557 OFFCURVE",
"356.815 557 CURVE SMOOTH",
"316.431 557 OFFCURVE",
"273.982 530.044 OFFCURVE",
"273.982 474.001 CURVE SMOOTH",
"273.982 431.348 OFFCURVE",
"295.727 406.531 OFFCURVE",
"304.89 398.001 CURVE",
"280.982 376.001 LINE",
"268.982 387.001 OFFCURVE",
"240.507 419.001 OFFCURVE",
"240.507 474.001 CURVE SMOOTH",
"240.507 553 OFFCURVE",
"300.109 591 OFFCURVE",
"356.815 591 CURVE SMOOTH",
"421.372 591 OFFCURVE",
"481.26 548.1 OFFCURVE",
"481.26 454.001 CURVE SMOOTH",
"481.26 424.454 OFFCURVE",
"476.26 399.966 OFFCURVE",
"467.26 374.001 CURVE",
"467.26 374.001 OFFCURVE",
"389.26 374.001 OFFCURVE",
"346.205 374.001 CURVE SMOOTH",
"246.403 374.001 OFFCURVE",
"186.26 295.037 OFFCURVE",
"186.26 212.001 CURVE SMOOTH",
"186.26 101.982 OFFCURVE",
"267.596 41.843 OFFCURVE",
"350.103 41.843 CURVE SMOOTH",
"401.383 41.843 OFFCURVE",
"453.116 65.075 OFFCURVE",
"486.055 114 CURVE",
"515.332 91.697 LINE",
"475.113 31.547 OFFCURVE",
"411.947 3 OFFCURVE",
"349.332 3 CURVE SMOOTH",
"248.582 3 OFFCURVE",
"149.26 76.909 OFFCURVE"
);
},
{
closed = 1;
nodes = (
"33 284 CURVE SMOOTH",
"33 516.989 OFFCURVE",
"104.588 579 OFFCURVE",
"172 579 CURVE SMOOTH",
"241 579 OFFCURVE",
"273.982 534 OFFCURVE",
"273.982 474.001 CURVE",
"240.507 474.001 LINE",
"238.886 521.658 OFFCURVE",
"209.584 542 OFFCURVE",
"172 542 CURVE SMOOTH",
"109.567 542 OFFCURVE",
"70 447.086 OFFCURVE",
"70 284 CURVE SMOOTH",
"70 114.295 OFFCURVE",
"111 49.014 OFFCURVE",
"145 43 CURVE",
"145 6 LINE",
"83.681 14.378 OFFCURVE",
"33 88.24 OFFCURVE"
);
}
);
width = 599;
}
);
unicode = 0DB3;
},
{
glyphname = si_Ndja;
layers = (
{
layerId = "AFC4C3A3-2D14-4C11-872C-451CCFDE8196";
name = Light;
paths = (
{
closed = 1;
nodes = (
"554.476 575 LINE SMOOTH",
"626.108 647.766 OFFCURVE",
"674.611 705.781 OFFCURVE",
"674.611 776 CURVE",
"710.611 776 LINE",
"710.611 698.187 OFFCURVE",
"660.328 632.518 OFFCURVE",
"583.221 553 CURVE SMOOTH"
);
},
{
closed = 1;
nodes = (
"413.444 454 CURVE SMOOTH",
"413.444 466.186 OFFCURVE",
"414.45 477.513 OFFCURVE",
"416.339 488 CURVE SMOOTH",
"429.035 558.491 OFFCURVE",
"481.693 591 OFFCURVE",
"537.89 591 CURVE SMOOTH",
"594.596 591 OFFCURVE",
"654.198 553 OFFCURVE",
"654.198 474 CURVE SMOOTH",
"654.198 429.732 OFFCURVE",
"633.881 385.565 OFFCURVE",
"602.334 361 CURVE",
"576.334 382 LINE",
"603.334 402 OFFCURVE",
"620.723 437.959 OFFCURVE",
"620.723 474 CURVE SMOOTH",
"620.723 530.043 OFFCURVE",
"578.274 557 OFFCURVE",
"537.89 557 CURVE SMOOTH",
"489.527 557 OFFCURVE",
"447.445 524.746 OFFCURVE",
"447.445 454 CURVE SMOOTH",
"447.445 435 OFFCURVE",
"447.445 416 OFFCURVE",
"447.445 402 CURVE",
"430.445 369 LINE",
"420.729 397.663 OFFCURVE",
"413.444 421.384 OFFCURVE"
);
},
{
closed = 1;
nodes = (
"210.685 224.437 CURVE SMOOTH",
"210.685 107.242 OFFCURVE",
"296.709 30 OFFCURVE",
"429.519 30 CURVE SMOOTH",
"562.328 30 OFFCURVE",
"648.353 106.806 OFFCURVE",
"648.353 224 CURVE SMOOTH",
"648.353 299.407 OFFCURVE",
"609.876 365 OFFCURVE",
"525.685 365 CURVE SMOOTH",
"333.353 365 LINE SMOOTH",
"249.161 365 OFFCURVE",
"210.685 299.844 OFFCURVE"
);
},
{
closed = 1;
nodes = (
"174.611 224.437 CURVE SMOOTH",
"174.611 319.693 OFFCURVE",
"227.515 402 OFFCURVE",
"334.279 402 CURVE SMOOTH",
"526.611 402 LINE SMOOTH",
"633.376 402 OFFCURVE",
"686.279 319.257 OFFCURVE",
"686.279 224 CURVE SMOOTH",
"686.279 84.505 OFFCURVE",
"585.951 -7 OFFCURVE",
"430.445 -7 CURVE SMOOTH",
"274.939 -7 OFFCURVE",
"174.611 84.941 OFFCURVE"
);
},
{
closed = 1;
nodes = (
"206.691 474 CURVE SMOOTH",
"206.691 553 OFFCURVE",
"266.294 591 OFFCURVE",
"323 591 CURVE SMOOTH",
"379.196 591 OFFCURVE",
"431.855 558.491 OFFCURVE",
"444.552 488 CURVE SMOOTH",
"446.44 477.514 OFFCURVE",
"447.444 466.186 OFFCURVE",
"447.444 454 CURVE SMOOTH",
"447.444 421.384 OFFCURVE",
"440.16 397.663 OFFCURVE",
"430.444 369 CURVE",
"413.444 402 LINE",
"413.444 416 OFFCURVE",
"413.444 435 OFFCURVE",
"413.444 454 CURVE SMOOTH",
"413.444 524.746 OFFCURVE",
"371.362 557 OFFCURVE",
"323 557 CURVE SMOOTH",
"282.615 557 OFFCURVE",
"240.167 530.043 OFFCURVE",
"240.167 474 CURVE SMOOTH",
"240.167 437.959 OFFCURVE",
"257.556 402 OFFCURVE",
"284.556 382 CURVE",
"258.556 361 LINE",
"227.009 385.565 OFFCURVE",
"206.691 429.732 OFFCURVE"
);
},
{
closed = 1;
nodes = (
"33 283.999 CURVE SMOOTH",
"33 516.988 OFFCURVE",
"93.258 579 OFFCURVE",
"150 579 CURVE SMOOTH",
"211.006 579 OFFCURVE",
"240.167 534 OFFCURVE",
"240.167 474 CURVE",
"206.691 474 LINE",
"205.35 521.657 OFFCURVE",
"181.102 542 OFFCURVE",
"150 542 CURVE SMOOTH",
"101.033 542 OFFCURVE",
"70 447.085 OFFCURVE",
"70 283.999 CURVE SMOOTH",
"70 114.294 OFFCURVE",
"111 49.013 OFFCURVE",
"145 43 CURVE",
"145 6 LINE",
"83.681 14.377 OFFCURVE",
"33 88.239 OFFCURVE"
);
}
);
width = 743;
}
);
unicode = 0DA6;
},
{
glyphname = si_Nga;
layers = (
{
layerId = "AFC4C3A3-2D14-4C11-872C-451CCFDE8196";
name = Light;
paths = (
{
closed = 1;
nodes = (
"33.243 179.103 CURVE SMOOTH",
"33.243 282.632 OFFCURVE",
"83.611 324.996 OFFCURVE",
"126.574 342 CURVE",
"130.591 340.617 OFFCURVE",
"134.587 340.031 OFFCURVE",
"138.393 340.031 CURVE SMOOTH",
"151.095 340.031 OFFCURVE",
"161.692 346.557 OFFCURVE",
"164 351.754 CURVE",
"171.102 352.714 OFFCURVE",
"176.928 353 OFFCURVE",
"180.853 353 CURVE SMOOTH",
"232.835 353 OFFCURVE",
"229.777 346 OFFCURVE",
"268 346 CURVE SMOOTH",
"295.244 346 OFFCURVE",
"320 365.765 OFFCURVE",
"320 402 CURVE SMOOTH",
"320 459.88 OFFCURVE",
"275 477 OFFCURVE",
"202 477 CURVE SMOOTH",
"191.967 477 OFFCURVE",
"179.803 476.48 OFFCURVE",
"167 474.978 CURVE",
"153.799 473.429 OFFCURVE",
"139.92 470.836 OFFCURVE",
"127 466.691 CURVE SMOOTH",
"97.499 457.227 OFFCURVE",
"73 439.675 OFFCURVE",
"73 408 CURVE",
"45 441 LINE",
"70 500 OFFCURVE",
"128.957 510.027 OFFCURVE",
"202 510.027 CURVE SMOOTH",
"290.58 510.027 OFFCURVE",
"357 478.035 OFFCURVE",
"357 402 CURVE SMOOTH",
"357 331.448 OFFCURVE",
"306.533 309 OFFCURVE",
"268 309 CURVE SMOOTH",
"223.662 309 OFFCURVE",
"222.133 316 OFFCURVE",
"180.853 316 CURVE SMOOTH",
"125.89 316 OFFCURVE",
"70.243 280.286 OFFCURVE",
"70.243 180.103 CURVE SMOOTH",
"70.243 102.39 OFFCURVE",
"94.643 40 OFFCURVE",
"156.687 40 CURVE SMOOTH",
"247.853 40 OFFCURVE",
"254.444 148.886 OFFCURVE",
"257.687 224.5 CURVE",
"291.687 224.5 LINE",
"294.929 148.886 OFFCURVE",
"301.521 40 OFFCURVE",
"392.687 40 CURVE SMOOTH",
"485.42 40 OFFCURVE",
"492.243 164 OFFCURVE",
"492.243 293 CURVE SMOOTH",
"492.243 576.887 OFFCURVE",
"417.792 712 OFFCURVE",
"264.687 712 CURVE SMOOTH",
"193.814 712 OFFCURVE",
"125.338 665.927 OFFCURVE",
"102.014 605 CURVE",
"68.014 618 LINE",
"96.213 692.593 OFFCURVE",
"179.001 749 OFFCURVE",
"264.687 749 CURVE SMOOTH",
"442.687 749 OFFCURVE",
"529.243 601.955 OFFCURVE",
"529.243 293 CURVE SMOOTH",
"529.243 145.135 OFFCURVE",
"519.884 3 OFFCURVE",
"392.687 3 CURVE SMOOTH",
"297.521 3 OFFCURVE",
"278.521 85 OFFCURVE",
"274.687 115 CURVE",
"270.853 85 OFFCURVE",
"251.853 3 OFFCURVE",
"156.687 3 CURVE SMOOTH",
"68.087 3 OFFCURVE",
"33.243 81.421 OFFCURVE"
);
},
{
closed = 1;
nodes = (
"75.416 404 CURVE SMOOTH",
"75.416 373.042 OFFCURVE",
"100.135 347.438 OFFCURVE",
"131.416 347.438 CURVE SMOOTH",
"162.676 347.438 OFFCURVE",
"187.416 373.036 OFFCURVE",
"187.416 404 CURVE SMOOTH",
"187.416 434.957 OFFCURVE",
"162.698 460.562 OFFCURVE",
"131.416 460.562 CURVE SMOOTH",
"100.155 460.562 OFFCURVE",
"75.416 434.963 OFFCURVE"
);
},
{
closed = 1;
nodes = (
"38.85 404.021 CURVE SMOOTH",
"38.85 459.098 OFFCURVE",
"72.98 494 OFFCURVE",
"132 494 CURVE SMOOTH",
"187.942 494 OFFCURVE",
"223.148 454.464 OFFCURVE",
"223.148 404.021 CURVE SMOOTH",
"223.148 352.911 OFFCURVE",
"182.106 311.87 OFFCURVE",
"131 311.87 CURVE SMOOTH",
"79.891 311.87 OFFCURVE",
"38.85 352.911 OFFCURVE"
);
}
);
width = 608;
}
);
unicode = 0D9E;
},
{
glyphname = si_Nna;
layers = (
{
layerId = "AFC4C3A3-2D14-4C11-872C-451CCFDE8196";
name = Light;
paths = (
{
closed = 1;
nodes = (
"444 274 LINE",
"444 274 OFFCURVE",
"443.853 310.293 OFFCURVE",
"443.853 327.378 CURVE SMOOTH",
"443.853 436.291 OFFCURVE",
"449.83 514 OFFCURVE",
"538 514 CURVE SMOOTH",
"586 514 OFFCURVE",
"615.769 473.143 OFFCURVE",
"619.321 437 CURVE",
"621.439 474 OFFCURVE",
"652.546 514 OFFCURVE",
"706.364 514 CURVE SMOOTH",
"797 514 OFFCURVE",
"819.705 400.873 OFFCURVE",
"819.705 274 CURVE SMOOTH",
"819.705 149.9 OFFCURVE",
"815.41 3 OFFCURVE",
"652 3 CURVE SMOOTH",
"479.532 3 OFFCURVE",
"517.727 142.295 OFFCURVE",
"460.099 142.295 CURVE SMOOTH",
"454.643 142.295 OFFCURVE",
"448.074 140.951 OFFCURVE",
"441.099 138 CURVE",
"429.099 168 LINE",
"442.381 174.769 OFFCURVE",
"453.917 177.721 OFFCURVE",
"464.172 177.721 CURVE SMOOTH",
"557.529 177.721 OFFCURVE",
"510.536 40 OFFCURVE",
"652 40 CURVE SMOOTH",
"779.357 40 OFFCURVE",
"782.705 166.844 OFFCURVE",
"782.705 274 CURVE SMOOTH",
"782.705 334.257 OFFCURVE",
"781 477 OFFCURVE",
"706.364 477 CURVE SMOOTH",
"638.702 477 OFFCURVE",
"637.821 377.301 OFFCURVE",
"637.821 330 CURVE SMOOTH",
"637.821 260.5 LINE",
"600.821 260.5 LINE",
"600.821 330 LINE SMOOTH",
"600.821 377.3 OFFCURVE",
"600.014 477 OFFCURVE",
"538 477 CURVE SMOOTH",
"486.696 477 OFFCURVE",
"479.111 423.284 OFFCURVE",
"479.111 367.797 CURVE SMOOTH",
"479.111 344.503 OFFCURVE",
"480.448 320.896 OFFCURVE",
"480.448 300.822 CURVE SMOOTH",
"480.448 290.422 OFFCURVE",
"480.089 280.97 OFFCURVE",
"479 273 CURVE"
);
},
{
closed = 1;
nodes = (
"324.894 573 LINE",
"397.605 646.705 OFFCURVE",
"447 705.139 OFFCURVE",
"447 776 CURVE",
"483 776 LINE",
"483 695.915 OFFCURVE",
"429.738 628.694 OFFCURVE",
"348.789 546 CURVE"
);
},
{
closed = 1;
nodes = (
"59.099 32 LINE",
"77.246 151.848 OFFCURVE",
"96.099 176 OFFCURVE",
"157.099 206 CURVE",
"176.099 182 LINE",
"124.099 160 OFFCURVE",
"105.843 129.552 OFFCURVE",
"95.099 25 CURVE"
);
},
{
closed = 1;
nodes = (
"33 375 CURVE SMOOTH",
"33 476.045 OFFCURVE",
"101.125 591 OFFCURVE",
"251 591 CURVE SMOOTH",
"372.7 591 OFFCURVE",
"480 508.714 OFFCURVE",
"480 299 CURVE SMOOTH",
"480 121.303 OFFCURVE",
"396.099 30.098 OFFCURVE",
"265.099 30.098 CURVE SMOOTH",
"217.093 30.098 OFFCURVE",
"176.462 46.855 OFFCURVE",
"143.468 46.855 CURVE SMOOTH",
"124.914 46.855 OFFCURVE",
"108.775 41.557 OFFCURVE",
"95.099 25 CURVE",
"68.099 50 LINE",
"76.621 60.267 OFFCURVE",
"86.004 67.642 OFFCURVE",
"96 72.794 CURVE SMOOTH",
"110.967 80.509 OFFCURVE",
"127.31 83.241 OFFCURVE",
"144.198 83.241 CURVE SMOOTH",
"185.245 83.241 OFFCURVE",
"229.517 67.098 OFFCURVE",
"265.099 67.098 CURVE SMOOTH",
"373.544 67.098 OFFCURVE",
"443 145.753 OFFCURVE",
"443 299 CURVE SMOOTH",
"443 482.141 OFFCURVE",
"353.037 554 OFFCURVE",
"251 554 CURVE SMOOTH",
"133.621 554 OFFCURVE",
"67 467.325 OFFCURVE",
"67 375 CURVE SMOOTH",
"67 347.756 OFFCURVE",
"71.884 323.145 OFFCURVE",
"78.003 303 CURVE",
"88.265 269.219 OFFCURVE",
"102 248 OFFCURVE",
"102 248 CURVE",
"80 223 LINE",
"49 260 OFFCURVE",
"33 307 OFFCURVE"
);
},
{
closed = 1;
nodes = (
"88.099 299.957 CURVE SMOOTH",
"88.099 251.448 OFFCURVE",
"127.188 212.307 OFFCURVE",
"175.749 212.307 CURVE SMOOTH",
"224.254 212.307 OFFCURVE",
"263.401 251.394 OFFCURVE",
"263.401 299.957 CURVE SMOOTH",
"263.401 348.466 OFFCURVE",
"224.311 387.611 OFFCURVE",
"175.749 387.611 CURVE SMOOTH",
"127.24 387.611 OFFCURVE",
"88.099 348.518 OFFCURVE"
);
},
{
closed = 1;
nodes = (
"56.856 275.716 CURVE SMOOTH",
"56.856 295.965 OFFCURVE",
"59 316 OFFCURVE",
"62.307 335 CURVE",
"75.302 386.025 OFFCURVE",
"116.889 423.869 OFFCURVE",
"176 423.869 CURVE SMOOTH",
"202.995 423.869 OFFCURVE",
"227.884 414.98 OFFCURVE",
"248.058 400 CURVE SMOOTH",
"278.496 377.397 OFFCURVE",
"298.198 340.928 OFFCURVE",
"298.198 300.198 CURVE SMOOTH",
"298.198 232.474 OFFCURVE",
"243.725 178 OFFCURVE",
"176 178 CURVE SMOOTH",
"122.373 178 OFFCURVE",
"76.132 212.156 OFFCURVE",
"59.203 260 CURVE SMOOTH",
"57.394 265.114 OFFCURVE",
"56.856 270.353 OFFCURVE"
);
}
);
width = 852;
}
);
unicode = 0DAB;
},
{
glyphname = si_Nndda;
layers = (
{
layerId = "AFC4C3A3-2D14-4C11-872C-451CCFDE8196";
name = Light;
paths = (
{
closed = 1;
nodes = (
"153.928 179.103 CURVE SMOOTH",
"153.928 248 OFFCURVE",
"173.906 327 OFFCURVE",
"207.906 354 CURVE",
"153.685 354 LINE",
"153.685 389 LINE",
"430.968 389 LINE",
"438.691 354 LINE",
"301.756 354 LINE SMOOTH",
"203.98 354 OFFCURVE",
"190.928 236.715 OFFCURVE",
"190.928 179.103 CURVE SMOOTH",
"190.928 101.944 OFFCURVE",
"215.327 40 OFFCURVE",
"277.371 40 CURVE SMOOTH",
"368.537 40 OFFCURVE",
"375.129 148.886 OFFCURVE",
"378.371 224.5 CURVE",
"412.371 224.5 LINE",
"415.613 148.886 OFFCURVE",
"422.205 40 OFFCURVE",
"513.371 40 CURVE SMOOTH",
"606.104 40 OFFCURVE",
"612.928 164 OFFCURVE",
"612.928 293 CURVE SMOOTH",
"612.928 576.887 OFFCURVE",
"538.477 712 OFFCURVE",
"385.371 712 CURVE SMOOTH",
"314.499 712 OFFCURVE",
"246.022 665.927 OFFCURVE",
"222.698 605 CURVE",
"188.698 618 LINE",
"216.897 692.593 OFFCURVE",
"299.686 749 OFFCURVE",
"385.371 749 CURVE SMOOTH",
"563.371 749 OFFCURVE",
"649.928 601.955 OFFCURVE",
"649.928 293 CURVE SMOOTH",
"649.928 145.135 OFFCURVE",
"640.568 3 OFFCURVE",
"513.371 3 CURVE SMOOTH",
"418.205 3 OFFCURVE",
"399.205 85 OFFCURVE",
"395.371 115 CURVE",
"391.537 85 OFFCURVE",
"372.537 3 OFFCURVE",
"277.371 3 CURVE SMOOTH",
"188.771 3 OFFCURVE",
"153.928 81.421 OFFCURVE"
);
},
{
closed = 1;
nodes = (
"206.691 420 CURVE SMOOTH",
"206.691 488 OFFCURVE",
"258.035 524 OFFCURVE",
"316.691 524 CURVE SMOOTH",
"381.248 524 OFFCURVE",
"441.136 481.099 OFFCURVE",
"441.136 387 CURVE SMOOTH",
"441.136 375.04 OFFCURVE",
"440.25 364.262 OFFCURVE",
"438.691 354 CURVE",
"407.312 379 LINE",
"407.219 381.638 OFFCURVE",
"407.136 384.229 OFFCURVE",
"407.136 387 CURVE SMOOTH",
"407.136 457.746 OFFCURVE",
"365.054 490 OFFCURVE",
"316.691 490 CURVE SMOOTH",
"274.734 490 OFFCURVE",
"240.167 467 OFFCURVE",
"240.167 420 CURVE SMOOTH",
"240.167 395.6 OFFCURVE",
"249.691 376 OFFCURVE",
"262.691 364 CURVE SMOOTH",
"238.51 344 LINE SMOOTH",
"222.691 358 OFFCURVE",
"206.691 388.023 OFFCURVE"
);
},
{
closed = 1;
nodes = (
"33 283.999 CURVE SMOOTH",
"33 474.34 OFFCURVE",
"93.258 525 OFFCURVE",
"150 525 CURVE SMOOTH",
"211.006 525 OFFCURVE",
"240.167 479.999 OFFCURVE",
"240.167 420 CURVE",
"206.691 420 LINE",
"205.35 467.657 OFFCURVE",
"181.102 487.999 OFFCURVE",
"150 487.999 CURVE SMOOTH",
"101.033 487.999 OFFCURVE",
"70 412.951 OFFCURVE",
"70 283.999 CURVE SMOOTH",
"70 114.294 OFFCURVE",
"111 49.013 OFFCURVE",
"145 43 CURVE",
"145 6 LINE",
"83.681 14.377 OFFCURVE",
"33 88.239 OFFCURVE"
);
}
);
width = 682;
}
);
unicode = 0DAC;
},
{
glyphname = si_Nnga;
layers = (
{
layerId = "AFC4C3A3-2D14-4C11-872C-451CCFDE8196";
name = Light;
paths = (
{
closed = 1;
nodes = (
"380 276 LINE",
"424.565 295.978 OFFCURVE",
"430.831 338.025 OFFCURVE",
"430.831 369.95 CURVE SMOOTH",
"430.831 382.439 OFFCURVE",
"429.872 393.38 OFFCURVE",
"429.872 400.844 CURVE SMOOTH",
"429.872 512.851 OFFCURVE",
"499 581 OFFCURVE",
"579 581 CURVE SMOOTH",
"671.438 581 OFFCURVE",
"754.372 528 OFFCURVE",
"754.372 292 CURVE SMOOTH",
"754.372 57 OFFCURVE",
"672.041 3 OFFCURVE",
"586 3 CURVE SMOOTH",
"530.235 3 OFFCURVE",
"493.761 31.682 OFFCURVE",
"475 70.797 CURVE SMOOTH",
"498.372 123 LINE",
"501.372 83 OFFCURVE",
"533.372 40 OFFCURVE",
"586 40 CURVE SMOOTH",
"652.878 40 OFFCURVE",
"716.872 87.087 OFFCURVE",
"716.872 292 CURVE SMOOTH",
"716.872 497.785 OFFCURVE",
"652.701 544 OFFCURVE",
"579 544 CURVE SMOOTH",
"503.452 544 OFFCURVE",
"466.872 474.387 OFFCURVE",
"466.872 400.844 CURVE SMOOTH",
"466.872 392.559 OFFCURVE",
"467.457 382.064 OFFCURVE",
"467.457 370.388 CURVE SMOOTH",
"467.457 328.728 OFFCURVE",
"460.013 272.025 OFFCURVE",
"392 247 CURVE"
);
},
{
closed = 1;
nodes = (
"184 276 CURVE SMOOTH",
"184 524.01 OFFCURVE",
"266.331 581 OFFCURVE",
"352.372 581 CURVE SMOOTH",
"426 581 OFFCURVE",
"466 531 OFFCURVE",
"476 473 CURVE",
"440 461 LINE",
"437 501 OFFCURVE",
"405 544 OFFCURVE",
"352.372 544 CURVE SMOOTH",
"285.494 544 OFFCURVE",
"221.5 493.924 OFFCURVE",
"221.5 276 CURVE SMOOTH",
"221.5 83.28 OFFCURVE",
"295.299 40 OFFCURVE",
"369 40 CURVE SMOOTH",
"455.77 40 OFFCURVE",
"488.128 111.732 OFFCURVE",
"488.128 174 CURVE SMOOTH",
"488.128 224.729 OFFCURVE",
"464.176 268.541 OFFCURVE",
"427 272 CURVE",
"444 301 LINE",
"480 298.771 OFFCURVE",
"525.128 249.755 OFFCURVE",
"525.128 174 CURVE SMOOTH",
"525.128 94.539 OFFCURVE",
"482.72 3 OFFCURVE",
"369 3 CURVE SMOOTH",
"276.562 3 OFFCURVE",
"184 53.065 OFFCURVE"
);
},
{
closed = 1;
nodes = (
"33 281 CURVE SMOOTH",
"33 513.989 OFFCURVE",
"99.177 576 OFFCURVE",
"161.493 576 CURVE SMOOTH",
"221.021 576 OFFCURVE",
"249.476 531 OFFCURVE",
"249.476 471.001 CURVE",
"216 471.001 LINE",
"214.71 518.658 OFFCURVE",
"191.396 539 OFFCURVE",
"161.493 539 CURVE SMOOTH",
"117.121 539 OFFCURVE",
"70 484.767 OFFCURVE",
"70 281 CURVE SMOOTH",
"70 111.295 OFFCURVE",
"103.938 47.263 OFFCURVE",
"145 40 CURVE",
"145 3 LINE",
"83.681 11.378 OFFCURVE",
"33 85.24 OFFCURVE"
);
}
);
width = 787;
}
);
unicode = 0D9F;
},
{
glyphname = si_Nya;
layers = (
{
layerId = "AFC4C3A3-2D14-4C11-872C-451CCFDE8196";
name = Light;
paths = (
{
closed = 1;
nodes = (
"782.682 -57 CURVE SMOOTH",
"782.682 -24.172 OFFCURVE",
"790.426 1.597 OFFCURVE",
"815.353 34 CURVE",
"844.353 36 LINE",
"846.353 17 LINE",
"824.204 -8.839 OFFCURVE",
"819.682 -30.465 OFFCURVE",
"819.682 -57 CURVE SMOOTH",
"819.682 -111.587 OFFCURVE",
"860.148 -156.695 OFFCURVE",
"915.353 -156.695 CURVE SMOOTH",
"968.791 -156.695 OFFCURVE",
"1002.77 -132.976 OFFCURVE",
"1030.72 -83 CURVE",
"1060 -105.303 LINE",
"1024.95 -164.567 OFFCURVE",
"982.353 -192.695 OFFCURVE",
"915.353 -192.695 CURVE SMOOTH",
"835.938 -192.695 OFFCURVE",
"782.682 -129.528 OFFCURVE"
);
},
{
closed = 1;
nodes = (
"642.558 212.001 CURVE SMOOTH",
"642.558 312.683 OFFCURVE",
"715.558 411.001 OFFCURVE",
"839.503 411.001 CURVE SMOOTH",
"863.783 411.001 OFFCURVE",
"911.558 411.001 OFFCURVE",
"935.359 411.001 CURVE",
"937.359 422.001 OFFCURVE",
"940.558 438.289 OFFCURVE",
"940.558 454.001 CURVE SMOOTH",
"940.558 524.747 OFFCURVE",
"898.476 557 OFFCURVE",
"850.113 557 CURVE SMOOTH",
"809.729 557 OFFCURVE",
"767.28 530.044 OFFCURVE",
"767.28 474.001 CURVE SMOOTH",
"767.28 431.348 OFFCURVE",
"789.024 406.531 OFFCURVE",
"798.188 398.001 CURVE",
"774.28 376.001 LINE",
"762.28 387.001 OFFCURVE",
"733.805 419.001 OFFCURVE",
"733.805 474.001 CURVE SMOOTH",
"733.805 553 OFFCURVE",
"793.407 591 OFFCURVE",
"850.113 591 CURVE SMOOTH",
"914.67 591 OFFCURVE",
"974.558 548.1 OFFCURVE",
"974.558 454.001 CURVE SMOOTH",
"974.558 424.454 OFFCURVE",
"969.558 399.966 OFFCURVE",
"960.558 374.001 CURVE",
"960.558 374.001 OFFCURVE",
"882.558 374.001 OFFCURVE",
"839.503 374.001 CURVE SMOOTH",
"739.701 374.001 OFFCURVE",
"679.558 295.037 OFFCURVE",
"679.558 212.001 CURVE SMOOTH",
"679.558 101.982 OFFCURVE",
"760.894 41.843 OFFCURVE",
"843.4 41.843 CURVE SMOOTH",
"894.681 41.843 OFFCURVE",
"946.414 65.074 OFFCURVE",
"979.353 114 CURVE",
"1008.63 91.697 LINE",
"968.411 31.547 OFFCURVE",
"905.245 3 OFFCURVE",
"842.63 3 CURVE SMOOTH",
"741.88 3 OFFCURVE",
"642.558 76.909 OFFCURVE"
);
},
{
closed = 1;
nodes = (
"203.61 184 LINE",
"421.61 458 LINE SMOOTH",
"473.28 522.943 OFFCURVE",
"537.045 572 OFFCURVE",
"610.61 572 CURVE SMOOTH",
"679.059 572 OFFCURVE",
"749.859 527 OFFCURVE",
"769.166 449 CURVE",
"737.166 443 LINE",
"719.166 503 OFFCURVE",
"665.63 535 OFFCURVE",
"610.61 535 CURVE SMOOTH",
"546.366 535 OFFCURVE",
"493.61 490 OFFCURVE",
"448.61 433 CURVE SMOOTH",
"255.517 189 LINE",
"228.61 155 LINE"
);
},
{
closed = 1;
nodes = (
"244.609 105 CURVE SMOOTH",
"244.609 110.711 OFFCURVE",
"245.411 120.668 OFFCURVE",
"245.411 130.404 CURVE SMOOTH",
"245.411 144.302 OFFCURVE",
"243.777 157.747 OFFCURVE",
"235.847 157.747 CURVE SMOOTH",
"233.855 157.747 OFFCURVE",
"231.468 156.899 OFFCURVE",
"228.609 155 CURVE",
"235.609 184 LINE",
"252.609 190 LINE",
"254.25 190.461 OFFCURVE",
"255.72 190.739 OFFCURVE",
"257.61 190.739 CURVE SMOOTH",
"276.525 190.739 OFFCURVE",
"278.86 155.333 OFFCURVE",
"278.86 127.894 CURVE SMOOTH",
"278.86 118.896 OFFCURVE",
"278.609 110.755 OFFCURVE",
"278.609 105 CURVE SMOOTH",
"278.609 68.7 OFFCURVE",
"288.614 40 OFFCURVE",
"328.609 40 CURVE SMOOTH",
"380.367 40 OFFCURVE",
"393.842 100.28 OFFCURVE",
"394.488 159 CURVE SMOOTH",
"394.609 170 LINE",
"430.609 170 LINE",
"430.73 159 LINE SMOOTH",
"431.377 100.28 OFFCURVE",
"444.852 40 OFFCURVE",
"496.609 40 CURVE SMOOTH",
"573.058 40 OFFCURVE",
"575.609 157.619 OFFCURVE",
"575.609 196 CURVE SMOOTH",
"575.609 336.163 OFFCURVE",
"523.842 387.667 OFFCURVE",
"464.609 387.667 CURVE SMOOTH",
"425.609 387.667 OFFCURVE",
"406.609 375 OFFCURVE",
"389.609 360 CURVE",
"375.609 382 LINE",
"398.609 402 OFFCURVE",
"427.609 424.667 OFFCURVE",
"464.609 424.667 CURVE SMOOTH",
"543.609 424.667 OFFCURVE",
"612.652 363.221 OFFCURVE",
"612.652 196 CURVE SMOOTH",
"612.652 123.089 OFFCURVE",
"600.107 3 OFFCURVE",
"496.609 3 CURVE SMOOTH",
"438.549 3 OFFCURVE",
"413.609 48 OFFCURVE",
"412.609 79 CURVE",
"412.609 48 OFFCURVE",
"389.754 3 OFFCURVE",
"328.609 3 CURVE SMOOTH",
"261.418 3 OFFCURVE",
"244.609 48.037 OFFCURVE"
);
},
{
closed = 1;
nodes = (
"206.857 474 CURVE SMOOTH",
"206.857 553 OFFCURVE",
"266.46 591 OFFCURVE",
"323.166 591 CURVE SMOOTH",
"387.723 591 OFFCURVE",
"447.61 548.099 OFFCURVE",
"447.61 454 CURVE SMOOTH",
"413.61 402 LINE",
"413.61 416 OFFCURVE",
"413.61 435 OFFCURVE",
"413.61 454 CURVE SMOOTH",
"413.61 524.746 OFFCURVE",
"371.528 557 OFFCURVE",
"323.166 557 CURVE SMOOTH",
"282.78 557 OFFCURVE",
"240.333 530.043 OFFCURVE",
"240.333 474 CURVE SMOOTH",
"240.333 407.775 OFFCURVE",
"283.61 368 OFFCURVE",
"360.61 356 CURVE",
"352.61 325 LINE",
"265.61 338 OFFCURVE",
"206.857 390.378 OFFCURVE"
);
},
{
closed = 1;
nodes = (
"33.166 283.999 CURVE SMOOTH",
"33.166 516.988 OFFCURVE",
"93.424 579 OFFCURVE",
"150.166 579 CURVE SMOOTH",
"211.172 579 OFFCURVE",
"240.333 534 OFFCURVE",
"240.333 474 CURVE",
"206.857 474 LINE",
"205.516 521.657 OFFCURVE",
"181.268 542 OFFCURVE",
"150.166 542 CURVE SMOOTH",
"101.199 542 OFFCURVE",
"70.166 447.085 OFFCURVE",
"70.166 283.999 CURVE SMOOTH",
"70.166 114.294 OFFCURVE",
"111.166 49.013 OFFCURVE",
"145.166 43 CURVE",
"145.166 6 LINE",
"83.847 14.377 OFFCURVE",
"33.166 88.239 OFFCURVE"
);
}
);
width = 1030;
}
);
unicode = 0DA4;
},
{
glyphname = si_Oo;
layers = (
{
layerId = "AFC4C3A3-2D14-4C11-872C-451CCFDE8196";
name = Light;
paths = (
{
closed = 1;
nodes = (
"67.854 746 CURVE SMOOTH",
"67.854 795.266 OFFCURVE",
"111.363 864 OFFCURVE",
"271.854 864 CURVE SMOOTH",
"397.415 864 OFFCURVE",
"499.763 801.028 OFFCURVE",
"499.763 712 CURVE SMOOTH",
"499.763 659 OFFCURVE",
"465.516 621 OFFCURVE",
"416.763 602 CURVE",
"386.763 611 LINE",
"408.763 636 LINE",
"440.481 649.127 OFFCURVE",
"462.763 675.382 OFFCURVE",
"462.763 712 CURVE SMOOTH",
"462.763 779.357 OFFCURVE",
"377.03 827 OFFCURVE",
"271.854 827 CURVE SMOOTH",
"140.472 827 OFFCURVE",
"104.854 779.817 OFFCURVE",
"104.854 746 CURVE SMOOTH",
"104.854 712.768 OFFCURVE",
"132.037 683.519 OFFCURVE",
"157.854 668 CURVE",
"158.854 637 LINE",
"130.854 646 LINE",
"100.167 665.896 OFFCURVE",
"67.854 703.395 OFFCURVE"
);
},
{
closed = 1;
nodes = (
"33 250.999 CURVE SMOOTH",
"33 390.371 OFFCURVE",
"64.013 524 OFFCURVE",
"151.639 524 CURVE SMOOTH",
"217 524 OFFCURVE",
"241 474 OFFCURVE",
"241 426 CURVE",
"206 419 LINE",
"206 470.221 OFFCURVE",
"181.7 489 OFFCURVE",
"152 489 CURVE SMOOTH",
"92 489 OFFCURVE",
"70 368 OFFCURVE",
"70 250.999 CURVE SMOOTH",
"70 167.891 OFFCURVE",
"73.717 40 OFFCURVE",
"155.597 40 CURVE SMOOTH",
"246.763 40 OFFCURVE",
"253.354 148.886 OFFCURVE",
"256.597 224.5 CURVE",
"290.597 224.5 LINE",
"293.839 148.886 OFFCURVE",
"300.431 40 OFFCURVE",
"391.597 40 CURVE SMOOTH",
"484.33 40 OFFCURVE",
"491.153 164 OFFCURVE",
"491.153 293 CURVE SMOOTH",
"491.153 582 OFFCURVE",
"363.693 651 OFFCURVE",
"244.854 651 CURVE SMOOTH",
"174.914 651 OFFCURVE",
"133.367 621.477 OFFCURVE",
"94.854 591 CURVE",
"70.854 620 LINE",
"119.412 663.099 OFFCURVE",
"188.694 688 OFFCURVE",
"244.854 688 CURVE SMOOTH",
"381.546 688 OFFCURVE",
"528.153 611.869 OFFCURVE",
"528.153 293 CURVE SMOOTH",
"528.153 145.135 OFFCURVE",
"518.794 3 OFFCURVE",
"391.597 3 CURVE SMOOTH",
"296.431 3 OFFCURVE",
"277.431 85 OFFCURVE",
"273.597 115 CURVE",
"269.763 85 OFFCURVE",
"250.763 3 OFFCURVE",
"155.597 3 CURVE SMOOTH",
"41 3 OFFCURVE",
"33 153.317 OFFCURVE"
);
},
{
closed = 1;
nodes = (
"203 370 CURVE SMOOTH",
"203 385.759 OFFCURVE",
"206 397 OFFCURVE",
"206 419 CURVE",
"241 426 LINE",
"241 415.977 OFFCURVE",
"239 386.338 OFFCURVE",
"239 370 CURVE SMOOTH",
"239 346 OFFCURVE",
"245.226 317 OFFCURVE",
"282 317 CURVE SMOOTH",
"325.195 317 OFFCURVE",
"326 381.961 OFFCURVE",
"326 402 CURVE SMOOTH",
"326 422.039 OFFCURVE",
"325.195 487 OFFCURVE",
"282 487 CURVE SMOOTH",
"258.226 487 OFFCURVE",
"242 470 OFFCURVE",
"238 441 CURVE",
"207 444 LINE",
"212 486 OFFCURVE",
"234 523 OFFCURVE",
"282 523 CURVE SMOOTH",
"360.537 523 OFFCURVE",
"362 430.526 OFFCURVE",
"362 402 CURVE SMOOTH",
"362 373.474 OFFCURVE",
"360.537 281 OFFCURVE",
"282 281 CURVE SMOOTH",
"225.009 281 OFFCURVE",
"203 322.966 OFFCURVE"
);
}
);
width = 561;
}
);
unicode = 0D95;
},
{
glyphname = si_Os;
layers = (
{
layerId = "AFC4C3A3-2D14-4C11-872C-451CCFDE8196";
name = Light;
paths = (
{
closed = 1;
nodes = (
"33 250.999 CURVE SMOOTH",
"33 390.371 OFFCURVE",
"64.013 524 OFFCURVE",
"151.639 524 CURVE SMOOTH",
"217 524 OFFCURVE",
"241 474 OFFCURVE",
"241 426 CURVE",
"206 419 LINE",
"206 470.221 OFFCURVE",
"181.7 489 OFFCURVE",
"152 489 CURVE SMOOTH",
"92 489 OFFCURVE",
"70 368 OFFCURVE",
"70 250.999 CURVE SMOOTH",
"70 167.891 OFFCURVE",
"73.717 40 OFFCURVE",
"155.597 40 CURVE SMOOTH",
"246.763 40 OFFCURVE",
"253.354 148.886 OFFCURVE",
"256.597 224.5 CURVE",
"290.597 224.5 LINE",
"293.839 148.886 OFFCURVE",
"300.431 40 OFFCURVE",
"391.597 40 CURVE SMOOTH",
"484.33 40 OFFCURVE",
"491.153 164 OFFCURVE",
"491.153 293 CURVE SMOOTH",
"491.153 576.887 OFFCURVE",
"416.702 712 OFFCURVE",
"263.597 712 CURVE SMOOTH",
"192.725 712 OFFCURVE",
"124.248 665.927 OFFCURVE",
"100.924 605 CURVE",
"66.924 618 LINE",
"95.123 692.593 OFFCURVE",
"177.911 749 OFFCURVE",
"263.597 749 CURVE SMOOTH",
"441.597 749 OFFCURVE",
"528.153 601.955 OFFCURVE",
"528.153 293 CURVE SMOOTH",
"528.153 145.135 OFFCURVE",
"518.794 3 OFFCURVE",
"391.597 3 CURVE SMOOTH",
"296.431 3 OFFCURVE",
"277.431 85 OFFCURVE",
"273.597 115 CURVE",
"269.763 85 OFFCURVE",
"250.763 3 OFFCURVE",
"155.597 3 CURVE SMOOTH",
"41 3 OFFCURVE",
"33 153.317 OFFCURVE"
);
},
{
closed = 1;
nodes = (
"203 370 CURVE SMOOTH",
"203 385.759 OFFCURVE",
"206 397 OFFCURVE",
"206 419 CURVE",
"241 426 LINE",
"241 415.977 OFFCURVE",
"239 386.338 OFFCURVE",
"239 370 CURVE SMOOTH",
"239 346 OFFCURVE",
"245.226 317 OFFCURVE",
"282 317 CURVE SMOOTH",
"325.195 317 OFFCURVE",
"326 381.961 OFFCURVE",
"326 402 CURVE SMOOTH",
"326 422.039 OFFCURVE",
"325.195 487 OFFCURVE",
"282 487 CURVE SMOOTH",
"258.226 487 OFFCURVE",
"242 470 OFFCURVE",
"238 441 CURVE",
"207 444 LINE",
"212 486 OFFCURVE",
"234 523 OFFCURVE",
"282 523 CURVE SMOOTH",
"360.537 523 OFFCURVE",
"362 430.526 OFFCURVE",
"362 402 CURVE SMOOTH",
"362 373.474 OFFCURVE",
"360.537 281 OFFCURVE",
"282 281 CURVE SMOOTH",
"225.009 281 OFFCURVE",
"203 322.966 OFFCURVE"
);
}
);
width = 561;
}
);
unicode = 0D94;
},
{
glyphname = si_Pa;
layers = (
{
layerId = "AFC4C3A3-2D14-4C11-872C-451CCFDE8196";
name = Light;
paths = (
{
closed = 1;
nodes = (
"271.833 454 CURVE SMOOTH",
"271.833 466.186 OFFCURVE",
"272.838 477.513 OFFCURVE",
"274.728 488 CURVE SMOOTH",
"287.424 558.491 OFFCURVE",
"340.082 591 OFFCURVE",
"396.278 591 CURVE SMOOTH",
"452.984 591 OFFCURVE",
"512.587 553 OFFCURVE",
"512.587 474 CURVE SMOOTH",
"512.587 429.732 OFFCURVE",
"492.27 385.565 OFFCURVE",
"460.723 361 CURVE",
"434.723 382 LINE",
"461.723 402 OFFCURVE",
"479.111 437.959 OFFCURVE",
"479.111 474 CURVE SMOOTH",
"479.111 530.043 OFFCURVE",
"436.663 557 OFFCURVE",
"396.278 557 CURVE SMOOTH",
"347.916 557 OFFCURVE",
"305.834 524.746 OFFCURVE",
"305.834 454 CURVE SMOOTH",
"305.834 435 OFFCURVE",
"305.834 416 OFFCURVE",
"305.834 402 CURVE",
"288.834 369 LINE",
"279.117 397.663 OFFCURVE",
"271.833 421.384 OFFCURVE"
);
},
{
closed = 1;
nodes = (
"70 224.437 CURVE SMOOTH",
"70 107.242 OFFCURVE",
"156.024 30 OFFCURVE",
"288.834 30 CURVE SMOOTH",
"421.644 30 OFFCURVE",
"507.668 106.806 OFFCURVE",
"507.668 224 CURVE SMOOTH",
"507.668 299.407 OFFCURVE",
"469.191 365 OFFCURVE",
"385 365 CURVE SMOOTH",
"192.668 365 LINE SMOOTH",
"108.477 365 OFFCURVE",
"70 299.844 OFFCURVE"
);
},
{
closed = 1;
nodes = (
"33 224.437 CURVE SMOOTH",
"33 319.693 OFFCURVE",
"85.903 402 OFFCURVE",
"192.668 402 CURVE SMOOTH",
"385 402 LINE SMOOTH",
"491.765 402 OFFCURVE",
"544.668 319.257 OFFCURVE",
"544.668 224 CURVE SMOOTH",
"544.668 84.505 OFFCURVE",
"444.34 -7 OFFCURVE",
"288.834 -7 CURVE SMOOTH",
"133.328 -7 OFFCURVE",
"33 84.941 OFFCURVE"
);
},
{
closed = 1;
nodes = (
"65.08 474 CURVE SMOOTH",
"65.08 553 OFFCURVE",
"124.683 591 OFFCURVE",
"181.389 591 CURVE SMOOTH",
"237.585 591 OFFCURVE",
"290.247 558.491 OFFCURVE",
"302.94 488 CURVE SMOOTH",
"304.829 477.514 OFFCURVE",
"305.833 466.186 OFFCURVE",
"305.833 454 CURVE SMOOTH",
"305.833 421.384 OFFCURVE",
"298.549 397.663 OFFCURVE",
"288.833 369 CURVE",
"271.833 402 LINE",
"271.833 416 OFFCURVE",
"271.833 435 OFFCURVE",
"271.833 454 CURVE SMOOTH",
"271.833 524.746 OFFCURVE",
"229.751 557 OFFCURVE",
"181.389 557 CURVE SMOOTH",
"141.004 557 OFFCURVE",
"98.556 530.043 OFFCURVE",
"98.556 474 CURVE SMOOTH",
"98.556 437.959 OFFCURVE",
"115.944 402 OFFCURVE",
"142.944 382 CURVE",
"116.944 361 LINE",
"85.397 385.565 OFFCURVE",
"65.08 429.732 OFFCURVE"
);
}
);
width = 577;
}
);
unicode = 0DB4;
},
{
glyphname = si_Pha;
layers = (
{
layerId = "AFC4C3A3-2D14-4C11-872C-451CCFDE8196";
name = Light;
paths = (
{
closed = 1;
nodes = (
"281.583 603 CURVE SMOOTH",
"281.583 667.298 OFFCURVE",
"324.066 706.649 OFFCURVE",
"324.066 740.685 CURVE SMOOTH",
"324.066 754.219 OFFCURVE",
"317.349 766.912 OFFCURVE",
"298.571 780 CURVE",
"362.181 761 LINE",
"359.836 749.59 OFFCURVE",
"356.28 726.29 OFFCURVE",
"356.28 726.29 CURVE",
"356.28 693.053 OFFCURVE",
"317.571 661.163 OFFCURVE",
"317.571 603 CURVE SMOOTH",
"317.571 561.562 OFFCURVE",
"359.317 524.959 OFFCURVE",
"422.54 524.959 CURVE SMOOTH",
"430.997 524.959 OFFCURVE",
"439.838 525.614 OFFCURVE",
"449.015 527 CURVE",
"472.181 522 LINE",
"457.015 494 LINE",
"444.767 492.013 OFFCURVE",
"432.968 491.073 OFFCURVE",
"421.681 491.073 CURVE SMOOTH",
"337.3 491.073 OFFCURVE",
"281.583 543.567 OFFCURVE"
);
},
{
closed = 1;
nodes = (
"33 219 CURVE SMOOTH",
"33 284.815 OFFCURVE",
"54.052 335.012 OFFCURVE",
"90.403 363 CURVE SMOOTH",
"111.493 379.237 OFFCURVE",
"137.733 388 OFFCURVE",
"168 388 CURVE SMOOTH",
"217 388 OFFCURVE",
"285 388 OFFCURVE",
"285 388 CURVE",
"304 354 LINE",
"168 354 LINE SMOOTH",
"105.041 354 OFFCURVE",
"69 298.873 OFFCURVE",
"69 219 CURVE SMOOTH",
"69 154.403 OFFCURVE",
"99.047 40 OFFCURVE",
"251 40 CURVE SMOOTH",
"389.182 40 OFFCURVE",
"464.166 150.386 OFFCURVE",
"464.166 342 CURVE SMOOTH",
"464.166 410.759 OFFCURVE",
"459.932 471.187 OFFCURVE",
"449.04 524 CURVE",
"427.862 608.981 OFFCURVE",
"394.83 674.718 OFFCURVE",
"355.001 724 CURVE",
"337.376 745.808 OFFCURVE",
"318.42 764.394 OFFCURVE",
"298.571 780 CURVE",
"321.571 807 LINE",
"440.58 715.402 OFFCURVE",
"501.166 562.866 OFFCURVE",
"501.166 342 CURVE SMOOTH",
"501.166 126.91 OFFCURVE",
"413.166 3 OFFCURVE",
"251 3 CURVE SMOOTH",
"68.99 3 OFFCURVE",
"33 141.051 OFFCURVE"
);
},
{
closed = 1;
nodes = (
"72 420 CURVE SMOOTH",
"72 488 OFFCURVE",
"123.344 524 OFFCURVE",
"182 524 CURVE SMOOTH",
"246.556 524 OFFCURVE",
"306.444 481.099 OFFCURVE",
"306.444 387 CURVE SMOOTH",
"306.444 375.04 OFFCURVE",
"305.559 364.262 OFFCURVE",
"304 354 CURVE",
"272.62 379 LINE",
"272.527 381.638 OFFCURVE",
"272.444 384.229 OFFCURVE",
"272.444 387 CURVE SMOOTH",
"272.444 457.746 OFFCURVE",
"230.362 490 OFFCURVE",
"182 490 CURVE SMOOTH",
"140.043 490 OFFCURVE",
"105.476 467 OFFCURVE",
"105.476 420 CURVE SMOOTH",
"105.476 395.6 OFFCURVE",
"115 376 OFFCURVE",
"128 364 CURVE",
"103.818 344 LINE",
"88 358 OFFCURVE",
"72 388.023 OFFCURVE"
);
}
);
width = 534;
}
);
unicode = 0DB5;
},
{
glyphname = si_Ra;
layers = (
{
layerId = "AFC4C3A3-2D14-4C11-872C-451CCFDE8196";
name = Light;
paths = (
{
closed = 1;
nodes = (
"33 263 LINE",
"33 379 OFFCURVE",
"85 467.831 OFFCURVE",
"166 548 CURVE SMOOTH",
"252.101 633.958 OFFCURVE",
"313 697.317 OFFCURVE",
"313 776 CURVE",
"349 776 LINE",
"349 688 OFFCURVE",
"284.689 615.532 OFFCURVE",
"190 521 CURVE SMOOTH",
"140.528 471.61 OFFCURVE",
"70 379.1 OFFCURVE",
"70 263 CURVE",
"49 249 LINE"
);
},
{
closed = 1;
nodes = (
"70 263 CURVE SMOOTH",
"70 129 OFFCURVE",
"133.163 40 OFFCURVE",
"239.18 40 CURVE SMOOTH",
"349.942 40 OFFCURVE",
"411 145.86 OFFCURVE",
"411 276.064 CURVE SMOOTH",
"411 403.183 OFFCURVE",
"351.5 491 OFFCURVE",
"259 491 CURVE SMOOTH",
"110.218 491 OFFCURVE",
"70 341 OFFCURVE"
);
},
{
closed = 1;
nodes = (
"33 263 CURVE SMOOTH",
"33 309 OFFCURVE",
"47.606 395.115 OFFCURVE",
"90.499 450 CURVE SMOOTH",
"104.038 467.323 OFFCURVE",
"126.395 475.629 OFFCURVE",
"146 488 CURVE",
"175 514 OFFCURVE",
"210.087 526.63 OFFCURVE",
"259 526.63 CURVE SMOOTH",
"331.055 526.63 OFFCURVE",
"387.005 486.451 OFFCURVE",
"418.75 420 CURVE SMOOTH",
"437.678 380.379 OFFCURVE",
"448 331.418 OFFCURVE",
"448 276.064 CURVE SMOOTH",
"448 125.453 OFFCURVE",
"373.794 3 OFFCURVE",
"239.18 3 CURVE SMOOTH",
"105.25 3 OFFCURVE",
"33 112.352 OFFCURVE"
);
}
);
width = 481;
}
);
unicode = 0DBB;
},
{
glyphname = si_Sa;
layers = (
{
layerId = "AFC4C3A3-2D14-4C11-872C-451CCFDE8196";
name = Light;
paths = (
{
closed = 1;
nodes = (
"278.722 454 CURVE SMOOTH",
"278.722 466.186 OFFCURVE",
"279.727 477.513 OFFCURVE",
"281.616 488 CURVE SMOOTH",
"294.312 558.491 OFFCURVE",
"346.971 591 OFFCURVE",
"403.167 591 CURVE SMOOTH",
"459.873 591 OFFCURVE",
"519.476 553 OFFCURVE",
"519.476 474 CURVE SMOOTH",
"519.476 429.732 OFFCURVE",
"499.158 385.565 OFFCURVE",
"467.611 361 CURVE",
"441.611 382 LINE",
"468.611 402 OFFCURVE",
"486 437.959 OFFCURVE",
"486 474 CURVE SMOOTH",
"486 530.043 OFFCURVE",
"443.552 557 OFFCURVE",
"403.167 557 CURVE SMOOTH",
"354.805 557 OFFCURVE",
"312.723 524.746 OFFCURVE",
"312.723 454 CURVE SMOOTH",
"312.723 435 OFFCURVE",
"312.723 416 OFFCURVE",
"312.723 402 CURVE",
"295.723 369 LINE",
"286.006 397.663 OFFCURVE",
"278.722 421.384 OFFCURVE"
);
},
{
closed = 1;
nodes = (
"79.744 194.103 CURVE SMOOTH",
"79.744 107.481 OFFCURVE",
"111.698 40 OFFCURVE",
"177.723 40 CURVE SMOOTH",
"268.889 40 OFFCURVE",
"275.48 148.886 OFFCURVE",
"278.723 224.5 CURVE",
"312.723 224.5 LINE",
"315.965 148.886 OFFCURVE",
"322.557 40 OFFCURVE",
"413.723 40 CURVE SMOOTH",
"479.747 40 OFFCURVE",
"511.701 107.481 OFFCURVE",
"511.701 194.103 CURVE SMOOTH",
"511.701 252 OFFCURVE",
"500.571 369 OFFCURVE",
"416.723 369 CURVE SMOOTH",
"190.572 369 LINE SMOOTH",
"92.797 369 OFFCURVE",
"79.744 251.715 OFFCURVE"
);
},
{
closed = 1;
nodes = (
"42.744 194.103 CURVE SMOOTH",
"42.744 263 OFFCURVE",
"62.723 342 OFFCURVE",
"96.723 369 CURVE",
"33 369 LINE",
"33 405 LINE",
"418.572 405 LINE SMOOTH",
"448.745 405 OFFCURVE",
"472.316 394.708 OFFCURVE",
"490.591 378 CURVE SMOOTH",
"536 336.482 OFFCURVE",
"548.701 255.352 OFFCURVE",
"548.701 194.103 CURVE SMOOTH",
"548.701 86.684 OFFCURVE",
"504.68 3 OFFCURVE",
"413.723 3 CURVE SMOOTH",
"318.557 3 OFFCURVE",
"299.557 85 OFFCURVE",
"295.723 115 CURVE",
"291.889 85 OFFCURVE",
"272.889 3 OFFCURVE",
"177.723 3 CURVE SMOOTH",
"86.766 3 OFFCURVE",
"42.744 86.684 OFFCURVE"
);
},
{
closed = 1;
nodes = (
"71.97 474 CURVE SMOOTH",
"71.97 553 OFFCURVE",
"131.572 591 OFFCURVE",
"188.278 591 CURVE SMOOTH",
"244.475 591 OFFCURVE",
"297.134 558.491 OFFCURVE",
"309.83 488 CURVE SMOOTH",
"311.719 477.513 OFFCURVE",
"312.724 466.186 OFFCURVE",
"312.724 454 CURVE SMOOTH",
"312.724 421.384 OFFCURVE",
"305.439 397.663 OFFCURVE",
"295.723 369 CURVE",
"278.723 402 LINE",
"278.723 416 OFFCURVE",
"278.723 435 OFFCURVE",
"278.723 454 CURVE SMOOTH",
"278.723 524.746 OFFCURVE",
"236.641 557 OFFCURVE",
"188.278 557 CURVE SMOOTH",
"147.893 557 OFFCURVE",
"105.445 530.043 OFFCURVE",
"105.445 474 CURVE SMOOTH",
"105.445 432 OFFCURVE",
"124.445 406 OFFCURVE",
"134.445 396 CURVE",
"112.445 376 LINE",
"100.445 387 OFFCURVE",
"71.97 419 OFFCURVE"
);
}
);
width = 581;
}
);
unicode = 0DC3;
},
{
glyphname = si_Sha;
layers = (
{
layerId = "AFC4C3A3-2D14-4C11-872C-451CCFDE8196";
name = Light;
paths = (
{
closed = 1;
nodes = (
"422 146 CURVE SMOOTH",
"422 223.254 OFFCURVE",
"462.66 285.912 OFFCURVE",
"526.996 285.912 CURVE SMOOTH",
"561.48 285.912 OFFCURVE",
"591.903 273.368 OFFCURVE",
"608 252 CURVE",
"601 216 LINE",
"577.396 243.635 OFFCURVE",
"552.188 250.33 OFFCURVE",
"533.398 250.33 CURVE SMOOTH",
"483.921 250.33 OFFCURVE",
"459 200.199 OFFCURVE",
"459 146 CURVE SMOOTH",
"459 83.143 OFFCURVE",
"478 46 OFFCURVE",
"522 46 CURVE SMOOTH",
"540.318 46 OFFCURVE",
"559.335 55.078 OFFCURVE",
"578.637 55.078 CURVE SMOOTH",
"592 55.078 OFFCURVE",
"605.5 50.727 OFFCURVE",
"619 36 CURVE",
"609 3 LINE",
"597.947 15.895 OFFCURVE",
"590.152 19.967 OFFCURVE",
"581.814 19.967 CURVE SMOOTH",
"567.521 19.967 OFFCURVE",
"551.632 8 OFFCURVE",
"515 8 CURVE SMOOTH",
"440 8 OFFCURVE",
"422 94.902 OFFCURVE"
);
},
{
closed = 1;
nodes = (
"229 276 LINE",
"273.565 295.977 OFFCURVE",
"279.831 338.025 OFFCURVE",
"279.831 369.95 CURVE SMOOTH",
"279.831 382.44 OFFCURVE",
"278.872 393.38 OFFCURVE",
"278.872 400.844 CURVE SMOOTH",
"278.872 512.851 OFFCURVE",
"362 581 OFFCURVE",
"442 581 CURVE SMOOTH",
"534.438 581 OFFCURVE",
"619.5 528 OFFCURVE",
"619.5 292 CURVE SMOOTH",
"619.5 192.262 OFFCURVE",
"608.228 142.692 OFFCURVE",
"608.228 105.539 CURVE SMOOTH",
"608.228 76.759 OFFCURVE",
"614.992 55.429 OFFCURVE",
"639 24 CURVE",
"609 3 LINE",
"596.188 19.636 OFFCURVE",
"587.289 34.993 OFFCURVE",
"581.274 50 CURVE",
"572.953 70.762 OFFCURVE",
"570.153 90.854 OFFCURVE",
"570.153 112.74 CURVE SMOOTH",
"570.153 146.967 OFFCURVE",
"577 185.58 OFFCURVE",
"580.284 238 CURVE",
"581.319 254.529 OFFCURVE",
"582 272.43 OFFCURVE",
"582 292 CURVE SMOOTH",
"582 497.785 OFFCURVE",
"515.701 544 OFFCURVE",
"442 544 CURVE SMOOTH",
"366.452 544 OFFCURVE",
"315.872 474.387 OFFCURVE",
"315.872 400.844 CURVE SMOOTH",
"315.872 392.559 OFFCURVE",
"316.457 382.065 OFFCURVE",
"316.457 370.388 CURVE SMOOTH",
"316.457 328.728 OFFCURVE",
"309.012 272.025 OFFCURVE",
"241 247 CURVE"
);
},
{
closed = 1;
nodes = (
"33 276 CURVE SMOOTH",
"33 524.011 OFFCURVE",
"115.331 581 OFFCURVE",
"201.372 581 CURVE SMOOTH",
"275 581 OFFCURVE",
"315 531 OFFCURVE",
"325 473 CURVE",
"289 461 LINE",
"286 501 OFFCURVE",
"254 544 OFFCURVE",
"201.372 544 CURVE SMOOTH",
"134.494 544 OFFCURVE",
"70.5 493.924 OFFCURVE",
"70.5 276 CURVE SMOOTH",
"70.5 83.28 OFFCURVE",
"144.299 40 OFFCURVE",
"218 40 CURVE SMOOTH",
"304.77 40 OFFCURVE",
"337.128 111.732 OFFCURVE",
"337.128 174 CURVE SMOOTH",
"337.128 224.729 OFFCURVE",
"313.176 268.541 OFFCURVE",
"276 272 CURVE",
"293 301 LINE",
"329 298.771 OFFCURVE",
"374.128 249.754 OFFCURVE",
"374.128 174 CURVE SMOOTH",
"374.128 94.539 OFFCURVE",
"331.72 3 OFFCURVE",
"218 3 CURVE SMOOTH",
"125.562 3 OFFCURVE",
"33 53.065 OFFCURVE"
);
}
);
width = 672;
}
);
unicode = 0DC1;
},
{
glyphname = si_Ssa;
layers = (
{
layerId = "AFC4C3A3-2D14-4C11-872C-451CCFDE8196";
name = Light;
paths = (
{
closed = 1;
nodes = (
"222 30 LINE",
"214.923 52.446 OFFCURVE",
"211.724 73.738 OFFCURVE",
"211.724 93.962 CURVE SMOOTH",
"211.724 221.833 OFFCURVE",
"339.628 306.975 OFFCURVE",
"424 371 CURVE",
"444 371 LINE",
"448 350 LINE",
"369.058 289.917 OFFCURVE",
"249.386 210.02 OFFCURVE",
"249.386 90.023 CURVE SMOOTH",
"249.386 71.045 OFFCURVE",
"252.379 51.064 OFFCURVE",
"259 30 CURVE",
"239 11 LINE"
);
},
{
closed = 1;
nodes = (
"271.833 454 CURVE SMOOTH",
"271.833 466.186 OFFCURVE",
"272.839 477.513 OFFCURVE",
"274.728 488 CURVE SMOOTH",
"287.424 558.491 OFFCURVE",
"340.082 591 OFFCURVE",
"396.278 591 CURVE SMOOTH",
"452.984 591 OFFCURVE",
"512.587 553 OFFCURVE",
"512.587 474 CURVE SMOOTH",
"512.587 429.732 OFFCURVE",
"492.27 385.565 OFFCURVE",
"460.723 361 CURVE",
"434.723 382 LINE",
"461.723 402 OFFCURVE",
"479.111 437.959 OFFCURVE",
"479.111 474 CURVE SMOOTH",
"479.111 530.043 OFFCURVE",
"436.663 557 OFFCURVE",
"396.278 557 CURVE SMOOTH",
"347.916 557 OFFCURVE",
"305.834 524.746 OFFCURVE",
"305.834 454 CURVE SMOOTH",
"305.834 435 OFFCURVE",
"305.834 416 OFFCURVE",
"305.834 402 CURVE",
"288.834 369 LINE",
"279.117 397.663 OFFCURVE",
"271.833 421.384 OFFCURVE"
);
},
{
closed = 1;
nodes = (
"70 224.437 CURVE SMOOTH",
"70 107.242 OFFCURVE",
"156.024 30 OFFCURVE",
"288.834 30 CURVE SMOOTH",
"421.644 30 OFFCURVE",
"507.668 106.806 OFFCURVE",
"507.668 224 CURVE SMOOTH",
"507.668 299.407 OFFCURVE",
"469.191 365 OFFCURVE",
"385 365 CURVE SMOOTH",
"192.668 365 LINE SMOOTH",
"108.477 365 OFFCURVE",
"70 299.844 OFFCURVE"
);
},
{
closed = 1;
nodes = (
"33 224.437 CURVE SMOOTH",
"33 319.693 OFFCURVE",
"85.903 402 OFFCURVE",
"192.668 402 CURVE SMOOTH",
"385 402 LINE SMOOTH",
"491.765 402 OFFCURVE",
"544.668 319.257 OFFCURVE",
"544.668 224 CURVE SMOOTH",
"544.668 84.505 OFFCURVE",
"444.34 -7 OFFCURVE",
"288.834 -7 CURVE SMOOTH",
"133.328 -7 OFFCURVE",
"33 84.941 OFFCURVE"
);
},
{
closed = 1;
nodes = (
"65.08 474 CURVE SMOOTH",
"65.08 553 OFFCURVE",
"124.683 591 OFFCURVE",
"181.389 591 CURVE SMOOTH",
"237.585 591 OFFCURVE",
"290.247 558.491 OFFCURVE",
"302.94 488 CURVE SMOOTH",
"304.829 477.514 OFFCURVE",
"305.833 466.186 OFFCURVE",
"305.833 454 CURVE SMOOTH",
"305.833 421.384 OFFCURVE",
"298.549 397.663 OFFCURVE",
"288.833 369 CURVE",
"271.833 402 LINE",
"271.833 416 OFFCURVE",
"271.833 435 OFFCURVE",
"271.833 454 CURVE SMOOTH",
"271.833 524.746 OFFCURVE",
"229.751 557 OFFCURVE",
"181.389 557 CURVE SMOOTH",
"141.004 557 OFFCURVE",
"98.556 530.043 OFFCURVE",
"98.556 474 CURVE SMOOTH",
"98.556 437.959 OFFCURVE",
"115.944 402 OFFCURVE",
"142.944 382 CURVE",
"116.944 361 LINE",
"85.397 385.565 OFFCURVE",
"65.08 429.732 OFFCURVE"
);
}
);
width = 577;
}
);
unicode = 0DC2;
},
{
glyphname = si_Ta;
layers = (
{
layerId = "AFC4C3A3-2D14-4C11-872C-451CCFDE8196";
name = Light;
paths = (
{
closed = 1;
nodes = (
"33 184 LINE",
"251 458 LINE SMOOTH",
"305.381 526.35 OFFCURVE",
"366.434 582 OFFCURVE",
"440 582 CURVE SMOOTH",
"549.394 582 OFFCURVE",
"645 496.279 OFFCURVE",
"645 262.999 CURVE SMOOTH",
"645 90.271 OFFCURVE",
"588.093 2.771 OFFCURVE",
"468.352 2.771 CURVE SMOOTH",
"401.352 2.771 OFFCURVE",
"354.6 40.499 OFFCURVE",
"344.352 85.771 CURVE",
"378.352 94.771 LINE",
"385.789 64.771 OFFCURVE",
"420.352 39.771 OFFCURVE",
"468.352 39.771 CURVE SMOOTH",
"545.658 39.771 OFFCURVE",
"608 98.822 OFFCURVE",
"608 262.999 CURVE SMOOTH",
"608 469.222 OFFCURVE",
"529.649 545 OFFCURVE",
"440 545 CURVE SMOOTH",
"375.756 545 OFFCURVE",
"325.68 493.25 OFFCURVE",
"278 433 CURVE SMOOTH",
"84.906 189 LINE",
"58 155 LINE"
);
},
{
closed = 1;
nodes = (
"83.372 129 CURVE SMOOTH",
"83.372 142.484 OFFCURVE",
"77.859 155.662 OFFCURVE",
"63.777 155.662 CURVE SMOOTH",
"61.992 155.662 OFFCURVE",
"60.068 155.45 OFFCURVE",
"58 155 CURVE",
"65 184 LINE",
"82.372 192 LINE",
"82.372 192 OFFCURVE",
"84.24 191.59 OFFCURVE",
"87 190.739 CURVE SMOOTH",
"115.372 182 OFFCURVE",
"120.372 156.439 OFFCURVE",
"120.372 129 CURVE SMOOTH",
"120.372 82.139 OFFCURVE",
"154.372 40 OFFCURVE",
"239.372 40 CURVE SMOOTH",
"261.018 40 OFFCURVE",
"372.372 46 OFFCURVE",
"372.372 195.999 CURVE SMOOTH",
"372.372 323.731 OFFCURVE",
"328.999 370.667 OFFCURVE",
"279.372 370.667 CURVE SMOOTH",
"240.372 370.667 OFFCURVE",
"221.372 358 OFFCURVE",
"204.372 343 CURVE",
"190.372 365 LINE",
"213.372 385 OFFCURVE",
"242.372 407.667 OFFCURVE",
"279.372 407.667 CURVE SMOOTH",
"348.767 407.667 OFFCURVE",
"409.415 350.789 OFFCURVE",
"409.415 195.999 CURVE SMOOTH",
"409.415 17 OFFCURVE",
"289.109 3 OFFCURVE",
"239.372 3 CURVE SMOOTH",
"133.321 3 OFFCURVE",
"83.372 59.7 OFFCURVE"
);
},
{
closed = 1;
nodes = (
"36.247 474 CURVE SMOOTH",
"36.247 553 OFFCURVE",
"95.85 591 OFFCURVE",
"152.556 591 CURVE SMOOTH",
"217.112 591 OFFCURVE",
"277 548.099 OFFCURVE",
"277 454 CURVE",
"243 402 LINE",
"243 416 OFFCURVE",
"243 435 OFFCURVE",
"243 454 CURVE SMOOTH",
"243 524.746 OFFCURVE",
"200.918 557 OFFCURVE",
"152.556 557 CURVE SMOOTH",
"112.17 557 OFFCURVE",
"69.723 530.043 OFFCURVE",
"69.723 474 CURVE SMOOTH",
"69.723 407.775 OFFCURVE",
"113 368 OFFCURVE",
"190 356 CURVE",
"182 325 LINE",
"95 338 OFFCURVE",
"36.247 390.378 OFFCURVE"
);
}
);
width = 668;
}
);
unicode = 0DAD;
},
{
glyphname = si_Tha;
layers = (
{
layerId = "AFC4C3A3-2D14-4C11-872C-451CCFDE8196";
name = Light;
paths = (
{
closed = 1;
nodes = (
"272.583 603 CURVE SMOOTH",
"272.583 667.298 OFFCURVE",
"315.066 706.649 OFFCURVE",
"315.066 740.685 CURVE SMOOTH",
"315.066 754.219 OFFCURVE",
"308.349 766.912 OFFCURVE",
"289.571 780 CURVE",
"353.181 761 LINE",
"350.836 749.59 OFFCURVE",
"347.28 726.29 OFFCURVE",
"347.28 726.29 CURVE",
"347.28 693.053 OFFCURVE",
"308.571 661.163 OFFCURVE",
"308.571 603 CURVE SMOOTH",
"308.571 561.562 OFFCURVE",
"350.317 524.959 OFFCURVE",
"413.54 524.959 CURVE SMOOTH",
"421.997 524.959 OFFCURVE",
"430.838 525.614 OFFCURVE",
"440.015 527 CURVE",
"463.181 522 LINE",
"448.015 494 LINE",
"435.767 492.013 OFFCURVE",
"423.968 491.073 OFFCURVE",
"412.681 491.073 CURVE SMOOTH",
"328.3 491.073 OFFCURVE",
"272.583 543.567 OFFCURVE"
);
},
{
closed = 1;
nodes = (
"33 235 CURVE SMOOTH",
"33 371.177 OFFCURVE",
"102.646 446.538 OFFCURVE",
"179 446.538 CURVE SMOOTH",
"197.904 446.538 OFFCURVE",
"216.248 441.8 OFFCURVE",
"236 432 CURVE",
"220 400 LINE",
"205.792 407.104 OFFCURVE",
"192.598 410.538 OFFCURVE",
"179 410.538 CURVE SMOOTH",
"119.861 410.538 OFFCURVE",
"70 345.575 OFFCURVE",
"70 235 CURVE SMOOTH",
"70 145.521 OFFCURVE",
"119.592 40 OFFCURVE",
"242 40 CURVE SMOOTH",
"380.182 40 OFFCURVE",
"455.166 150.386 OFFCURVE",
"455.166 342 CURVE SMOOTH",
"455.166 410.759 OFFCURVE",
"450.932 471.187 OFFCURVE",
"440.04 524 CURVE",
"418.862 608.981 OFFCURVE",
"385.83 674.718 OFFCURVE",
"346.001 724 CURVE",
"328.376 745.808 OFFCURVE",
"309.42 764.394 OFFCURVE",
"289.571 780 CURVE",
"312.571 807 LINE",
"431.58 715.402 OFFCURVE",
"492.166 562.866 OFFCURVE",
"492.166 342 CURVE SMOOTH",
"492.166 126.91 OFFCURVE",
"404.166 3 OFFCURVE",
"242 3 CURVE SMOOTH",
"93.26 3 OFFCURVE",
"33 128.544 OFFCURVE"
);
}
);
width = 525;
}
);
unicode = 0DAE;
},
{
glyphname = si_Tta;
layers = (
{
layerId = "AFC4C3A3-2D14-4C11-872C-451CCFDE8196";
name = Light;
paths = (
{
closed = 1;
nodes = (
"33 235 CURVE SMOOTH",
"33 371.177 OFFCURVE",
"102.646 446.538 OFFCURVE",
"179 446.538 CURVE SMOOTH",
"197.904 446.538 OFFCURVE",
"216.248 441.8 OFFCURVE",
"236 432 CURVE",
"220 400 LINE",
"205.792 407.104 OFFCURVE",
"192.598 410.538 OFFCURVE",
"179 410.538 CURVE SMOOTH",
"119.861 410.538 OFFCURVE",
"70 345.575 OFFCURVE",
"70 235 CURVE SMOOTH",
"70 145.521 OFFCURVE",
"119.592 40 OFFCURVE",
"242 40 CURVE SMOOTH",
"369.865 40 OFFCURVE",
"443 150.519 OFFCURVE",
"443 354 CURVE SMOOTH",
"443 634.015 OFFCURVE",
"352.223 712 OFFCURVE",
"241 712 CURVE SMOOTH",
"170.128 712 OFFCURVE",
"112.324 665.927 OFFCURVE",
"89 605 CURVE",
"55 618 LINE",
"93 716 OFFCURVE",
"180.968 749 OFFCURVE",
"241 749 CURVE SMOOTH",
"373.146 749 OFFCURVE",
"481 662.955 OFFCURVE",
"481 354 CURVE SMOOTH",
"481 126.541 OFFCURVE",
"394.039 3 OFFCURVE",
"242 3 CURVE SMOOTH",
"93.26 3 OFFCURVE",
"33 128.544 OFFCURVE"
);
}
);
width = 514;
}
);
unicode = 0DA7;
},
{
glyphname = si_Ttha;
layers = (
{
layerId = "AFC4C3A3-2D14-4C11-872C-451CCFDE8196";
name = Light;
paths = (
{
closed = 1;
nodes = (
"302.402 603 CURVE SMOOTH",
"302.402 667.298 OFFCURVE",
"344.886 706.649 OFFCURVE",
"344.886 740.685 CURVE SMOOTH",
"344.886 754.219 OFFCURVE",
"338.168 766.912 OFFCURVE",
"319.391 780 CURVE",
"319.391 780 OFFCURVE",
"383 761 OFFCURVE",
"383 761 CURVE",
"380.655 749.59 OFFCURVE",
"377.1 726.29 OFFCURVE",
"377.1 726.29 CURVE",
"377.1 693.053 OFFCURVE",
"338.391 661.163 OFFCURVE",
"338.391 603 CURVE SMOOTH",
"338.391 561.562 OFFCURVE",
"380.137 524.959 OFFCURVE",
"443.359 524.959 CURVE SMOOTH",
"451.816 524.959 OFFCURVE",
"460.657 525.614 OFFCURVE",
"469.834 527 CURVE",
"493 522 LINE",
"477.834 494 LINE",
"465.586 492.013 OFFCURVE",
"453.787 491.073 OFFCURVE",
"442.5 491.073 CURVE SMOOTH",
"358.119 491.073 OFFCURVE",
"302.402 543.567 OFFCURVE"
);
},
{
closed = 1;
nodes = (
"33 214 CURVE SMOOTH",
"33 266.264 OFFCURVE",
"43.971 312.662 OFFCURVE",
"62.107 350 CURVE SMOOTH",
"91.228 409.948 OFFCURVE",
"138.82 446.538 OFFCURVE",
"189.138 446.538 CURVE SMOOTH",
"208.042 446.538 OFFCURVE",
"226.386 441.8 OFFCURVE",
"246.138 432 CURVE",
"230.138 400 LINE",
"215.93 407.104 OFFCURVE",
"202.735 410.538 OFFCURVE",
"189.138 410.538 CURVE SMOOTH",
"150.367 410.538 OFFCURVE",
"115.245 379.613 OFFCURVE",
"93.343 331 CURVE SMOOTH",
"78.729 298.563 OFFCURVE",
"70 258.253 OFFCURVE",
"70 214 CURVE SMOOTH",
"70 130.796 OFFCURVE",
"92.393 40 OFFCURVE",
"159.834 40 CURVE SMOOTH",
"251 40 OFFCURVE",
"257.592 148.886 OFFCURVE",
"260.834 224.5 CURVE",
"294.834 224.5 LINE",
"298.076 148.886 OFFCURVE",
"304.668 40 OFFCURVE",
"395.834 40 CURVE SMOOTH",
"488.567 40 OFFCURVE",
"495.391 164 OFFCURVE",
"495.391 293 CURVE SMOOTH",
"495.391 382.184 OFFCURVE",
"486.118 458.763 OFFCURVE",
"469.859 524 CURVE",
"448.682 608.981 OFFCURVE",
"415.649 674.718 OFFCURVE",
"375.82 724 CURVE",
"358.195 745.808 OFFCURVE",
"339.239 764.394 OFFCURVE",
"319.391 780 CURVE",
"342.391 807 LINE",
"404.94 758.919 OFFCURVE",
"459.276 684.035 OFFCURVE",
"493.634 576 CURVE SMOOTH",
"518.062 499.187 OFFCURVE",
"532.391 405.613 OFFCURVE",
"532.391 293 CURVE SMOOTH",
"532.391 145.135 OFFCURVE",
"523.031 3 OFFCURVE",
"395.834 3 CURVE SMOOTH",
"300.668 3 OFFCURVE",
"281.668 85 OFFCURVE",
"277.834 115 CURVE",
"274 85 OFFCURVE",
"255 3 OFFCURVE",
"159.834 3 CURVE SMOOTH",
"61.839 3 OFFCURVE",
"33 115.606 OFFCURVE"
);
}
);
width = 565;
}
);
unicode = 0DA8;
},
{
glyphname = si_U;
layers = (
{
layerId = "AFC4C3A3-2D14-4C11-872C-451CCFDE8196";
name = Light;
paths = (
{
closed = 1;
nodes = (
"33 132.999 CURVE SMOOTH",
"33 327 OFFCURVE",
"156.295 411 OFFCURVE",
"280.24 411 CURVE SMOOTH",
"304.521 411 OFFCURVE",
"352.295 411 OFFCURVE",
"376.097 411 CURVE",
"378.097 422 OFFCURVE",
"381.295 438.288 OFFCURVE",
"381.295 454 CURVE SMOOTH",
"381.295 524.746 OFFCURVE",
"339.213 557 OFFCURVE",
"290.851 557 CURVE SMOOTH",
"250.466 557 OFFCURVE",
"208.018 530.043 OFFCURVE",
"208.018 474 CURVE SMOOTH",
"208.018 431.347 OFFCURVE",
"229.762 406.53 OFFCURVE",
"238.925 398 CURVE",
"215.018 376 LINE",
"203.018 387 OFFCURVE",
"174.542 419 OFFCURVE",
"174.542 474 CURVE SMOOTH",
"174.542 553 OFFCURVE",
"234.145 591 OFFCURVE",
"290.851 591 CURVE SMOOTH",
"355.407 591 OFFCURVE",
"415.295 548.099 OFFCURVE",
"415.295 454 CURVE SMOOTH",
"415.295 424.453 OFFCURVE",
"410.295 399.965 OFFCURVE",
"401.295 374 CURVE",
"401.295 374 OFFCURVE",
"323.295 374 OFFCURVE",
"280.24 374 CURVE SMOOTH",
"176.348 374 OFFCURVE",
"73 301.18 OFFCURVE",
"73 133 CURVE SMOOTH",
"73 8.267 OFFCURVE",
"134.573 -113 OFFCURVE",
"274 -113 CURVE SMOOTH",
"389.818 -113 OFFCURVE",
"451.86 -36.183 OFFCURVE",
"470 35 CURVE",
"507 29 LINE",
"485.436 -57.574 OFFCURVE",
"420 -151 OFFCURVE",
"274 -151 CURVE SMOOTH",
"106.826 -151 OFFCURVE",
"33 -11.002 OFFCURVE"
);
}
);
width = 540;
}
);
unicode = 0D8B;
},
{
glyphname = si_Va;
layers = (
{
layerId = "AFC4C3A3-2D14-4C11-872C-451CCFDE8196";
name = Light;
paths = (
{
closed = 1;
nodes = (
"33 219 CURVE SMOOTH",
"33 284.815 OFFCURVE",
"54.052 335.012 OFFCURVE",
"90.403 363 CURVE SMOOTH",
"111.493 379.237 OFFCURVE",
"137.733 388 OFFCURVE",
"168 388 CURVE SMOOTH",
"217 388 OFFCURVE",
"285 388 OFFCURVE",
"285 388 CURVE",
"304 354 LINE",
"168 354 LINE SMOOTH",
"105.041 354 OFFCURVE",
"69 298.873 OFFCURVE",
"69 219 CURVE SMOOTH",
"69 154.403 OFFCURVE",
"99.047 40 OFFCURVE",
"251 40 CURVE SMOOTH",
"378.865 40 OFFCURVE",
"452 150.519 OFFCURVE",
"452 354 CURVE SMOOTH",
"452 634.015 OFFCURVE",
"361.223 712 OFFCURVE",
"250 712 CURVE SMOOTH",
"179.128 712 OFFCURVE",
"121.324 665.927 OFFCURVE",
"98 605 CURVE",
"64 618 LINE",
"102 716 OFFCURVE",
"189.968 749 OFFCURVE",
"250 749 CURVE SMOOTH",
"382.146 749 OFFCURVE",
"490 662.955 OFFCURVE",
"490 354 CURVE SMOOTH",
"490 126.541 OFFCURVE",
"403.039 3 OFFCURVE",
"251 3 CURVE SMOOTH",
"68.99 3 OFFCURVE",
"33 141.051 OFFCURVE"
);
},
{
closed = 1;
nodes = (
"72 420 CURVE SMOOTH",
"72 488 OFFCURVE",
"123.344 524 OFFCURVE",
"182 524 CURVE SMOOTH",
"246.556 524 OFFCURVE",
"306.444 481.099 OFFCURVE",
"306.444 387 CURVE SMOOTH",
"306.444 375.04 OFFCURVE",
"305.559 364.262 OFFCURVE",
"304 354 CURVE",
"272.62 379 LINE",
"272.527 381.638 OFFCURVE",
"272.444 384.229 OFFCURVE",
"272.444 387 CURVE SMOOTH",
"272.444 457.746 OFFCURVE",
"230.362 490 OFFCURVE",
"182 490 CURVE SMOOTH",
"140.043 490 OFFCURVE",
"105.476 467 OFFCURVE",
"105.476 420 CURVE SMOOTH",
"105.476 395.6 OFFCURVE",
"115 376 OFFCURVE",
"128 364 CURVE SMOOTH",
"103.818 344 LINE SMOOTH",
"88 358 OFFCURVE",
"72 388.023 OFFCURVE"
);
}
);
width = 523;
}
);
unicode = 0DC0;
},
{
glyphname = si_Ya;
layers = (
{
layerId = "AFC4C3A3-2D14-4C11-872C-451CCFDE8196";
name = Light;
paths = (
{
closed = 1;
nodes = (
"268.978 454 CURVE SMOOTH",
"268.978 466.186 OFFCURVE",
"269.982 477.513 OFFCURVE",
"271.872 488 CURVE SMOOTH",
"284.568 558.491 OFFCURVE",
"337.227 591 OFFCURVE",
"393.423 591 CURVE SMOOTH",
"450.129 591 OFFCURVE",
"509.731 553 OFFCURVE",
"509.731 474 CURVE SMOOTH",
"509.731 429.732 OFFCURVE",
"489.414 385.565 OFFCURVE",
"457.867 361 CURVE",
"431.867 382 LINE",
"458.867 402 OFFCURVE",
"476.256 437.959 OFFCURVE",
"476.256 474 CURVE SMOOTH",
"476.256 530.043 OFFCURVE",
"433.808 557 OFFCURVE",
"393.423 557 CURVE SMOOTH",
"345.061 557 OFFCURVE",
"302.979 524.746 OFFCURVE",
"302.979 454 CURVE SMOOTH",
"302.979 435.438 OFFCURVE",
"306.766 419.017 OFFCURVE",
"311.42 404 CURVE",
"285.979 369 LINE",
"276.262 397.663 OFFCURVE",
"268.978 421.384 OFFCURVE"
);
},
{
closed = 1;
nodes = (
"33 239 CURVE SMOOTH",
"33 423.128 OFFCURVE",
"120.361 485.354 OFFCURVE",
"200.145 485.354 CURVE SMOOTH",
"238.407 485.354 OFFCURVE",
"274.187 471.041 OFFCURVE",
"299.145 449 CURVE",
"274.145 424 LINE",
"256.646 438.365 OFFCURVE",
"228.909 448.354 OFFCURVE",
"200.145 448.354 CURVE SMOOTH",
"138.619 448.354 OFFCURVE",
"70 398.524 OFFCURVE",
"70 239 CURVE SMOOTH",
"70 127.142 OFFCURVE",
"91.155 40 OFFCURVE",
"167.979 40 CURVE SMOOTH",
"259.145 40 OFFCURVE",
"265.736 148.886 OFFCURVE",
"268.979 224.5 CURVE",
"302.979 224.5 LINE",
"306.221 148.886 OFFCURVE",
"312.812 40 OFFCURVE",
"403.979 40 CURVE SMOOTH",
"470.003 40 OFFCURVE",
"501.957 107.481 OFFCURVE",
"501.957 194.103 CURVE SMOOTH",
"501.957 252 OFFCURVE",
"490.827 369 OFFCURVE",
"406.979 369 CURVE SMOOTH",
"285.979 369 LINE",
"278.145 405 LINE",
"313.145 405 LINE",
"408.828 405 LINE SMOOTH",
"439.001 405 OFFCURVE",
"462.572 394.708 OFFCURVE",
"480.847 378 CURVE SMOOTH",
"526.257 336.482 OFFCURVE",
"538.957 255.352 OFFCURVE",
"538.957 194.103 CURVE SMOOTH",
"538.957 86.684 OFFCURVE",
"494.936 3 OFFCURVE",
"403.979 3 CURVE SMOOTH",
"308.812 3 OFFCURVE",
"289.812 85 OFFCURVE",
"285.979 115 CURVE",
"282.145 85 OFFCURVE",
"263.145 3 OFFCURVE",
"167.979 3 CURVE SMOOTH",
"62.145 3 OFFCURVE",
"33 106.344 OFFCURVE"
);
}
);
width = 571;
}
);
unicode = 0DBA;
},
{
glyphname = si_vocalicL;
layers = (
{
layerId = "AFC4C3A3-2D14-4C11-872C-451CCFDE8196";
name = Light;
paths = (
{
closed = 1;
nodes = (
"658.359 95.13 CURVE SMOOTH",
"658.359 64.166 OFFCURVE",
"683.1 38.567 OFFCURVE",
"714.359 38.567 CURVE SMOOTH",
"745.641 38.567 OFFCURVE",
"770.359 64.172 OFFCURVE",
"770.359 95.13 CURVE SMOOTH",
"770.359 126.093 OFFCURVE",
"745.62 151.692 OFFCURVE",
"714.359 151.692 CURVE SMOOTH",
"683.077 151.692 OFFCURVE",
"658.359 126.087 OFFCURVE"
);
},
{
closed = 1;
nodes = (
"622.837 94.938 CURVE SMOOTH",
"622.837 145.557 OFFCURVE",
"664.157 185.845 OFFCURVE",
"714.775 185.845 CURVE SMOOTH",
"765.394 185.845 OFFCURVE",
"805.682 145.557 OFFCURVE",
"805.682 94.938 CURVE SMOOTH",
"805.682 44.32 OFFCURVE",
"765.394 3 OFFCURVE",
"714.775 3 CURVE SMOOTH",
"664.157 3 OFFCURVE",
"622.837 44.32 OFFCURVE"
);
},
{
closed = 1;
nodes = (
"790.888 284.562 CURVE SMOOTH",
"790.888 447.648 OFFCURVE",
"759.854 542.562 OFFCURVE",
"710.888 542.562 CURVE SMOOTH",
"679.786 542.562 OFFCURVE",
"655.538 522.221 OFFCURVE",
"654.196 474.563 CURVE",
"620.721 474.563 LINE",
"620.721 534.562 OFFCURVE",
"649.882 579.562 OFFCURVE",
"710.888 579.562 CURVE SMOOTH",
"767.63 579.562 OFFCURVE",
"827.888 517.552 OFFCURVE",
"827.888 284.562 CURVE SMOOTH",
"827.888 86.294 OFFCURVE",
"804.359 3 OFFCURVE",
"714.775 3 CURVE",
"714.359 38.567 LINE",
"753.256 38.567 OFFCURVE",
"778.359 60 OFFCURVE",
"779.359 123 CURVE",
"786.705 163.746 OFFCURVE",
"790.888 215.385 OFFCURVE"
);
},
{
closed = 1;
nodes = (
"413.443 454 CURVE SMOOTH",
"413.443 466.186 OFFCURVE",
"414.448 477.513 OFFCURVE",
"416.338 488 CURVE SMOOTH",
"429.034 558.491 OFFCURVE",
"481.692 591 OFFCURVE",
"537.889 591 CURVE SMOOTH",
"594.595 591 OFFCURVE",
"654.197 553 OFFCURVE",
"654.197 474 CURVE SMOOTH",
"654.197 429.732 OFFCURVE",
"633.88 385.565 OFFCURVE",
"602.333 361 CURVE",
"576.333 382 LINE",
"603.333 402 OFFCURVE",
"620.722 437.959 OFFCURVE",
"620.722 474 CURVE SMOOTH",
"620.722 530.043 OFFCURVE",
"578.273 557 OFFCURVE",
"537.889 557 CURVE SMOOTH",
"489.526 557 OFFCURVE",
"447.444 524.746 OFFCURVE",
"447.444 454 CURVE SMOOTH",
"447.444 435 OFFCURVE",
"447.444 416 OFFCURVE",
"447.444 402 CURVE",
"430.444 369 LINE",
"420.728 397.663 OFFCURVE",
"413.443 421.384 OFFCURVE"
);
},
{
closed = 1;
nodes = (
"211.611 224.437 CURVE SMOOTH",
"211.611 107.242 OFFCURVE",
"297.636 30 OFFCURVE",
"430.445 30 CURVE SMOOTH",
"563.255 30 OFFCURVE",
"649.279 107.242 OFFCURVE",
"649.279 224.437 CURVE SMOOTH",
"649.279 299.844 OFFCURVE",
"610.803 365 OFFCURVE",
"526.611 365 CURVE SMOOTH",
"334.279 365 LINE SMOOTH",
"250.088 365 OFFCURVE",
"211.611 299.844 OFFCURVE"
);
},
{
closed = 1;
nodes = (
"174.611 224.437 CURVE SMOOTH",
"174.611 319.693 OFFCURVE",
"228 402 OFFCURVE",
"334.279 402 CURVE SMOOTH",
"526.611 402 LINE SMOOTH",
"633 402 OFFCURVE",
"686.279 319.693 OFFCURVE",
"686.279 224.437 CURVE SMOOTH",
"686.279 189.749 OFFCURVE",
"680.075 158.002 OFFCURVE",
"668.362 129.878 CURVE",
"664.415 125.641 OFFCURVE",
"661.334 121.161 OFFCURVE",
"659.402 116 CURVE SMOOTH",
"658.397 113.315 OFFCURVE",
"657.704 110.447 OFFCURVE",
"657.362 107.332 CURVE",
"616.98 35.812 OFFCURVE",
"536.56 -7 OFFCURVE",
"430.445 -7 CURVE SMOOTH",
"324.331 -7 OFFCURVE",
"243.91 35.812 OFFCURVE",
"203.528 107.332 CURVE",
"203.187 110.447 OFFCURVE",
"202.493 113.315 OFFCURVE",
"201.488 116 CURVE SMOOTH",
"199.557 121.161 OFFCURVE",
"196.476 125.641 OFFCURVE",
"192.528 129.878 CURVE",
"180.815 158.002 OFFCURVE",
"174.611 189.749 OFFCURVE"
);
},
{
closed = 1;
nodes = (
"206.69 474 CURVE SMOOTH",
"206.69 553 OFFCURVE",
"266.293 591 OFFCURVE",
"322.999 591 CURVE SMOOTH",
"379.195 591 OFFCURVE",
"431.857 558.491 OFFCURVE",
"444.551 488 CURVE SMOOTH",
"446.439 477.514 OFFCURVE",
"447.443 466.186 OFFCURVE",
"447.443 454 CURVE SMOOTH",
"447.443 421.384 OFFCURVE",
"440.159 397.663 OFFCURVE",
"430.443 369 CURVE",
"413.443 402 LINE",
"413.443 416 OFFCURVE",
"413.443 435 OFFCURVE",
"413.443 454 CURVE SMOOTH",
"413.443 524.746 OFFCURVE",
"371.361 557 OFFCURVE",
"322.999 557 CURVE SMOOTH",
"282.614 557 OFFCURVE",
"240.166 530.043 OFFCURVE",
"240.166 474 CURVE SMOOTH",
"240.166 437.959 OFFCURVE",
"257.555 402 OFFCURVE",
"284.555 382 CURVE",
"258.555 361 LINE",
"227.008 385.565 OFFCURVE",
"206.69 429.732 OFFCURVE"
);
},
{
closed = 1;
nodes = (
"33 284.562 CURVE SMOOTH",
"33 517.552 OFFCURVE",
"93.258 579.562 OFFCURVE",
"150 579.562 CURVE SMOOTH",
"211.006 579.562 OFFCURVE",
"240.167 534.562 OFFCURVE",
"240.167 474.563 CURVE",
"206.691 474.563 LINE",
"205.35 522.221 OFFCURVE",
"181.102 542.562 OFFCURVE",
"150 542.562 CURVE SMOOTH",
"101.033 542.562 OFFCURVE",
"70 447.648 OFFCURVE",
"70 284.562 CURVE SMOOTH",
"70 215.385 OFFCURVE",
"74.183 163.746 OFFCURVE",
"81.528 123 CURVE",
"82.528 60 OFFCURVE",
"107.632 38.567 OFFCURVE",
"146.528 38.567 CURVE",
"146.112 3 LINE",
"56.528 3 OFFCURVE",
"33 86.294 OFFCURVE"
);
},
{
closed = 1;
nodes = (
"90.528 95.13 CURVE SMOOTH",
"90.528 64.172 OFFCURVE",
"115.247 38.567 OFFCURVE",
"146.528 38.567 CURVE SMOOTH",
"177.788 38.567 OFFCURVE",
"202.528 64.166 OFFCURVE",
"202.528 95.13 CURVE SMOOTH",
"202.528 126.087 OFFCURVE",
"177.811 151.692 OFFCURVE",
"146.528 151.692 CURVE SMOOTH",
"115.268 151.692 OFFCURVE",
"90.528 126.093 OFFCURVE"
);
},
{
closed = 1;
nodes = (
"55.206 94.938 CURVE SMOOTH",
"55.206 145.557 OFFCURVE",
"95.494 185.845 OFFCURVE",
"146.112 185.845 CURVE SMOOTH",
"196.73 185.845 OFFCURVE",
"238.051 145.557 OFFCURVE",
"238.051 94.938 CURVE SMOOTH",
"238.051 44.32 OFFCURVE",
"196.73 3 OFFCURVE",
"146.112 3 CURVE SMOOTH",
"95.494 3 OFFCURVE",
"55.206 44.32 OFFCURVE"
);
}
);
width = 860;
}
);
unicode = 0D8F;
},
{
glyphname = si_vocalicR;
layers = (
{
layerId = "AFC4C3A3-2D14-4C11-872C-451CCFDE8196";
name = Light;
paths = (
{
closed = 1;
nodes = (
"578 144 CURVE SMOOTH",
"578 221.254 OFFCURVE",
"618.66 283.912 OFFCURVE",
"682.996 283.912 CURVE SMOOTH",
"717.48 283.912 OFFCURVE",
"747.903 271.368 OFFCURVE",
"764 250 CURVE",
"757 214 LINE",
"733.396 241.635 OFFCURVE",
"708.188 248.33 OFFCURVE",
"689.398 248.33 CURVE SMOOTH",
"639.921 248.33 OFFCURVE",
"615 198.199 OFFCURVE",
"615 144 CURVE SMOOTH",
"615 81.143 OFFCURVE",
"634 44 OFFCURVE",
"678 44 CURVE SMOOTH",
"696.885 44 OFFCURVE",
"730.631 58.86 OFFCURVE",
"753.901 58.86 CURVE SMOOTH",
"760.204 58.86 OFFCURVE",
"765.737 57.771 OFFCURVE",
"770 55 CURVE",
"792 6 LINE",
"781.333 21 OFFCURVE",
"770.777 26 OFFCURVE",
"759.296 26 CURVE SMOOTH",
"736.333 26 OFFCURVE",
"709.667 6 OFFCURVE",
"671 6 CURVE SMOOTH",
"596 6 OFFCURVE",
"578 92.902 OFFCURVE"
);
},
{
closed = 1;
nodes = (
"586 371 LINE",
"584.666 385.076 OFFCURVE",
"583.903 394.645 OFFCURVE",
"583.903 408 CURVE SMOOTH",
"583.903 484.782 OFFCURVE",
"609.113 550 OFFCURVE",
"696 550 CURVE SMOOTH",
"765.701 550 OFFCURVE",
"805.628 505.243 OFFCURVE",
"805.628 402 CURVE SMOOTH",
"805.628 290.009 OFFCURVE",
"790.31 209.969 OFFCURVE",
"790.31 144.819 CURVE SMOOTH",
"790.31 100.021 OFFCURVE",
"797.553 62.264 OFFCURVE",
"822 26 CURVE",
"792 6 LINE",
"759.903 50.735 OFFCURVE",
"750.566 94.213 OFFCURVE",
"750.566 143.508 CURVE SMOOTH",
"750.566 212.071 OFFCURVE",
"768.628 291.889 OFFCURVE",
"768.628 402 CURVE SMOOTH",
"768.628 479.433 OFFCURVE",
"742.177 513 OFFCURVE",
"696 513 CURVE SMOOTH",
"638.339 513 OFFCURVE",
"621.608 464.774 OFFCURVE",
"621.608 408 CURVE SMOOTH",
"621.608 397.405 OFFCURVE",
"622.115 382.166 OFFCURVE",
"623 371 CURVE"
);
},
{
closed = 1;
nodes = (
"268.978 454 CURVE SMOOTH",
"268.978 466.186 OFFCURVE",
"269.983 477.513 OFFCURVE",
"271.872 488 CURVE SMOOTH",
"284.568 558.491 OFFCURVE",
"337.227 591 OFFCURVE",
"393.423 591 CURVE SMOOTH",
"450.129 591 OFFCURVE",
"509.731 553 OFFCURVE",
"509.731 474 CURVE SMOOTH",
"509.731 429.732 OFFCURVE",
"489.414 385.565 OFFCURVE",
"457.867 361 CURVE",
"431.867 382 LINE",
"458.867 402 OFFCURVE",
"476.256 437.959 OFFCURVE",
"476.256 474 CURVE SMOOTH",
"476.256 530.043 OFFCURVE",
"433.808 557 OFFCURVE",
"393.423 557 CURVE SMOOTH",
"345.061 557 OFFCURVE",
"302.979 524.746 OFFCURVE",
"302.979 454 CURVE SMOOTH",
"302.979 435 OFFCURVE",
"302.979 416 OFFCURVE",
"302.979 402 CURVE",
"285.979 369 LINE",
"276.262 397.663 OFFCURVE",
"268.978 421.384 OFFCURVE"
);
},
{
closed = 1;
nodes = (
"70 194.103 CURVE SMOOTH",
"70 107.481 OFFCURVE",
"101.954 40 OFFCURVE",
"167.979 40 CURVE SMOOTH",
"259.145 40 OFFCURVE",
"265.736 148.886 OFFCURVE",
"268.979 224.5 CURVE",
"302.979 224.5 LINE",
"306.221 148.886 OFFCURVE",
"312.812 40 OFFCURVE",
"403.979 40 CURVE SMOOTH",
"470.003 40 OFFCURVE",
"501.957 107.481 OFFCURVE",
"501.957 194.103 CURVE SMOOTH",
"501.957 252 OFFCURVE",
"491.145 369 OFFCURVE",
"406.979 369 CURVE SMOOTH",
"164.979 369 LINE SMOOTH",
"81.13 369 OFFCURVE",
"70 252 OFFCURVE"
);
},
{
closed = 1;
nodes = (
"33 194.103 CURVE SMOOTH",
"33 255.352 OFFCURVE",
"45.7 336.482 OFFCURVE",
"91.11 378 CURVE SMOOTH",
"109.385 394.708 OFFCURVE",
"133.145 405 OFFCURVE",
"163.129 405 CURVE SMOOTH",
"408.828 405 LINE SMOOTH",
"439.145 405 OFFCURVE",
"462.572 394.708 OFFCURVE",
"480.847 378 CURVE SMOOTH",
"526.257 336.482 OFFCURVE",
"538.957 255.352 OFFCURVE",
"538.957 194.103 CURVE SMOOTH",
"538.957 86.684 OFFCURVE",
"494.936 3 OFFCURVE",
"403.979 3 CURVE SMOOTH",
"308.812 3 OFFCURVE",
"289.812 85 OFFCURVE",
"285.979 115 CURVE",
"282.145 85 OFFCURVE",
"263.145 3 OFFCURVE",
"167.979 3 CURVE SMOOTH",
"77.021 3 OFFCURVE",
"33 86.684 OFFCURVE"
);
},
{
closed = 1;
nodes = (
"62.225 474 CURVE SMOOTH",
"62.225 553 OFFCURVE",
"121.827 591 OFFCURVE",
"178.533 591 CURVE SMOOTH",
"234.729 591 OFFCURVE",
"287.389 558.491 OFFCURVE",
"300.085 488 CURVE SMOOTH",
"301.974 477.514 OFFCURVE",
"302.978 466.186 OFFCURVE",
"302.978 454 CURVE SMOOTH",
"302.978 421.384 OFFCURVE",
"295.693 397.663 OFFCURVE",
"285.978 369 CURVE",
"268.978 402 LINE",
"268.978 416 OFFCURVE",
"268.978 435 OFFCURVE",
"268.978 454 CURVE SMOOTH",
"268.978 524.746 OFFCURVE",
"226.896 557 OFFCURVE",
"178.533 557 CURVE SMOOTH",
"138.148 557 OFFCURVE",
"95.7 530.043 OFFCURVE",
"95.7 474 CURVE SMOOTH",
"95.7 437.959 OFFCURVE",
"113.089 402 OFFCURVE",
"140.089 382 CURVE",
"114.089 361 LINE",
"82.542 385.565 OFFCURVE",
"62.225 429.732 OFFCURVE"
);
}
);
width = 855;
}
);
unicode = 0D8D;
},
{
glyphname = si_vocalicRr;
layers = (
{
layerId = "AFC4C3A3-2D14-4C11-872C-451CCFDE8196";
name = Light;
paths = (
{
closed = 1;
nodes = (
"848 144 CURVE SMOOTH",
"848 221.254 OFFCURVE",
"888.66 283.912 OFFCURVE",
"952.996 283.912 CURVE SMOOTH",
"987.48 283.912 OFFCURVE",
"1017.9 271.368 OFFCURVE",
"1034 250 CURVE",
"1027 214 LINE",
"1003.4 241.635 OFFCURVE",
"978.188 248.33 OFFCURVE",
"959.398 248.33 CURVE SMOOTH",
"909.921 248.33 OFFCURVE",
"885 198.199 OFFCURVE",
"885 144 CURVE SMOOTH",
"885 81.143 OFFCURVE",
"904 44 OFFCURVE",
"948 44 CURVE SMOOTH",
"966.885 44 OFFCURVE",
"1000.63 58.86 OFFCURVE",
"1023.9 58.86 CURVE SMOOTH",
"1030.2 58.86 OFFCURVE",
"1035.74 57.771 OFFCURVE",
"1040 55 CURVE",
"1062 6 LINE",
"1051.33 21 OFFCURVE",
"1040.78 26 OFFCURVE",
"1029.3 26 CURVE SMOOTH",
"1006.33 26 OFFCURVE",
"979.667 6 OFFCURVE",
"941 6 CURVE SMOOTH",
"866 6 OFFCURVE",
"848 92.902 OFFCURVE"
);
},
{
closed = 1;
nodes = (
"856 371 LINE",
"854.666 385.076 OFFCURVE",
"853.903 394.645 OFFCURVE",
"853.903 408 CURVE SMOOTH",
"853.903 484.782 OFFCURVE",
"879.113 550 OFFCURVE",
"966 550 CURVE SMOOTH",
"1035.7 550 OFFCURVE",
"1075.63 505.243 OFFCURVE",
"1075.63 402 CURVE SMOOTH",
"1075.63 290.009 OFFCURVE",
"1060.31 209.969 OFFCURVE",
"1060.31 144.819 CURVE SMOOTH",
"1060.31 100.021 OFFCURVE",
"1067.55 62.264 OFFCURVE",
"1092 26 CURVE",
"1062 6 LINE",
"1029.9 50.735 OFFCURVE",
"1020.57 94.213 OFFCURVE",
"1020.57 143.508 CURVE SMOOTH",
"1020.57 212.071 OFFCURVE",
"1038.63 291.889 OFFCURVE",
"1038.63 402 CURVE SMOOTH",
"1038.63 479.433 OFFCURVE",
"1012.18 513 OFFCURVE",
"966 513 CURVE SMOOTH",
"908.339 513 OFFCURVE",
"891.608 464.774 OFFCURVE",
"891.608 408 CURVE SMOOTH",
"891.608 397.405 OFFCURVE",
"892.115 382.166 OFFCURVE",
"893 371 CURVE"
);
},
{
closed = 1;
nodes = (
"578 144 CURVE SMOOTH",
"578 221.254 OFFCURVE",
"618.66 283.912 OFFCURVE",
"682.996 283.912 CURVE SMOOTH",
"717.48 283.912 OFFCURVE",
"747.903 271.368 OFFCURVE",
"764 250 CURVE",
"757 214 LINE",
"733.396 241.635 OFFCURVE",
"708.188 248.33 OFFCURVE",
"689.398 248.33 CURVE SMOOTH",
"639.921 248.33 OFFCURVE",
"615 198.199 OFFCURVE",
"615 144 CURVE SMOOTH",
"615 81.143 OFFCURVE",
"634 44 OFFCURVE",
"678 44 CURVE SMOOTH",
"696.885 44 OFFCURVE",
"730.631 58.86 OFFCURVE",
"753.901 58.86 CURVE SMOOTH",
"760.204 58.86 OFFCURVE",
"765.737 57.771 OFFCURVE",
"770 55 CURVE",
"792 6 LINE",
"781.333 21 OFFCURVE",
"770.777 26 OFFCURVE",
"759.296 26 CURVE SMOOTH",
"736.333 26 OFFCURVE",
"709.667 6 OFFCURVE",
"671 6 CURVE SMOOTH",
"596 6 OFFCURVE",
"578 92.902 OFFCURVE"
);
},
{
closed = 1;
nodes = (
"586 371 LINE",
"584.666 385.076 OFFCURVE",
"583.903 394.645 OFFCURVE",
"583.903 408 CURVE SMOOTH",
"583.903 484.782 OFFCURVE",
"609.113 550 OFFCURVE",
"696 550 CURVE SMOOTH",
"765.701 550 OFFCURVE",
"805.628 505.243 OFFCURVE",
"805.628 402 CURVE SMOOTH",
"805.628 290.009 OFFCURVE",
"790.31 209.969 OFFCURVE",
"790.31 144.819 CURVE SMOOTH",
"790.31 100.021 OFFCURVE",
"797.553 62.264 OFFCURVE",
"822 26 CURVE",
"792 6 LINE",
"759.903 50.735 OFFCURVE",
"750.566 94.213 OFFCURVE",
"750.566 143.508 CURVE SMOOTH",
"750.566 212.071 OFFCURVE",
"768.628 291.889 OFFCURVE",
"768.628 402 CURVE SMOOTH",
"768.628 479.433 OFFCURVE",
"742.177 513 OFFCURVE",
"696 513 CURVE SMOOTH",
"638.339 513 OFFCURVE",
"621.608 464.774 OFFCURVE",
"621.608 408 CURVE SMOOTH",
"621.608 397.405 OFFCURVE",
"622.115 382.166 OFFCURVE",
"623 371 CURVE"
);
},
{
closed = 1;
nodes = (
"268.978 454 CURVE SMOOTH",
"268.978 466.186 OFFCURVE",
"269.983 477.513 OFFCURVE",
"271.872 488 CURVE SMOOTH",
"284.568 558.491 OFFCURVE",
"337.227 591 OFFCURVE",
"393.423 591 CURVE SMOOTH",
"450.129 591 OFFCURVE",
"509.731 553 OFFCURVE",
"509.731 474 CURVE SMOOTH",
"509.731 429.732 OFFCURVE",
"489.414 385.565 OFFCURVE",
"457.867 361 CURVE",
"431.867 382 LINE",
"458.867 402 OFFCURVE",
"476.256 437.959 OFFCURVE",
"476.256 474 CURVE SMOOTH",
"476.256 530.043 OFFCURVE",
"433.808 557 OFFCURVE",
"393.423 557 CURVE SMOOTH",
"345.061 557 OFFCURVE",
"302.979 524.746 OFFCURVE",
"302.979 454 CURVE SMOOTH",
"302.979 435 OFFCURVE",
"302.979 416 OFFCURVE",
"302.979 402 CURVE",
"285.979 369 LINE",
"276.262 397.663 OFFCURVE",
"268.978 421.384 OFFCURVE"
);
},
{
closed = 1;
nodes = (
"70 194.103 CURVE SMOOTH",
"70 107.481 OFFCURVE",
"101.954 40 OFFCURVE",
"167.979 40 CURVE SMOOTH",
"259.145 40 OFFCURVE",
"265.736 148.886 OFFCURVE",
"268.979 224.5 CURVE",
"302.979 224.5 LINE",
"306.221 148.886 OFFCURVE",
"312.812 40 OFFCURVE",
"403.979 40 CURVE SMOOTH",
"470.003 40 OFFCURVE",
"501.957 107.481 OFFCURVE",
"501.957 194.103 CURVE SMOOTH",
"501.957 252 OFFCURVE",
"491.145 369 OFFCURVE",
"406.979 369 CURVE SMOOTH",
"164.979 369 LINE SMOOTH",
"81.13 369 OFFCURVE",
"70 252 OFFCURVE"
);
},
{
closed = 1;
nodes = (
"33 194.103 CURVE SMOOTH",
"33 255.352 OFFCURVE",
"45.7 336.482 OFFCURVE",
"91.11 378 CURVE SMOOTH",
"109.385 394.708 OFFCURVE",
"133.145 405 OFFCURVE",
"163.129 405 CURVE SMOOTH",
"408.828 405 LINE SMOOTH",
"439.145 405 OFFCURVE",
"462.572 394.708 OFFCURVE",
"480.847 378 CURVE SMOOTH",
"526.257 336.482 OFFCURVE",
"538.957 255.352 OFFCURVE",
"538.957 194.103 CURVE SMOOTH",
"538.957 86.684 OFFCURVE",
"494.936 3 OFFCURVE",
"403.979 3 CURVE SMOOTH",
"308.812 3 OFFCURVE",
"289.812 85 OFFCURVE",
"285.979 115 CURVE",
"282.145 85 OFFCURVE",
"263.145 3 OFFCURVE",
"167.979 3 CURVE SMOOTH",
"77.021 3 OFFCURVE",
"33 86.684 OFFCURVE"
);
},
{
closed = 1;
nodes = (
"62.225 474 CURVE SMOOTH",
"62.225 553 OFFCURVE",
"121.827 591 OFFCURVE",
"178.533 591 CURVE SMOOTH",
"234.729 591 OFFCURVE",
"287.389 558.491 OFFCURVE",
"300.085 488 CURVE SMOOTH",
"301.974 477.514 OFFCURVE",
"302.978 466.186 OFFCURVE",
"302.978 454 CURVE SMOOTH",
"302.978 421.384 OFFCURVE",
"295.693 397.663 OFFCURVE",
"285.978 369 CURVE",
"268.978 402 LINE",
"268.978 416 OFFCURVE",
"268.978 435 OFFCURVE",
"268.978 454 CURVE SMOOTH",
"268.978 524.746 OFFCURVE",
"226.896 557 OFFCURVE",
"178.533 557 CURVE SMOOTH",
"138.148 557 OFFCURVE",
"95.7 530.043 OFFCURVE",
"95.7 474 CURVE SMOOTH",
"95.7 437.959 OFFCURVE",
"113.089 402 OFFCURVE",
"140.089 382 CURVE",
"114.089 361 LINE",
"82.542 385.565 OFFCURVE",
"62.225 429.732 OFFCURVE"
);
}
);
width = 1125;
}
);
unicode = 0D8E;
},
{
glyphname = si_kundaliya;
layers = (
{
layerId = "AFC4C3A3-2D14-4C11-872C-451CCFDE8196";
name = Light;
paths = (
{
closed = 1;
nodes = (
"1562.86 102.406 CURVE SMOOTH",
"1562.86 113.277 OFFCURVE",
"1564.14 125.149 OFFCURVE",
"1566.81 138 CURVE SMOOTH",
"1600.95 302.001 LINE",
"1637.95 302.001 LINE",
"1604 138 LINE SMOOTH",
"1601.58 126.314 OFFCURVE",
"1600.45 116.023 OFFCURVE",
"1600.45 107.02 CURVE SMOOTH",
"1600.45 69.032 OFFCURVE",
"1620.5 54 OFFCURVE",
"1648 54 CURVE SMOOTH",
"1912 54 LINE SMOOTH",
"1939.77 54 OFFCURVE",
"1947.96 75.303 OFFCURVE",
"1947.96 101.931 CURVE SMOOTH",
"1947.96 117.207 OFFCURVE",
"1945.27 134.235 OFFCURVE",
"1942.03 150 CURVE",
"1978.02 154 LINE",
"1981.81 134.344 OFFCURVE",
"1984.75 114.056 OFFCURVE",
"1984.75 95.313 CURVE SMOOTH",
"1984.75 52.037 OFFCURVE",
"1969.07 17 OFFCURVE",
"1912 17 CURVE SMOOTH",
"1648 17 LINE SMOOTH",
"1596.71 17 OFFCURVE",
"1562.86 46.447 OFFCURVE"
);
},
{
closed = 1;
nodes = (
"1370 166.001 LINE",
"1395 175.001 LINE",
"1414.77 223.119 OFFCURVE",
"1584.78 233.929 OFFCURVE",
"1600.95 302.001 CURVE",
"1624.95 281.001 LINE",
"1588.95 239.001 LINE",
"1552.98 196.101 OFFCURVE",
"1402.75 184.001 OFFCURVE",
"1389 118 CURVE"
);
},
{
closed = 1;
nodes = (
"1352 115 LINE",
"1427 458 LINE",
"1464 458 LINE",
"1389 115 LINE"
);
},
{
closed = 1;
nodes = (
"1192 319 LINE",
"1217 328 LINE",
"1237.16 376.118 OFFCURVE",
"1410.51 386.928 OFFCURVE",
"1427 455 CURVE",
"1451 434 LINE",
"1415 392 LINE",
"1378.3 349.1 OFFCURVE",
"1225.03 337 OFFCURVE",
"1211 271 CURVE"
);
},
{
closed = 1;
nodes = (
"1161 208 LINE",
"1251 614 LINE",
"1288 614 LINE",
"1198 208 LINE"
);
},
{
closed = 1;
nodes = (
"1025 460 LINE",
"1050 469 LINE",
"1068.72 512.95 OFFCURVE",
"1229.69 522.824 OFFCURVE",
"1245 585 CURVE",
"1269 564 LINE",
"1233 522 LINE",
"1199 483 OFFCURVE",
"1057 472 OFFCURVE",
"1044 412 CURVE"
);
},
{
closed = 1;
nodes = (
"978 280 LINE",
"1067 683 LINE",
"1104 683 LINE",
"1015 280 LINE"
);
},
{
closed = 1;
nodes = (
"861 556 LINE",
"895 556 LINE",
"895 556 OFFCURVE",
"893 543.852 OFFCURVE",
"893 537.579 CURVE SMOOTH",
"893 505.707 OFFCURVE",
"1006.9 465.056 OFFCURVE",
"1014 437 CURVE",
"1030 403 LINE",
"997 362 LINE",
"999.023 369.856 OFFCURVE",
"1000 377.52 OFFCURVE",
"1000 385 CURVE SMOOTH",
"1000 434.167 OFFCURVE",
"888.896 466.176 OFFCURVE",
"876 500 CURVE"
);
},
{
closed = 1;
nodes = (
"778 194 LINE",
"861 566 LINE",
"898 566 LINE",
"815 194 LINE"
);
},
{
closed = 1;
nodes = (
"640 399 LINE",
"674 399 LINE",
"674 399 OFFCURVE",
"672 386.852 OFFCURVE",
"672 380.579 CURVE SMOOTH",
"672 349.024 OFFCURVE",
"790.604 308.777 OFFCURVE",
"798 281 CURVE",
"814 247 LINE",
"781 206 LINE",
"783.023 213.856 OFFCURVE",
"784 221.52 OFFCURVE",
"784 229 CURVE SMOOTH",
"784 277.739 OFFCURVE",
"668.416 309.471 OFFCURVE",
"655 343 CURVE"
);
},
{
closed = 1;
nodes = (
"563 62 LINE",
"639 405 LINE",
"676 405 LINE",
"600 62 LINE"
);
},
{
closed = 1;
nodes = (
"426 273 LINE",
"460 273 LINE",
"460 273 OFFCURVE",
"458 260.852 OFFCURVE",
"458 254.579 CURVE SMOOTH",
"458 223.024 OFFCURVE",
"576.604 182.777 OFFCURVE",
"584 155 CURVE",
"600 121 LINE",
"567 80 LINE",
"569.023 87.856 OFFCURVE",
"570 95.52 OFFCURVE",
"570 103 CURVE SMOOTH",
"570 151.739 OFFCURVE",
"454.416 183.471 OFFCURVE",
"441 217 CURVE"
);
},
{
closed = 1;
nodes = (
"33.205 81.312 CURVE SMOOTH",
"33.205 100.055 OFFCURVE",
"36.146 120.343 OFFCURVE",
"39.937 139.999 CURVE",
"75.923 135.999 LINE",
"72.688 120.234 OFFCURVE",
"69.995 103.206 OFFCURVE",
"69.995 87.93 CURVE SMOOTH",
"69.995 61.302 OFFCURVE",
"78.18 40 OFFCURVE",
"105.954 40 CURVE SMOOTH",
"279 40 LINE SMOOTH",
"368.165 40 OFFCURVE",
"390.902 100.795 OFFCURVE",
"404.814 175 CURVE SMOOTH",
"426 288 LINE",
"463 288 LINE",
"442 175 LINE SMOOTH",
"423.713 76.6 OFFCURVE",
"396.126 3 OFFCURVE",
"279 3 CURVE SMOOTH",
"105.954 3 LINE SMOOTH",
"48.882 3 OFFCURVE",
"33.205 38.036 OFFCURVE"
);
}
);
width = 40;
}
);
unicode = 0DF4;
},
{
glyphname = zwj;
layers = (
{
layerId = "AFC4C3A3-2D14-4C11-872C-451CCFDE8196";
name = Light;
paths = (
{
closed = 1;
nodes = (
"26 640 LINE",
"147 520 LINE",
"121 493 LINE",
"20 596 LINE",
"20 10 LINE",
"-20 10 LINE",
"-20 596 LINE",
"-121 493 LINE",
"-147 520 LINE",
"-26 640 LINE",
"-147 759 LINE",
"-121 784 LINE",
"0 663 LINE",
"121 784 LINE",
"147 759 LINE"
);
}
);
width = 0;
}
);
unicode = 200D;
},
{
glyphname = zwnj;
layers = (
{
layerId = "AFC4C3A3-2D14-4C11-872C-451CCFDE8196";
name = Light;
paths = (
{
closed = 1;
nodes = (
"-20 9 LINE",
"-20 743 LINE",
"20 743 LINE",
"20 9 LINE"
);
}
);
width = 0;
}
);
unicode = 200C;
},
{
glyphname = .notdef;
layers = (
{
layerId = "AFC4C3A3-2D14-4C11-872C-451CCFDE8196";
name = Light;
paths = (
{
closed = 1;
nodes = (
"110 551 LINE",
"110 42 LINE",
"444 42 LINE",
"444 551 LINE"
);
},
{
closed = 1;
nodes = (
"70 591 LINE",
"484 591 LINE",
"484 2 LINE",
"70 2 LINE"
);
}
);
width = 554;
}
);
},
{
glyphname = dottedcircle;
layers = (
{
layerId = "AFC4C3A3-2D14-4C11-872C-451CCFDE8196";
name = Light;
paths = (
{
closed = 1;
nodes = (
"67.788 165.87 CURVE SMOOTH",
"67.788 184.87 OFFCURVE",
"83.788 200.87 OFFCURVE",
"102.788 200.87 CURVE SMOOTH",
"121.788 200.87 OFFCURVE",
"137.788 184.87 OFFCURVE",
"137.788 165.87 CURVE SMOOTH",
"137.788 146.87 OFFCURVE",
"121.788 130.87 OFFCURVE",
"102.788 130.87 CURVE SMOOTH",
"83.788 130.87 OFFCURVE",
"67.788 146.87 OFFCURVE"
);
},
{
closed = 1;
nodes = (
"164.313 69.972 CURVE SMOOTH",
"164.313 88.972 OFFCURVE",
"180.313 104.972 OFFCURVE",
"199.313 104.972 CURVE SMOOTH",
"218.313 104.972 OFFCURVE",
"234.313 88.972 OFFCURVE",
"234.313 69.972 CURVE SMOOTH",
"234.313 50.972 OFFCURVE",
"218.313 34.972 OFFCURVE",
"199.313 34.972 CURVE SMOOTH",
"180.313 34.972 OFFCURVE",
"164.313 50.972 OFFCURVE"
);
},
{
closed = 1;
nodes = (
"522.212 165.87 CURVE SMOOTH",
"522.212 184.87 OFFCURVE",
"538.212 200.87 OFFCURVE",
"557.212 200.87 CURVE SMOOTH",
"576.212 200.87 OFFCURVE",
"592.212 184.87 OFFCURVE",
"592.212 165.87 CURVE SMOOTH",
"592.212 146.87 OFFCURVE",
"576.212 130.87 OFFCURVE",
"557.212 130.87 CURVE SMOOTH",
"538.212 130.87 OFFCURVE",
"522.212 146.87 OFFCURVE"
);
},
{
closed = 1;
nodes = (
"425.687 69.972 CURVE SMOOTH",
"425.687 88.972 OFFCURVE",
"441.687 104.972 OFFCURVE",
"460.687 104.972 CURVE SMOOTH",
"479.687 104.972 OFFCURVE",
"495.687 88.972 OFFCURVE",
"495.687 69.972 CURVE SMOOTH",
"495.687 50.972 OFFCURVE",
"479.687 34.972 OFFCURVE",
"460.687 34.972 CURVE SMOOTH",
"441.687 34.972 OFFCURVE",
"425.687 50.972 OFFCURVE"
);
},
{
closed = 1;
nodes = (
"67.788 428.13 CURVE SMOOTH",
"67.788 447.13 OFFCURVE",
"83.788 463.13 OFFCURVE",
"102.788 463.13 CURVE SMOOTH",
"121.788 463.13 OFFCURVE",
"137.788 447.13 OFFCURVE",
"137.788 428.13 CURVE SMOOTH",
"137.788 409.13 OFFCURVE",
"121.788 393.13 OFFCURVE",
"102.788 393.13 CURVE SMOOTH",
"83.788 393.13 OFFCURVE",
"67.788 409.13 OFFCURVE"
);
},
{
closed = 1;
nodes = (
"164.313 524.028 CURVE SMOOTH",
"164.313 543.028 OFFCURVE",
"180.313 559.028 OFFCURVE",
"199.313 559.028 CURVE SMOOTH",
"218.313 559.028 OFFCURVE",
"234.313 543.028 OFFCURVE",
"234.313 524.028 CURVE SMOOTH",
"234.313 505.028 OFFCURVE",
"218.313 489.028 OFFCURVE",
"199.313 489.028 CURVE SMOOTH",
"180.313 489.028 OFFCURVE",
"164.313 505.028 OFFCURVE"
);
},
{
closed = 1;
nodes = (
"522.212 428.13 CURVE SMOOTH",
"522.212 447.13 OFFCURVE",
"538.212 463.13 OFFCURVE",
"557.212 463.13 CURVE SMOOTH",
"576.212 463.13 OFFCURVE",
"592.212 447.13 OFFCURVE",
"592.212 428.13 CURVE SMOOTH",
"592.212 409.13 OFFCURVE",
"576.212 393.13 OFFCURVE",
"557.212 393.13 CURVE SMOOTH",
"538.212 393.13 OFFCURVE",
"522.212 409.13 OFFCURVE"
);
},
{
closed = 1;
nodes = (
"425.687 524.028 CURVE SMOOTH",
"425.687 543.028 OFFCURVE",
"441.687 559.028 OFFCURVE",
"460.687 559.028 CURVE SMOOTH",
"479.687 559.028 OFFCURVE",
"495.687 543.028 OFFCURVE",
"495.687 524.028 CURVE SMOOTH",
"495.687 505.028 OFFCURVE",
"479.687 489.028 OFFCURVE",
"460.687 489.028 CURVE SMOOTH",
"441.687 489.028 OFFCURVE",
"425.687 505.028 OFFCURVE"
);
},
{
closed = 1;
nodes = (
"33 297 CURVE SMOOTH",
"33 316 OFFCURVE",
"49 332 OFFCURVE",
"68 332 CURVE SMOOTH",
"87 332 OFFCURVE",
"103 316 OFFCURVE",
"103 297 CURVE SMOOTH",
"103 278 OFFCURVE",
"87 262 OFFCURVE",
"68 262 CURVE SMOOTH",
"49 262 OFFCURVE",
"33 278 OFFCURVE"
);
},
{
closed = 1;
nodes = (
"557 297 CURVE SMOOTH",
"557 316 OFFCURVE",
"573 332 OFFCURVE",
"592 332 CURVE SMOOTH",
"611 332 OFFCURVE",
"627 316 OFFCURVE",
"627 297 CURVE SMOOTH",
"627 278 OFFCURVE",
"611 262 OFFCURVE",
"592 262 CURVE SMOOTH",
"573 262 OFFCURVE",
"557 278 OFFCURVE"
);
},
{
closed = 1;
nodes = (
"295 559 CURVE SMOOTH",
"295 578 OFFCURVE",
"311 594 OFFCURVE",
"330 594 CURVE SMOOTH",
"349 594 OFFCURVE",
"365 578 OFFCURVE",
"365 559 CURVE SMOOTH",
"365 540 OFFCURVE",
"349 524 OFFCURVE",
"330 524 CURVE SMOOTH",
"311 524 OFFCURVE",
"295 540 OFFCURVE"
);
},
{
closed = 1;
nodes = (
"295 35 CURVE SMOOTH",
"295 54 OFFCURVE",
"311 70 OFFCURVE",
"330 70 CURVE SMOOTH",
"349 70 OFFCURVE",
"365 54 OFFCURVE",
"365 35 CURVE SMOOTH",
"365 16 OFFCURVE",
"349 0 OFFCURVE",
"330 0 CURVE SMOOTH",
"311 0 OFFCURVE",
"295 16 OFFCURVE"
);
}
);
width = 660;
}
);
unicode = 25CC;
},
{
glyphname = si_Halant;
layers = (
{
layerId = "AFC4C3A3-2D14-4C11-872C-451CCFDE8196";
name = Light;
paths = (
{
closed = 1;
nodes = (
"-90 638 CURVE",
"-83 672 LINE",
"-75.98 670.738 OFFCURVE",
"-63.701 667.194 OFFCURVE",
"-46 667.194 CURVE SMOOTH",
"-10.072 667.194 OFFCURVE",
"21 688 OFFCURVE",
"21 749 CURVE SMOOTH",
"21 828.298 OFFCURVE",
"-38.5 829 OFFCURVE",
"-64 829 CURVE SMOOTH",
"-67.02 829 OFFCURVE",
"-73 829 OFFCURVE",
"-73 829 CURVE",
"-91 848 LINE",
"-64 863 LINE",
"-28 863 OFFCURVE",
"56 862 OFFCURVE",
"56 749 CURVE SMOOTH",
"56 664 OFFCURVE",
"8.695 632.194 OFFCURVE",
"-46 632.194 CURVE SMOOTH",
"-60.408 632.194 OFFCURVE",
"-75.245 634.109 OFFCURVE"
);
},
{
closed = 1;
nodes = (
"-99 863 LINE",
"-64 863 LINE",
"-64 855 LINE",
"-68 839 LINE",
"-68 662 LINE",
"-64 642 LINE",
"-64 459 LINE",
"-99 459 LINE"
);
}
);
width = 6;
}
);
unicode = 0DCA;
},
{
glyphname = si_MatraI;
layers = (
{
layerId = "AFC4C3A3-2D14-4C11-872C-451CCFDE8196";
name = Light;
paths = (
{
closed = 1;
nodes = (
"-520 686 CURVE SMOOTH",
"-520 795.491 OFFCURVE",
"-418.12 863 OFFCURVE",
"-285.501 863 CURVE SMOOTH",
"-152.881 863 OFFCURVE",
"-51 795.491 OFFCURVE",
"-51 686 CURVE SMOOTH",
"-51 634.98 OFFCURVE",
"-82.012 577.515 OFFCURVE",
"-129.667 556 CURVE",
"-153.667 561 LINE",
"-153.667 579 LINE",
"-113.887 596.708 OFFCURVE",
"-88 644.007 OFFCURVE",
"-88 686 CURVE SMOOTH",
"-88 769.151 OFFCURVE",
"-167.501 826 OFFCURVE",
"-285.501 826 CURVE SMOOTH",
"-403.5 826 OFFCURVE",
"-483 769.151 OFFCURVE",
"-483 686 CURVE SMOOTH",
"-483 644.007 OFFCURVE",
"-457.114 596.708 OFFCURVE",
"-417.334 579 CURVE",
"-417.334 561 LINE",
"-441.334 556 LINE",
"-488.989 577.515 OFFCURVE",
"-520 634.98 OFFCURVE"
);
}
);
width = 0;
}
);
unicode = 0DD2;
},
{
glyphname = si_MatraIi;
layers = (
{
layerId = "AFC4C3A3-2D14-4C11-872C-451CCFDE8196";
name = Light;
paths = (
{
closed = 1;
nodes = (
"-212.134 654.899 CURVE SMOOTH",
"-212.134 622.339 OFFCURVE",
"-186.135 595.409 OFFCURVE",
"-153.234 595.409 CURVE SMOOTH",
"-120.356 595.409 OFFCURVE",
"-94.335 622.333 OFFCURVE",
"-94.335 654.899 CURVE SMOOTH",
"-94.335 687.459 OFFCURVE",
"-120.333 714.391 OFFCURVE",
"-153.234 714.391 CURVE SMOOTH",
"-186.113 714.391 OFFCURVE",
"-212.134 687.465 OFFCURVE"
);
},
{
closed = 1;
nodes = (
"-250.593 654.921 CURVE SMOOTH",
"-250.593 708.677 OFFCURVE",
"-207.427 751.842 OFFCURVE",
"-153.672 751.842 CURVE SMOOTH",
"-112.116 751.842 OFFCURVE",
"-80.262 719.42 OFFCURVE",
"-76.335 689 CURVE",
"-63.67 678.271 OFFCURVE",
"-56.753 666.168 OFFCURVE",
"-56.753 654.921 CURVE SMOOTH",
"-56.753 601.166 OFFCURVE",
"-99.92 558 OFFCURVE",
"-153.672 558 CURVE SMOOTH",
"-207.427 558 OFFCURVE",
"-250.593 601.166 OFFCURVE"
);
},
{
closed = 1;
nodes = (
"-520 686 CURVE SMOOTH",
"-520 795.491 OFFCURVE",
"-418.12 863 OFFCURVE",
"-285.501 863 CURVE SMOOTH",
"-152.881 863 OFFCURVE",
"-51 795.491 OFFCURVE",
"-51 686 CURVE SMOOTH",
"-51 636.158 OFFCURVE",
"-67.335 569 OFFCURVE",
"-140.335 559 CURVE",
"-169 564.921 LINE",
"-152 586.921 LINE",
"-116.067 590.973 OFFCURVE",
"-77.335 612 OFFCURVE",
"-77.335 654 CURVE SMOOTH",
"-77.335 670.35 OFFCURVE",
"-83.335 670.527 OFFCURVE",
"-83.335 686 CURVE",
"-83.335 769.151 OFFCURVE",
"-164.713 826 OFFCURVE",
"-285.501 826 CURVE SMOOTH",
"-403.5 826 OFFCURVE",
"-483 769.151 OFFCURVE",
"-483 686 CURVE SMOOTH",
"-483 644.007 OFFCURVE",
"-457.114 596.708 OFFCURVE",
"-417.334 579 CURVE",
"-417.334 561 LINE",
"-441.334 556 LINE",
"-488.989 577.515 OFFCURVE",
"-520 634.98 OFFCURVE"
);
}
);
width = 0;
}
);
unicode = 0DD3;
},
{
glyphname = si_MatraU;
layers = (
{
layerId = "AFC4C3A3-2D14-4C11-872C-451CCFDE8196";
name = Light;
paths = (
{
closed = 1;
nodes = (
"-459 -123.687 CURVE SMOOTH",
"-459 -104.944 OFFCURVE",
"-456.06 -84.656 OFFCURVE",
"-452.269 -65 CURVE",
"-416.282 -69 LINE",
"-419.517 -84.765 OFFCURVE",
"-422.21 -101.793 OFFCURVE",
"-422.21 -117.069 CURVE SMOOTH",
"-422.21 -143.697 OFFCURVE",
"-414.025 -165 OFFCURVE",
"-386.251 -165 CURVE SMOOTH",
"-63.251 -165 LINE",
"-63.251 -202 LINE",
"-386.251 -202 LINE SMOOTH",
"-443.323 -202 OFFCURVE",
"-459 -166.963 OFFCURVE"
);
},
{
closed = 1;
nodes = (
"-71.251 161 LINE",
"-66.251 202 LINE",
"-34.251 225 LINE",
"-34.251 -202 LINE",
"-71.251 -202 LINE"
);
}
);
width = 1;
}
);
unicode = 0DD4;
},
{
glyphname = si_MatraUu;
layers = (
{
layerId = "AFC4C3A3-2D14-4C11-872C-451CCFDE8196";
name = Light;
paths = (
{
closed = 1;
nodes = (
"-459 -123.687 CURVE SMOOTH",
"-459 -104.944 OFFCURVE",
"-456.06 -84.656 OFFCURVE",
"-452.269 -65 CURVE",
"-416.282 -69 LINE",
"-419.517 -84.765 OFFCURVE",
"-422.21 -101.793 OFFCURVE",
"-422.21 -117.069 CURVE SMOOTH",
"-422.21 -143.697 OFFCURVE",
"-405.541 -165 OFFCURVE",
"-375.251 -165 CURVE SMOOTH",
"-308.282 -165 OFFCURVE",
"-242.155 -94 OFFCURVE",
"-176.028 -94 CURVE SMOOTH",
"-131.483 -94 OFFCURVE",
"-86.938 -115.25 OFFCURVE",
"-42.251 -179 CURVE",
"-71.251 -202 LINE",
"-106.399 -148.75 OFFCURVE",
"-141.214 -131 OFFCURVE",
"-176.028 -131 CURVE SMOOTH",
"-241.595 -131 OFFCURVE",
"-307.162 -202 OFFCURVE",
"-375.251 -202 CURVE SMOOTH",
"-423.341 -202 OFFCURVE",
"-459 -166.963 OFFCURVE"
);
},
{
closed = 1;
nodes = (
"-71.251 161 LINE",
"-66.251 202 LINE",
"-34.251 225 LINE",
"-34.251 -202 LINE",
"-71.251 -202 LINE"
);
}
);
width = 4;
}
);
unicode = 0DD6;
},
{
glyphname = anusvara;
layers = (
{
layerId = "AFC4C3A3-2D14-4C11-872C-451CCFDE8196";
name = Light;
paths = (
{
closed = 1;
nodes = (
"62.101 265.612 CURVE SMOOTH",
"62.101 217.121 OFFCURVE",
"74.468 149.976 OFFCURVE",
"136.051 149.976 CURVE SMOOTH",
"197.633 149.976 OFFCURVE",
"210 217.121 OFFCURVE",
"210 265.612 CURVE SMOOTH",
"210 314.104 OFFCURVE",
"197.633 381.249 OFFCURVE",
"136.051 381.249 CURVE SMOOTH",
"74.468 381.249 OFFCURVE",
"62.101 314.104 OFFCURVE"
);
},
{
closed = 1;
nodes = (
"25.101 265.612 CURVE SMOOTH",
"25.101 357.278 OFFCURVE",
"66.217 418.249 OFFCURVE",
"136.051 418.249 CURVE SMOOTH",
"205.886 418.249 OFFCURVE",
"247 357.279 OFFCURVE",
"247 265.612 CURVE SMOOTH",
"247 172.62 OFFCURVE",
"215.063 113 OFFCURVE",
"136.051 113 CURVE SMOOTH",
"57.038 113 OFFCURVE",
"25.101 172.621 OFFCURVE"
);
}
);
width = 272;
}
);
unicode = 0D82;
},
{
glyphname = si_MatraAa;
layers = (
{
layerId = "AFC4C3A3-2D14-4C11-872C-451CCFDE8196";
name = Light;
paths = (
{
closed = 1;
nodes = (
"-0.341 543 LINE",
"18.237 549.033 OFFCURVE",
"36.466 552 OFFCURVE",
"53.903 552 CURVE SMOOTH",
"135.201 552 OFFCURVE",
"199 457.694 OFFCURVE",
"199 284 CURVE SMOOTH",
"199 110.306 OFFCURVE",
"135.201 16 OFFCURVE",
"53.903 16 CURVE SMOOTH",
"36.466 16 OFFCURVE",
"18.237 18.967 OFFCURVE",
"-0.341 25 CURVE",
"5.659 61 LINE",
"16.092 57.64 OFFCURVE",
"34.87 53 OFFCURVE",
"53.903 53 CURVE SMOOTH",
"114.47 53 OFFCURVE",
"162 134.286 OFFCURVE",
"162 284 CURVE SMOOTH",
"162 433.714 OFFCURVE",
"114.47 515 OFFCURVE",
"53.903 515 CURVE SMOOTH",
"34.87 515 OFFCURVE",
"16.092 510.36 OFFCURVE",
"5.659 507 CURVE"
);
}
);
width = 232;
}
);
unicode = 0DCF;
},
{
glyphname = si_MatraAae;
layers = (
{
layerId = "AFC4C3A3-2D14-4C11-872C-451CCFDE8196";
name = Light;
paths = (
{
closed = 1;
nodes = (
"0 158 CURVE SMOOTH",
"0 273 OFFCURVE",
"115.644 371 OFFCURVE",
"201.5 371 CURVE",
"201.5 334 LINE",
"131.409 334 OFFCURVE",
"37 241 OFFCURVE",
"37 158 CURVE SMOOTH",
"37 79 OFFCURVE",
"72.941 40 OFFCURVE",
"131 40 CURVE SMOOTH",
"211.449 40 OFFCURVE",
"227 126 OFFCURVE",
"227 176 CURVE",
"264 176 LINE",
"264 109 OFFCURVE",
"247.756 3 OFFCURVE",
"131 3 CURVE SMOOTH",
"50.089 3 OFFCURVE",
"0 54.229 OFFCURVE"
);
},
{
closed = 1;
nodes = (
"17.5 334 LINE",
"17.5 371 LINE",
"201.5 371 LINE",
"201.5 334 LINE"
);
},
{
closed = 1;
nodes = (
"17.5 543 LINE",
"201.5 543 LINE",
"201.5 506 LINE",
"72 371 LINE",
"17.5 371 LINE",
"147 506 LINE",
"17.5 506 LINE"
);
}
);
width = 297;
}
);
unicode = 0DD1;
},
{
glyphname = si_MatraAe;
layers = (
{
layerId = "AFC4C3A3-2D14-4C11-872C-451CCFDE8196";
name = Light;
paths = (
{
closed = 1;
nodes = (
"0 158 CURVE SMOOTH",
"0 260 OFFCURVE",
"64.432 334 OFFCURVE",
"185 506 CURVE",
"47.5 506 LINE",
"47.5 543 LINE",
"231.5 543 LINE",
"231.5 506 LINE",
"104.763 325 OFFCURVE",
"37 250 OFFCURVE",
"37 158 CURVE SMOOTH",
"37 79 OFFCURVE",
"76 40 OFFCURVE",
"139 40 CURVE SMOOTH",
"219.449 40 OFFCURVE",
"235 126 OFFCURVE",
"235 176 CURVE",
"272 176 LINE",
"272 109 OFFCURVE",
"255.756 3 OFFCURVE",
"139 3 CURVE SMOOTH",
"53.147 3 OFFCURVE",
"0 54.229 OFFCURVE"
);
}
);
width = 275;
}
);
unicode = 0DD0;
},
{
glyphname = si_MatraE;
layers = (
{
layerId = "AFC4C3A3-2D14-4C11-872C-451CCFDE8196";
name = Light;
paths = (
{
closed = 1;
nodes = (
"226.021 276.438 CURVE SMOOTH",
"226.021 239.467 OFFCURVE",
"257.028 208.459 OFFCURVE",
"294 208.459 CURVE SMOOTH",
"330.972 208.459 OFFCURVE",
"361.979 239.467 OFFCURVE",
"361.979 276.438 CURVE SMOOTH",
"361.979 313.408 OFFCURVE",
"330.972 344.416 OFFCURVE",
"294 344.416 CURVE SMOOTH",
"257.028 344.416 OFFCURVE",
"226.021 313.408 OFFCURVE"
);
},
{
closed = 1;
nodes = (
"189.438 276.438 CURVE SMOOTH",
"189.438 333.305 OFFCURVE",
"237.133 381 OFFCURVE",
"294 381 CURVE SMOOTH",
"347.298 381 OFFCURVE",
"392 333.305 OFFCURVE",
"392 276.438 CURVE SMOOTH",
"392 259.861 OFFCURVE",
"388.202 244.064 OFFCURVE",
"381.5 230 CURVE",
"365.209 195.817 OFFCURVE",
"331.762 171.875 OFFCURVE",
"294 171.875 CURVE SMOOTH",
"277.484 171.875 OFFCURVE",
"261.742 175.898 OFFCURVE",
"247.718 183 CURVE SMOOTH",
"213.452 200.352 OFFCURVE",
"189.438 236.085 OFFCURVE"
);
},
{
closed = 1;
nodes = (
"27 280 CURVE SMOOTH",
"27 438.264 OFFCURVE",
"116.136 576 OFFCURVE",
"255 576 CURVE SMOOTH",
"319.716 576 OFFCURVE",
"376 543 OFFCURVE",
"409 493 CURVE",
"379 470 LINE",
"348.248 510.325 OFFCURVE",
"310.982 539 OFFCURVE",
"255 539 CURVE SMOOTH",
"138.671 539 OFFCURVE",
"64 418.481 OFFCURVE",
"64 280 CURVE SMOOTH",
"64 140.835 OFFCURVE",
"122.436 40 OFFCURVE",
"237 40 CURVE SMOOTH",
"335.834 40 OFFCURVE",
"378 128.705 OFFCURVE",
"378 212 CURVE SMOOTH",
"378 296.354 OFFCURVE",
"347 344.416 OFFCURVE",
"294 344.416 CURVE",
"294 381 LINE",
"362.426 381 OFFCURVE",
"415 321 OFFCURVE",
"415 212 CURVE SMOOTH",
"415 110.045 OFFCURVE",
"358.331 3 OFFCURVE",
"237 3 CURVE SMOOTH",
"97.933 3 OFFCURVE",
"27 119.381 OFFCURVE"
);
}
);
width = 415;
}
);
unicode = 0DD9;
},
{
glyphname = si_MatraLs;
layers = (
{
layerId = "AFC4C3A3-2D14-4C11-872C-451CCFDE8196";
name = Light;
paths = (
{
closed = 1;
nodes = (
"0 354 CURVE SMOOTH",
"0 464 OFFCURVE",
"31 509 OFFCURVE",
"125 509 CURVE",
"125 472 LINE",
"58.824 472 OFFCURVE",
"37 437.742 OFFCURVE",
"37 354 CURVE SMOOTH",
"37 329 OFFCURVE",
"41 285 OFFCURVE",
"78 285 CURVE SMOOTH",
"115 285 OFFCURVE",
"70 411 OFFCURVE",
"173 411 CURVE SMOOTH",
"268 411 OFFCURVE",
"279 293.564 OFFCURVE",
"279 221.996 CURVE SMOOTH",
"279 78.355 OFFCURVE",
"240.331 3 OFFCURVE",
"155 3 CURVE SMOOTH",
"90.343 3 OFFCURVE",
"71.743 44.745 OFFCURVE",
"62 59 CURVE",
"92 77 LINE",
"98.6 67.582 OFFCURVE",
"111.2 40 OFFCURVE",
"155 40 CURVE SMOOTH",
"214.869 40 OFFCURVE",
"242 102.624 OFFCURVE",
"242 221.996 CURVE SMOOTH",
"242 279.554 OFFCURVE",
"234.84 374 OFFCURVE",
"173 374 CURVE SMOOTH",
"101 374 OFFCURVE",
"171 248 OFFCURVE",
"78 248 CURVE SMOOTH",
"15 248 OFFCURVE",
"0 300 OFFCURVE"
);
}
);
width = 284;
}
);
unicode = 0DDF;
},
{
glyphname = si_MatraR;
layers = (
{
layerId = "AFC4C3A3-2D14-4C11-872C-451CCFDE8196";
name = Light;
paths = (
{
closed = 1;
nodes = (
"0 144 CURVE SMOOTH",
"0 221.254 OFFCURVE",
"40.66 283.912 OFFCURVE",
"104.996 283.912 CURVE SMOOTH",
"139.48 283.912 OFFCURVE",
"169.903 271.368 OFFCURVE",
"186 250 CURVE",
"179 214 LINE",
"155.396 241.635 OFFCURVE",
"130.188 248.33 OFFCURVE",
"111.398 248.33 CURVE SMOOTH",
"61.921 248.33 OFFCURVE",
"37 198.199 OFFCURVE",
"37 144 CURVE SMOOTH",
"37 81.143 OFFCURVE",
"56 44 OFFCURVE",
"100 44 CURVE SMOOTH",
"118.885 44 OFFCURVE",
"152.631 58.86 OFFCURVE",
"175.901 58.86 CURVE SMOOTH",
"182.204 58.86 OFFCURVE",
"187.737 57.771 OFFCURVE",
"192 55 CURVE",
"214 6 LINE",
"203.333 21 OFFCURVE",
"192.777 26 OFFCURVE",
"181.296 26 CURVE SMOOTH",
"158.333 26 OFFCURVE",
"131.667 6 OFFCURVE",
"93 6 CURVE SMOOTH",
"18 6 OFFCURVE",
"0 92.902 OFFCURVE"
);
},
{
closed = 1;
nodes = (
"8 371 LINE",
"6.666 385.076 OFFCURVE",
"5.903 394.645 OFFCURVE",
"5.903 408 CURVE SMOOTH",
"5.903 484.782 OFFCURVE",
"31.113 550 OFFCURVE",
"118 550 CURVE SMOOTH",
"187.701 550 OFFCURVE",
"227.628 505.243 OFFCURVE",
"227.628 402 CURVE SMOOTH",
"227.628 290.009 OFFCURVE",
"212.31 209.969 OFFCURVE",
"212.31 144.819 CURVE SMOOTH",
"212.31 100.021 OFFCURVE",
"219.553 62.264 OFFCURVE",
"244 26 CURVE",
"214 6 LINE",
"181.903 50.735 OFFCURVE",
"172.566 94.213 OFFCURVE",
"172.566 143.508 CURVE SMOOTH",
"172.566 212.071 OFFCURVE",
"190.628 291.889 OFFCURVE",
"190.628 402 CURVE SMOOTH",
"190.628 479.433 OFFCURVE",
"164.177 513 OFFCURVE",
"118 513 CURVE SMOOTH",
"60.339 513 OFFCURVE",
"43.608 464.774 OFFCURVE",
"43.608 408 CURVE SMOOTH",
"43.608 397.405 OFFCURVE",
"44.115 382.166 OFFCURVE",
"45 371 CURVE"
);
}
);
width = 277;
}
);
unicode = 0DD8;
},
{
glyphname = si_MatraRr;
layers = (
{
layerId = "AFC4C3A3-2D14-4C11-872C-451CCFDE8196";
name = Light;
paths = (
{
closed = 1;
nodes = (
"0 144 CURVE SMOOTH",
"0 221.254 OFFCURVE",
"40.66 283.912 OFFCURVE",
"104.996 283.912 CURVE SMOOTH",
"139.48 283.912 OFFCURVE",
"169.903 271.368 OFFCURVE",
"186 250 CURVE",
"179 214 LINE",
"155.396 241.635 OFFCURVE",
"130.188 248.33 OFFCURVE",
"111.398 248.33 CURVE SMOOTH",
"61.921 248.33 OFFCURVE",
"37 198.199 OFFCURVE",
"37 144 CURVE SMOOTH",
"37 81.143 OFFCURVE",
"56 44 OFFCURVE",
"100 44 CURVE SMOOTH",
"118.885 44 OFFCURVE",
"152.631 58.86 OFFCURVE",
"175.901 58.86 CURVE SMOOTH",
"182.204 58.86 OFFCURVE",
"187.737 57.771 OFFCURVE",
"192 55 CURVE",
"214 6 LINE",
"203.333 21 OFFCURVE",
"192.777 26 OFFCURVE",
"181.296 26 CURVE SMOOTH",
"158.333 26 OFFCURVE",
"131.667 6 OFFCURVE",
"93 6 CURVE SMOOTH",
"18 6 OFFCURVE",
"0 92.902 OFFCURVE"
);
},
{
closed = 1;
nodes = (
"8 371 LINE",
"6.666 385.076 OFFCURVE",
"5.903 394.645 OFFCURVE",
"5.903 408 CURVE SMOOTH",
"5.903 484.782 OFFCURVE",
"31.113 550 OFFCURVE",
"118 550 CURVE SMOOTH",
"187.701 550 OFFCURVE",
"227.628 505.243 OFFCURVE",
"227.628 402 CURVE SMOOTH",
"227.628 290.009 OFFCURVE",
"212.31 209.969 OFFCURVE",
"212.31 144.819 CURVE SMOOTH",
"212.31 100.021 OFFCURVE",
"219.553 62.264 OFFCURVE",
"244 26 CURVE",
"214 6 LINE",
"181.903 50.735 OFFCURVE",
"172.566 94.213 OFFCURVE",
"172.566 143.508 CURVE SMOOTH",
"172.566 212.071 OFFCURVE",
"190.628 291.889 OFFCURVE",
"190.628 402 CURVE SMOOTH",
"190.628 479.433 OFFCURVE",
"164.177 513 OFFCURVE",
"118 513 CURVE SMOOTH",
"60.339 513 OFFCURVE",
"43.608 464.774 OFFCURVE",
"43.608 408 CURVE SMOOTH",
"43.608 397.405 OFFCURVE",
"44.115 382.166 OFFCURVE",
"45 371 CURVE"
);
},
{
closed = 1;
nodes = (
"270 144 CURVE SMOOTH",
"270 221.254 OFFCURVE",
"310.66 283.912 OFFCURVE",
"374.996 283.912 CURVE SMOOTH",
"409.48 283.912 OFFCURVE",
"439.903 271.368 OFFCURVE",
"456 250 CURVE",
"449 214 LINE",
"425.396 241.635 OFFCURVE",
"400.188 248.33 OFFCURVE",
"381.398 248.33 CURVE SMOOTH",
"331.921 248.33 OFFCURVE",
"307 198.199 OFFCURVE",
"307 144 CURVE SMOOTH",
"307 81.143 OFFCURVE",
"326 44 OFFCURVE",
"370 44 CURVE SMOOTH",
"388.885 44 OFFCURVE",
"422.631 58.86 OFFCURVE",
"445.901 58.86 CURVE SMOOTH",
"452.204 58.86 OFFCURVE",
"457.737 57.771 OFFCURVE",
"462 55 CURVE",
"484 6 LINE",
"473.333 21 OFFCURVE",
"462.777 26 OFFCURVE",
"451.296 26 CURVE SMOOTH",
"428.333 26 OFFCURVE",
"401.667 6 OFFCURVE",
"363 6 CURVE SMOOTH",
"288 6 OFFCURVE",
"270 92.902 OFFCURVE"
);
},
{
closed = 1;
nodes = (
"278 371 LINE",
"276.666 385.076 OFFCURVE",
"275.903 394.645 OFFCURVE",
"275.903 408 CURVE SMOOTH",
"275.903 484.782 OFFCURVE",
"301.113 550 OFFCURVE",
"388 550 CURVE SMOOTH",
"457.701 550 OFFCURVE",
"497.628 505.243 OFFCURVE",
"497.628 402 CURVE SMOOTH",
"497.628 290.009 OFFCURVE",
"482.31 209.969 OFFCURVE",
"482.31 144.819 CURVE SMOOTH",
"482.31 100.021 OFFCURVE",
"489.553 62.264 OFFCURVE",
"514 26 CURVE",
"484 6 LINE",
"451.903 50.735 OFFCURVE",
"442.566 94.213 OFFCURVE",
"442.566 143.508 CURVE SMOOTH",
"442.566 212.071 OFFCURVE",
"460.628 291.889 OFFCURVE",
"460.628 402 CURVE SMOOTH",
"460.628 479.433 OFFCURVE",
"434.177 513 OFFCURVE",
"388 513 CURVE SMOOTH",
"330.339 513 OFFCURVE",
"313.608 464.774 OFFCURVE",
"313.608 408 CURVE SMOOTH",
"313.608 397.405 OFFCURVE",
"314.115 382.166 OFFCURVE",
"315 371 CURVE"
);
}
);
width = 576;
}
);
unicode = 0DF2;
},
{
glyphname = visarga;
layers = (
{
layerId = "AFC4C3A3-2D14-4C11-872C-451CCFDE8196";
name = Light;
paths = (
{
closed = 1;
nodes = (
"67.493 152.197 CURVE SMOOTH",
"67.493 127.95 OFFCURVE",
"89.047 106.396 OFFCURVE",
"113.295 106.396 CURVE SMOOTH",
"137.544 106.396 OFFCURVE",
"159.098 127.95 OFFCURVE",
"159.098 152.197 CURVE SMOOTH",
"159.098 176.446 OFFCURVE",
"137.544 198 OFFCURVE",
"113.295 198 CURVE SMOOTH",
"89.047 198 OFFCURVE",
"67.493 176.446 OFFCURVE"
);
},
{
closed = 1;
nodes = (
"33 152.197 CURVE SMOOTH",
"33 196.669 OFFCURVE",
"68.824 232.492 OFFCURVE",
"113.295 232.492 CURVE SMOOTH",
"157.766 232.492 OFFCURVE",
"193.59 196.669 OFFCURVE",
"193.59 152.197 CURVE SMOOTH",
"193.59 107.727 OFFCURVE",
"157.766 71.902 OFFCURVE",
"113.295 71.902 CURVE SMOOTH",
"68.824 71.902 OFFCURVE",
"33 107.727 OFFCURVE"
);
},
{
closed = 1;
nodes = (
"67.493 405 CURVE SMOOTH",
"67.493 380.753 OFFCURVE",
"89.047 359.198 OFFCURVE",
"113.295 359.198 CURVE SMOOTH",
"137.544 359.198 OFFCURVE",
"159.098 380.753 OFFCURVE",
"159.098 405 CURVE SMOOTH",
"159.098 429.249 OFFCURVE",
"137.544 450.803 OFFCURVE",
"113.295 450.803 CURVE SMOOTH",
"89.047 450.803 OFFCURVE",
"67.493 429.249 OFFCURVE"
);
},
{
closed = 1;
nodes = (
"33 405 CURVE SMOOTH",
"33 449.472 OFFCURVE",
"68.824 485.295 OFFCURVE",
"113.295 485.295 CURVE SMOOTH",
"157.766 485.295 OFFCURVE",
"193.59 449.472 OFFCURVE",
"193.59 405 CURVE SMOOTH",
"193.59 360.529 OFFCURVE",
"157.766 324.705 OFFCURVE",
"113.295 324.705 CURVE SMOOTH",
"68.824 324.705 OFFCURVE",
"33 360.529 OFFCURVE"
);
}
);
width = 226;
}
);
unicode = 0D83;
},
{
glyphname = NameMe.124;
layers = (
{
components = (
{
name = si_Gh.halant;
}
);
layerId = "AFC4C3A3-2D14-4C11-872C-451CCFDE8196";
name = Light;
paths = (
{
closed = 1;
nodes = (
"59.334 -104 CURVE SMOOTH",
"96.334 -104 LINE SMOOTH",
"96.334 -187.151 OFFCURVE",
"175.834 -244 OFFCURVE",
"293.833 -244 CURVE SMOOTH",
"411.833 -244 OFFCURVE",
"491.333 -187.151 OFFCURVE",
"491.333 -104 CURVE SMOOTH",
"491.333 -42.228 OFFCURVE",
"472.955 -7.116 OFFCURVE",
"442.941 16 CURVE",
"444 38 LINE",
"475.688 32 LINE",
"508.452 3.273 OFFCURVE",
"528.333 -40.167 OFFCURVE",
"528.333 -104 CURVE SMOOTH",
"528.333 -213.491 OFFCURVE",
"426.453 -281 OFFCURVE",
"293.833 -281 CURVE SMOOTH",
"161.214 -281 OFFCURVE",
"59.334 -213.491 OFFCURVE"
);
}
);
width = 595;
}
);
},
{
glyphname = si_B.halant;
layers = (
{
layerId = "AFC4C3A3-2D14-4C11-872C-451CCFDE8196";
name = Light;
paths = (
{
closed = 1;
nodes = (
"62.319 746 CURVE SMOOTH",
"62.319 795.266 OFFCURVE",
"105.829 864 OFFCURVE",
"266.319 864 CURVE SMOOTH",
"391.881 864 OFFCURVE",
"494.229 801.028 OFFCURVE",
"494.229 712 CURVE SMOOTH",
"494.229 659 OFFCURVE",
"459.981 621 OFFCURVE",
"411.229 602 CURVE",
"381.229 611 LINE",
"403.229 636 LINE",
"434.947 649.127 OFFCURVE",
"457.229 675.382 OFFCURVE",
"457.229 712 CURVE SMOOTH",
"457.229 779.357 OFFCURVE",
"371.496 827 OFFCURVE",
"266.319 827 CURVE SMOOTH",
"134.938 827 OFFCURVE",
"99.319 779.817 OFFCURVE",
"99.319 746 CURVE SMOOTH",
"99.319 712.768 OFFCURVE",
"126.503 683.519 OFFCURVE",
"152.319 668 CURVE",
"153.319 637 LINE",
"125.319 646 LINE",
"94.633 665.896 OFFCURVE",
"62.319 703.395 OFFCURVE"
);
},
{
closed = 1;
nodes = (
"33 220 CURVE SMOOTH",
"33 419.134 OFFCURVE",
"108.666 486 OFFCURVE",
"196.061 486 CURVE SMOOTH",
"287.595 486 OFFCURVE",
"331 436.897 OFFCURVE",
"331 344 CURVE SMOOTH",
"331 247 OFFCURVE",
"257 228 OFFCURVE",
"257 137 CURVE SMOOTH",
"257 65.13 OFFCURVE",
"303.975 39 OFFCURVE",
"357 39 CURVE SMOOTH",
"458.697 39 OFFCURVE",
"485.619 145.855 OFFCURVE",
"485.619 293 CURVE SMOOTH",
"485.619 582 OFFCURVE",
"358.159 651 OFFCURVE",
"239.319 651 CURVE SMOOTH",
"169.38 651 OFFCURVE",
"127.833 621.477 OFFCURVE",
"89.319 591 CURVE",
"65.319 620 LINE",
"113.878 663.099 OFFCURVE",
"183.16 688 OFFCURVE",
"239.319 688 CURVE SMOOTH",
"376.012 688 OFFCURVE",
"522.619 611.869 OFFCURVE",
"522.619 293 CURVE SMOOTH",
"522.619 125 OFFCURVE",
"487.952 3 OFFCURVE",
"357 3 CURVE SMOOTH",
"262.843 3 OFFCURVE",
"221.114 58.315 OFFCURVE",
"221.114 137 CURVE SMOOTH",
"221.114 241 OFFCURVE",
"295 258 OFFCURVE",
"295 344 CURVE SMOOTH",
"295 413.346 OFFCURVE",
"263.175 450 OFFCURVE",
"196.061 450 CURVE SMOOTH",
"128.497 450 OFFCURVE",
"70 392.184 OFFCURVE",
"70 220 CURVE SMOOTH",
"70 105.193 OFFCURVE",
"95.778 39 OFFCURVE",
"155 39 CURVE SMOOTH",
"193.885 39 OFFCURVE",
"220.538 79 OFFCURVE",
"227 115 CURVE",
"257 108 LINE",
"247.556 52 OFFCURVE",
"216.124 3 OFFCURVE",
"155 3 CURVE SMOOTH",
"70 3 OFFCURVE",
"33 82.359 OFFCURVE"
);
}
);
width = 555;
}
);
},
{
glyphname = si_Ba.reph;
layers = (
{
layerId = "AFC4C3A3-2D14-4C11-872C-451CCFDE8196";
name = Light;
paths = (
{
closed = 1;
nodes = (
"121.376 706.571 CURVE SMOOTH",
"121.376 788.24 OFFCURVE",
"175.656 845.829 OFFCURVE",
"260.376 845.829 CURVE SMOOTH",
"349.014 845.829 OFFCURVE",
"416.308 786.899 OFFCURVE",
"416.308 690 CURVE SMOOTH",
"416.308 657.434 OFFCURVE",
"406.154 611.149 OFFCURVE",
"377.001 575 CURVE",
"348.698 597 LINE",
"372.954 626.813 OFFCURVE",
"379.342 663.645 OFFCURVE",
"379.342 690 CURVE SMOOTH",
"379.342 760.589 OFFCURVE",
"335.512 808.829 OFFCURVE",
"260.376 808.829 CURVE SMOOTH",
"195.77 808.829 OFFCURVE",
"154.376 766.541 OFFCURVE",
"154.376 706.571 CURVE SMOOTH",
"154.376 686.869 OFFCURVE",
"171.973 638.414 OFFCURVE",
"182.376 628 CURVE",
"213.376 611 LINE",
"181.376 599 LINE",
"143.376 615 OFFCURVE",
"121.376 653.939 OFFCURVE"
);
},
{
closed = 1;
nodes = (
"162.74 681.764 CURVE SMOOTH",
"162.74 651.068 OFFCURVE",
"187.681 626.128 OFFCURVE",
"218.376 626.128 CURVE SMOOTH",
"249.071 626.128 OFFCURVE",
"274.012 651.068 OFFCURVE",
"274.012 681.764 CURVE SMOOTH",
"274.012 712.459 OFFCURVE",
"249.071 737.399 OFFCURVE",
"218.376 737.399 CURVE SMOOTH",
"187.681 737.399 OFFCURVE",
"162.74 712.459 OFFCURVE"
);
},
{
closed = 1;
nodes = (
"135.376 682 CURVE SMOOTH",
"135.376 730.552 OFFCURVE",
"172.583 770 OFFCURVE",
"218.376 770 CURVE SMOOTH",
"268.452 770 OFFCURVE",
"309.14 730.445 OFFCURVE",
"309.14 681.764 CURVE SMOOTH",
"309.14 631.688 OFFCURVE",
"268.452 591 OFFCURVE",
"218.376 591 CURVE SMOOTH",
"172.583 591 OFFCURVE",
"135.376 631.793 OFFCURVE"
);
},
{
closed = 1;
nodes = (
"61.39 618 LINE",
"75.383 655.014 OFFCURVE",
"102.816 687.55 OFFCURVE",
"137.376 710.938 CURVE",
"150.376 675.356 LINE SMOOTH",
"125.506 656.803 OFFCURVE",
"105.881 632.404 OFFCURVE",
"95.39 605 CURVE"
);
},
{
closed = 1;
nodes = (
"33 220 CURVE SMOOTH",
"33 419.134 OFFCURVE",
"108.666 486 OFFCURVE",
"196.061 486 CURVE SMOOTH",
"287.595 486 OFFCURVE",
"331 436.897 OFFCURVE",
"331 344 CURVE SMOOTH",
"331 247 OFFCURVE",
"257 228 OFFCURVE",
"257 137 CURVE SMOOTH",
"257 65.13 OFFCURVE",
"303.975 39 OFFCURVE",
"357 39 CURVE SMOOTH",
"458.697 39 OFFCURVE",
"485.619 145.855 OFFCURVE",
"485.619 293 CURVE SMOOTH",
"485.619 481.787 OFFCURVE",
"452.694 604.782 OFFCURVE",
"385.607 666 CURVE",
"409.711 696 LINE",
"485.441 628.42 OFFCURVE",
"522.619 495.481 OFFCURVE",
"522.619 293 CURVE SMOOTH",
"522.619 125 OFFCURVE",
"487.952 3 OFFCURVE",
"357 3 CURVE SMOOTH",
"262.843 3 OFFCURVE",
"221.114 58.315 OFFCURVE",
"221.114 137 CURVE SMOOTH",
"221.114 241 OFFCURVE",
"295 258 OFFCURVE",
"295 344 CURVE SMOOTH",
"295 413.346 OFFCURVE",
"263.175 450 OFFCURVE",
"196.061 450 CURVE SMOOTH",
"128.497 450 OFFCURVE",
"70 392.184 OFFCURVE",
"70 220 CURVE SMOOTH",
"70 105.193 OFFCURVE",
"95.778 39 OFFCURVE",
"155 39 CURVE SMOOTH",
"193.885 39 OFFCURVE",
"220.538 79 OFFCURVE",
"227 115 CURVE",
"257 108 LINE",
"247.556 52 OFFCURVE",
"216.124 3 OFFCURVE",
"155 3 CURVE SMOOTH",
"70 3 OFFCURVE",
"33 82.359 OFFCURVE"
);
}
);
width = 555;
}
);
},
{
glyphname = si_Bh.halant;
layers = (
{
layerId = "AFC4C3A3-2D14-4C11-872C-451CCFDE8196";
name = Light;
paths = (
{
closed = 1;
nodes = (
"498 637.844 CURVE",
"505 671.844 LINE",
"512.02 670.582 OFFCURVE",
"524.299 667.038 OFFCURVE",
"542 667.038 CURVE SMOOTH",
"577.928 667.038 OFFCURVE",
"609 687.844 OFFCURVE",
"609 748.844 CURVE SMOOTH",
"609 828.142 OFFCURVE",
"549.5 828.844 OFFCURVE",
"524 828.844 CURVE SMOOTH",
"520.98 828.844 OFFCURVE",
"515 828.844 OFFCURVE",
"515 828.844 CURVE",
"497 847.844 LINE",
"524 862.844 LINE",
"560 862.844 OFFCURVE",
"644 861.844 OFFCURVE",
"644 748.844 CURVE SMOOTH",
"644 663.844 OFFCURVE",
"596.695 632.038 OFFCURVE",
"542 632.038 CURVE SMOOTH",
"527.592 632.038 OFFCURVE",
"512.755 633.953 OFFCURVE"
);
},
{
closed = 1;
nodes = (
"489 862.844 LINE",
"524 862.844 LINE",
"524 854.844 LINE",
"520 838.844 LINE",
"520 661.844 LINE",
"524 641.844 LINE",
"524 543.844 LINE",
"489 543.844 LINE"
);
},
{
closed = 1;
nodes = (
"238 238 LINE",
"286.028 264.464 OFFCURVE",
"291.285 324.425 OFFCURVE",
"291.285 368.48 CURVE SMOOTH",
"291.285 478.833 OFFCURVE",
"322.679 580.844 OFFCURVE",
"440 580.844 CURVE SMOOTH",
"532.438 580.844 OFFCURVE",
"615.372 527.844 OFFCURVE",
"615.372 291.844 CURVE SMOOTH",
"615.372 56.844 OFFCURVE",
"533.041 2.844 OFFCURVE",
"447 2.844 CURVE SMOOTH",
"391.235 2.844 OFFCURVE",
"354.761 31.525 OFFCURVE",
"336 70.641 CURVE",
"359.372 122.844 LINE",
"362.372 82.844 OFFCURVE",
"394.372 39.844 OFFCURVE",
"447 39.844 CURVE SMOOTH",
"513.878 39.844 OFFCURVE",
"577.872 86.931 OFFCURVE",
"577.872 291.844 CURVE SMOOTH",
"577.872 497.629 OFFCURVE",
"513.701 543.844 OFFCURVE",
"440 543.844 CURVE SMOOTH",
"345.588 543.844 OFFCURVE",
"328.48 455.258 OFFCURVE",
"328.48 362.739 CURVE SMOOTH",
"328.48 310.831 OFFCURVE",
"320.737 240.182 OFFCURVE",
"250 209 CURVE"
);
},
{
closed = 1;
nodes = (
"42.87 200.987 CURVE SMOOTH",
"42.87 222.746 OFFCURVE",
"45.222 245.831 OFFCURVE",
"50.083 270 CURVE SMOOTH",
"58.815 313.411 OFFCURVE",
"74.797 351.78 OFFCURVE",
"96.48 369 CURVE",
"32.758 369 LINE",
"32.758 405 LINE",
"318 405 LINE",
"318 369 LINE",
"190.33 369 LINE SMOOTH",
"124.705 369 OFFCURVE",
"96.796 316.259 OFFCURVE",
"86.284 264 CURVE SMOOTH",
"82.116 243.278 OFFCURVE",
"80.107 223.495 OFFCURVE",
"80.107 204.875 CURVE SMOOTH",
"80.107 106.07 OFFCURVE",
"136.65 40 OFFCURVE",
"227 40 CURVE SMOOTH",
"315.861 40 OFFCURVE",
"349 103.167 OFFCURVE",
"349 158 CURVE SMOOTH",
"349 200.669 OFFCURVE",
"333.596 231.955 OFFCURVE",
"304.523 231.955 CURVE SMOOTH",
"295.356 231.955 OFFCURVE",
"284.83 228.845 OFFCURVE",
"273 222 CURVE",
"264 249 LINE",
"281.493 257.285 OFFCURVE",
"297.624 261.202 OFFCURVE",
"312.036 261.202 CURVE SMOOTH",
"357.606 261.202 OFFCURVE",
"386 222.041 OFFCURVE",
"386 158 CURVE SMOOTH",
"386 85.974 OFFCURVE",
"342.812 3 OFFCURVE",
"227 3 CURVE SMOOTH",
"112.904 3 OFFCURVE",
"42.87 82.229 OFFCURVE"
);
},
{
closed = 1;
nodes = (
"73.449 474 CURVE SMOOTH",
"73.449 553 OFFCURVE",
"133.052 591 OFFCURVE",
"189.758 591 CURVE SMOOTH",
"251.819 591 OFFCURVE",
"309.5 555.987 OFFCURVE",
"320.521 480 CURVE SMOOTH",
"321.709 471.812 OFFCURVE",
"322.331 463.148 OFFCURVE",
"322.331 454 CURVE SMOOTH",
"322.331 422.535 OFFCURVE",
"318.758 399 OFFCURVE",
"309.758 372 CURVE",
"288.331 402 LINE",
"288.331 416 OFFCURVE",
"288.331 435 OFFCURVE",
"288.331 454 CURVE SMOOTH",
"288.331 523.372 OFFCURVE",
"242.467 555 OFFCURVE",
"189.758 555 CURVE SMOOTH",
"150.603 555 OFFCURVE",
"109.449 528.692 OFFCURVE",
"109.449 474 CURVE SMOOTH",
"109.449 432 OFFCURVE",
"126.795 406 OFFCURVE",
"135.925 396 CURVE",
"113.925 376 LINE",
"101.925 387 OFFCURVE",
"73.449 419 OFFCURVE"
);
}
);
width = 677;
}
);
},
{
glyphname = si_Bha.reph;
layers = (
{
layerId = "AFC4C3A3-2D14-4C11-872C-451CCFDE8196";
name = Light;
paths = (
{
closed = 1;
nodes = (
"142 666.571 CURVE SMOOTH",
"142 748.24 OFFCURVE",
"198.232 805.829 OFFCURVE",
"286 805.829 CURVE SMOOTH",
"371.796 805.829 OFFCURVE",
"436.932 749.925 OFFCURVE",
"436.932 658 CURVE SMOOTH",
"436.932 601.929 OFFCURVE",
"410.325 546.861 OFFCURVE",
"362.303 516.872 CURVE",
"348 547 LINE",
"391.208 576.885 OFFCURVE",
"399.966 626.544 OFFCURVE",
"399.966 658 CURVE SMOOTH",
"399.966 723.836 OFFCURVE",
"357.978 768.829 OFFCURVE",
"286 768.829 CURVE SMOOTH",
"218.346 768.829 OFFCURVE",
"175 726.541 OFFCURVE",
"175 666.571 CURVE SMOOTH",
"175 646.869 OFFCURVE",
"192.597 598.414 OFFCURVE",
"203 588 CURVE",
"234 571 LINE",
"202 559 LINE",
"164 575 OFFCURVE",
"142 613.939 OFFCURVE"
);
},
{
closed = 1;
nodes = (
"183.364 641.764 CURVE SMOOTH",
"183.364 611.068 OFFCURVE",
"208.305 586.128 OFFCURVE",
"239 586.128 CURVE SMOOTH",
"269.695 586.128 OFFCURVE",
"294.636 611.068 OFFCURVE",
"294.636 641.764 CURVE SMOOTH",
"294.636 672.459 OFFCURVE",
"269.695 697.399 OFFCURVE",
"239 697.399 CURVE SMOOTH",
"208.305 697.399 OFFCURVE",
"183.364 672.459 OFFCURVE"
);
},
{
closed = 1;
nodes = (
"156 642 CURVE SMOOTH",
"156 690.552 OFFCURVE",
"193.207 730 OFFCURVE",
"239 730 CURVE SMOOTH",
"289.076 730 OFFCURVE",
"329.764 690.445 OFFCURVE",
"329.764 641.764 CURVE SMOOTH",
"329.764 591.688 OFFCURVE",
"289.076 551 OFFCURVE",
"239 551 CURVE SMOOTH",
"193.207 551 OFFCURVE",
"156 591.793 OFFCURVE"
);
},
{
closed = 1;
nodes = (
"238.242 238 LINE",
"286.271 264.464 OFFCURVE",
"291.527 324.425 OFFCURVE",
"291.527 368.48 CURVE SMOOTH",
"291.527 478.833 OFFCURVE",
"322.921 580.844 OFFCURVE",
"440.242 580.844 CURVE SMOOTH",
"532.681 580.844 OFFCURVE",
"615.614 527.844 OFFCURVE",
"615.614 291.844 CURVE SMOOTH",
"615.614 56.844 OFFCURVE",
"533.283 2.844 OFFCURVE",
"447.242 2.844 CURVE SMOOTH",
"391.478 2.844 OFFCURVE",
"355.003 31.525 OFFCURVE",
"336.242 70.641 CURVE",
"359.614 122.844 LINE",
"362.614 82.844 OFFCURVE",
"394.614 39.844 OFFCURVE",
"447.242 39.844 CURVE SMOOTH",
"514.12 39.844 OFFCURVE",
"578.114 86.931 OFFCURVE",
"578.114 291.844 CURVE SMOOTH",
"578.114 497.629 OFFCURVE",
"513.943 543.844 OFFCURVE",
"440.242 543.844 CURVE SMOOTH",
"345.83 543.844 OFFCURVE",
"328.723 455.258 OFFCURVE",
"328.723 362.739 CURVE SMOOTH",
"328.723 310.831 OFFCURVE",
"320.979 240.182 OFFCURVE",
"250.242 209 CURVE"
);
},
{
closed = 1;
nodes = (
"43.112 200.987 CURVE SMOOTH",
"43.112 222.746 OFFCURVE",
"45.464 245.831 OFFCURVE",
"50.325 270 CURVE SMOOTH",
"59.058 313.411 OFFCURVE",
"75.039 351.78 OFFCURVE",
"96.723 369 CURVE",
"33 369 LINE",
"33 405 LINE",
"318.242 405 LINE",
"318.242 369 LINE",
"190.572 369 LINE SMOOTH",
"124.947 369 OFFCURVE",
"97.038 316.259 OFFCURVE",
"86.526 264 CURVE SMOOTH",
"82.358 243.278 OFFCURVE",
"80.35 223.495 OFFCURVE",
"80.35 204.875 CURVE SMOOTH",
"80.35 106.07 OFFCURVE",
"136.893 40 OFFCURVE",
"227.242 40 CURVE SMOOTH",
"316.104 40 OFFCURVE",
"349.242 103.167 OFFCURVE",
"349.242 158 CURVE SMOOTH",
"349.242 200.669 OFFCURVE",
"333.838 231.955 OFFCURVE",
"304.766 231.955 CURVE SMOOTH",
"295.599 231.955 OFFCURVE",
"285.072 228.845 OFFCURVE",
"273.242 222 CURVE",
"264.242 249 LINE",
"281.735 257.285 OFFCURVE",
"297.866 261.202 OFFCURVE",
"312.278 261.202 CURVE SMOOTH",
"357.849 261.202 OFFCURVE",
"386.242 222.041 OFFCURVE",
"386.242 158 CURVE SMOOTH",
"386.242 85.974 OFFCURVE",
"343.054 3 OFFCURVE",
"227.242 3 CURVE SMOOTH",
"113.146 3 OFFCURVE",
"43.112 82.229 OFFCURVE"
);
},
{
closed = 1;
nodes = (
"73.691 474 CURVE SMOOTH",
"73.691 553 OFFCURVE",
"133.294 591 OFFCURVE",
"190 591 CURVE SMOOTH",
"252.062 591 OFFCURVE",
"309.743 555.987 OFFCURVE",
"320.764 480 CURVE SMOOTH",
"321.951 471.812 OFFCURVE",
"322.573 463.148 OFFCURVE",
"322.573 454 CURVE SMOOTH",
"322.573 422.535 OFFCURVE",
"319 399 OFFCURVE",
"310 372 CURVE",
"288.573 402 LINE",
"288.573 416 OFFCURVE",
"288.573 435 OFFCURVE",
"288.573 454 CURVE SMOOTH",
"288.573 523.372 OFFCURVE",
"242.709 555 OFFCURVE",
"190 555 CURVE SMOOTH",
"150.845 555 OFFCURVE",
"109.691 528.692 OFFCURVE",
"109.691 474 CURVE SMOOTH",
"109.691 432 OFFCURVE",
"127.037 406 OFFCURVE",
"136.167 396 CURVE",
"114.167 376 LINE",
"102.167 387 OFFCURVE",
"73.691 419 OFFCURVE"
);
}
);
width = 648;
}
);
},
{
glyphname = si_BhI;
layers = (
{
layerId = "AFC4C3A3-2D14-4C11-872C-451CCFDE8196";
name = Light;
paths = (
{
closed = 1;
nodes = (
"98.948 685.844 CURVE SMOOTH",
"98.948 795.335 OFFCURVE",
"200.828 862.844 OFFCURVE",
"333.447 862.844 CURVE SMOOTH",
"466.067 862.844 OFFCURVE",
"567.947 795.335 OFFCURVE",
"567.947 685.844 CURVE SMOOTH",
"567.947 634.824 OFFCURVE",
"536.937 577.358 OFFCURVE",
"489.281 555.844 CURVE",
"465.281 560.844 LINE",
"465.281 578.844 LINE",
"505.062 596.552 OFFCURVE",
"530.947 643.851 OFFCURVE",
"530.947 685.844 CURVE SMOOTH",
"530.947 768.995 OFFCURVE",
"451.447 825.844 OFFCURVE",
"333.447 825.844 CURVE SMOOTH",
"215.448 825.844 OFFCURVE",
"135.948 768.995 OFFCURVE",
"135.948 685.844 CURVE SMOOTH",
"135.948 643.851 OFFCURVE",
"161.834 596.552 OFFCURVE",
"201.614 578.844 CURVE",
"201.614 560.844 LINE",
"177.614 555.844 LINE",
"129.959 577.358 OFFCURVE",
"98.948 634.824 OFFCURVE"
);
},
{
closed = 1;
nodes = (
"238.242 238 LINE",
"286.271 264.464 OFFCURVE",
"291.527 324.425 OFFCURVE",
"291.527 368.48 CURVE SMOOTH",
"291.527 478.833 OFFCURVE",
"322.921 580.844 OFFCURVE",
"440.242 580.844 CURVE SMOOTH",
"532.681 580.844 OFFCURVE",
"615.614 527.844 OFFCURVE",
"615.614 291.844 CURVE SMOOTH",
"615.614 56.844 OFFCURVE",
"533.283 2.844 OFFCURVE",
"447.242 2.844 CURVE SMOOTH",
"391.478 2.844 OFFCURVE",
"355.003 31.525 OFFCURVE",
"336.242 70.641 CURVE",
"359.614 122.844 LINE",
"362.614 82.844 OFFCURVE",
"394.614 39.844 OFFCURVE",
"447.242 39.844 CURVE SMOOTH",
"514.12 39.844 OFFCURVE",
"578.114 86.931 OFFCURVE",
"578.114 291.844 CURVE SMOOTH",
"578.114 497.629 OFFCURVE",
"513.943 543.844 OFFCURVE",
"440.242 543.844 CURVE SMOOTH",
"345.83 543.844 OFFCURVE",
"328.723 455.258 OFFCURVE",
"328.723 362.739 CURVE SMOOTH",
"328.723 310.831 OFFCURVE",
"320.979 240.182 OFFCURVE",
"250.242 209 CURVE"
);
},
{
closed = 1;
nodes = (
"43.112 200.987 CURVE SMOOTH",
"43.112 222.746 OFFCURVE",
"45.464 245.831 OFFCURVE",
"50.325 270 CURVE SMOOTH",
"59.058 313.411 OFFCURVE",
"75.039 351.78 OFFCURVE",
"96.723 369 CURVE",
"33 369 LINE",
"33 405 LINE",
"318.242 405 LINE",
"318.242 369 LINE",
"190.572 369 LINE SMOOTH",
"124.947 369 OFFCURVE",
"97.038 316.259 OFFCURVE",
"86.526 264 CURVE SMOOTH",
"82.358 243.278 OFFCURVE",
"80.35 223.495 OFFCURVE",
"80.35 204.875 CURVE SMOOTH",
"80.35 106.07 OFFCURVE",
"136.893 40 OFFCURVE",
"227.242 40 CURVE SMOOTH",
"316.104 40 OFFCURVE",
"349.242 103.167 OFFCURVE",
"349.242 158 CURVE SMOOTH",
"349.242 200.669 OFFCURVE",
"333.838 231.955 OFFCURVE",
"304.766 231.955 CURVE SMOOTH",
"295.599 231.955 OFFCURVE",
"285.072 228.845 OFFCURVE",
"273.242 222 CURVE",
"264.242 249 LINE",
"281.735 257.285 OFFCURVE",
"297.866 261.202 OFFCURVE",
"312.278 261.202 CURVE SMOOTH",
"357.849 261.202 OFFCURVE",
"386.242 222.041 OFFCURVE",
"386.242 158 CURVE SMOOTH",
"386.242 85.974 OFFCURVE",
"343.054 3 OFFCURVE",
"227.242 3 CURVE SMOOTH",
"113.146 3 OFFCURVE",
"43.112 82.229 OFFCURVE"
);
},
{
closed = 1;
nodes = (
"73.691 474 CURVE SMOOTH",
"73.691 553 OFFCURVE",
"133.294 591 OFFCURVE",
"190 591 CURVE SMOOTH",
"252.062 591 OFFCURVE",
"309.743 555.987 OFFCURVE",
"320.764 480 CURVE SMOOTH",
"321.951 471.812 OFFCURVE",
"322.573 463.148 OFFCURVE",
"322.573 454 CURVE SMOOTH",
"322.573 422.535 OFFCURVE",
"319 399 OFFCURVE",
"310 372 CURVE",
"288.573 402 LINE",
"288.573 416 OFFCURVE",
"288.573 435 OFFCURVE",
"288.573 454 CURVE SMOOTH",
"288.573 523.372 OFFCURVE",
"242.709 555 OFFCURVE",
"190 555 CURVE SMOOTH",
"150.845 555 OFFCURVE",
"109.691 528.692 OFFCURVE",
"109.691 474 CURVE SMOOTH",
"109.691 432 OFFCURVE",
"127.037 406 OFFCURVE",
"136.167 396 CURVE",
"114.167 376 LINE",
"102.167 387 OFFCURVE",
"73.691 419 OFFCURVE"
);
}
);
width = 648;
}
);
},
{
glyphname = si_BhRa;
layers = (
{
layerId = "AFC4C3A3-2D14-4C11-872C-451CCFDE8196";
name = Light;
paths = (
{
closed = 1;
nodes = (
"102.948 -104.156 CURVE SMOOTH",
"139.948 -104.156 LINE SMOOTH",
"139.948 -187.308 OFFCURVE",
"219.448 -244.156 OFFCURVE",
"337.447 -244.156 CURVE SMOOTH",
"455.447 -244.156 OFFCURVE",
"534.947 -187.308 OFFCURVE",
"534.947 -104.156 CURVE SMOOTH",
"534.947 -42.384 OFFCURVE",
"516.569 -7.272 OFFCURVE",
"486.556 15.844 CURVE",
"487.614 37.844 LINE",
"519.303 31.844 LINE",
"552.066 3.117 OFFCURVE",
"571.947 -40.323 OFFCURVE",
"571.947 -104.156 CURVE SMOOTH",
"571.947 -213.647 OFFCURVE",
"470.067 -281.156 OFFCURVE",
"337.447 -281.156 CURVE SMOOTH",
"204.828 -281.156 OFFCURVE",
"102.948 -213.647 OFFCURVE"
);
},
{
closed = 1;
nodes = (
"238.242 238 LINE",
"286.271 264.464 OFFCURVE",
"291.527 324.425 OFFCURVE",
"291.527 368.48 CURVE SMOOTH",
"291.527 478.833 OFFCURVE",
"322.921 580.844 OFFCURVE",
"440.242 580.844 CURVE SMOOTH",
"532.681 580.844 OFFCURVE",
"615.614 527.844 OFFCURVE",
"615.614 291.844 CURVE SMOOTH",
"615.614 56.844 OFFCURVE",
"533.283 2.844 OFFCURVE",
"447.242 2.844 CURVE SMOOTH",
"391.478 2.844 OFFCURVE",
"355.003 31.525 OFFCURVE",
"336.242 70.641 CURVE",
"359.614 122.844 LINE",
"362.614 82.844 OFFCURVE",
"394.614 39.844 OFFCURVE",
"447.242 39.844 CURVE SMOOTH",
"514.12 39.844 OFFCURVE",
"578.114 86.931 OFFCURVE",
"578.114 291.844 CURVE SMOOTH",
"578.114 497.629 OFFCURVE",
"513.943 543.844 OFFCURVE",
"440.242 543.844 CURVE SMOOTH",
"345.83 543.844 OFFCURVE",
"328.723 455.258 OFFCURVE",
"328.723 362.739 CURVE SMOOTH",
"328.723 310.831 OFFCURVE",
"320.979 240.182 OFFCURVE",
"250.242 209 CURVE"
);
},
{
closed = 1;
nodes = (
"43.112 200.987 CURVE SMOOTH",
"43.112 222.746 OFFCURVE",
"45.464 245.831 OFFCURVE",
"50.325 270 CURVE SMOOTH",
"59.058 313.411 OFFCURVE",
"75.039 351.78 OFFCURVE",
"96.723 369 CURVE",
"33 369 LINE",
"33 405 LINE",
"318.242 405 LINE",
"318.242 369 LINE",
"190.572 369 LINE SMOOTH",
"124.947 369 OFFCURVE",
"97.038 316.259 OFFCURVE",
"86.526 264 CURVE SMOOTH",
"82.358 243.278 OFFCURVE",
"80.35 223.495 OFFCURVE",
"80.35 204.875 CURVE SMOOTH",
"80.35 106.07 OFFCURVE",
"136.893 40 OFFCURVE",
"227.242 40 CURVE SMOOTH",
"316.104 40 OFFCURVE",
"349.242 103.167 OFFCURVE",
"349.242 158 CURVE SMOOTH",
"349.242 200.669 OFFCURVE",
"333.838 231.955 OFFCURVE",
"304.766 231.955 CURVE SMOOTH",
"295.599 231.955 OFFCURVE",
"285.072 228.845 OFFCURVE",
"273.242 222 CURVE",
"264.242 249 LINE",
"281.735 257.285 OFFCURVE",
"297.866 261.202 OFFCURVE",
"312.278 261.202 CURVE SMOOTH",
"357.849 261.202 OFFCURVE",
"386.242 222.041 OFFCURVE",
"386.242 158 CURVE SMOOTH",
"386.242 85.974 OFFCURVE",
"343.054 3 OFFCURVE",
"227.242 3 CURVE SMOOTH",
"113.146 3 OFFCURVE",
"43.112 82.229 OFFCURVE"
);
},
{
closed = 1;
nodes = (
"73.691 474 CURVE SMOOTH",
"73.691 553 OFFCURVE",
"133.294 591 OFFCURVE",
"190 591 CURVE SMOOTH",
"252.062 591 OFFCURVE",
"309.743 555.987 OFFCURVE",
"320.764 480 CURVE SMOOTH",
"321.951 471.812 OFFCURVE",
"322.573 463.148 OFFCURVE",
"322.573 454 CURVE SMOOTH",
"322.573 422.535 OFFCURVE",
"319 399 OFFCURVE",
"310 372 CURVE",
"288.573 402 LINE",
"288.573 416 OFFCURVE",
"288.573 435 OFFCURVE",
"288.573 454 CURVE SMOOTH",
"288.573 523.372 OFFCURVE",
"242.709 555 OFFCURVE",
"190 555 CURVE SMOOTH",
"150.845 555 OFFCURVE",
"109.691 528.692 OFFCURVE",
"109.691 474 CURVE SMOOTH",
"109.691 432 OFFCURVE",
"127.037 406 OFFCURVE",
"136.167 396 CURVE",
"114.167 376 LINE",
"102.167 387 OFFCURVE",
"73.691 419 OFFCURVE"
);
}
);
width = 648;
}
);
},
{
glyphname = si_BhRI;
layers = (
{
layerId = "AFC4C3A3-2D14-4C11-872C-451CCFDE8196";
name = Light;
paths = (
{
closed = 1;
nodes = (
"102.948 -104.156 CURVE SMOOTH",
"139.948 -104.156 LINE SMOOTH",
"139.948 -187.308 OFFCURVE",
"219.448 -244.156 OFFCURVE",
"337.447 -244.156 CURVE SMOOTH",
"455.447 -244.156 OFFCURVE",
"534.947 -187.308 OFFCURVE",
"534.947 -104.156 CURVE SMOOTH",
"534.947 -42.384 OFFCURVE",
"516.569 -7.272 OFFCURVE",
"486.556 15.844 CURVE",
"487.614 37.844 LINE",
"519.303 31.844 LINE",
"552.066 3.117 OFFCURVE",
"571.947 -40.323 OFFCURVE",
"571.947 -104.156 CURVE SMOOTH",
"571.947 -213.647 OFFCURVE",
"470.067 -281.156 OFFCURVE",
"337.447 -281.156 CURVE SMOOTH",
"204.828 -281.156 OFFCURVE",
"102.948 -213.647 OFFCURVE"
);
},
{
closed = 1;
nodes = (
"98.948 685.844 CURVE SMOOTH",
"98.948 795.335 OFFCURVE",
"200.828 862.844 OFFCURVE",
"333.447 862.844 CURVE SMOOTH",
"466.067 862.844 OFFCURVE",
"567.947 795.335 OFFCURVE",
"567.947 685.844 CURVE SMOOTH",
"567.947 634.824 OFFCURVE",
"536.937 577.358 OFFCURVE",
"489.281 555.844 CURVE",
"465.281 560.844 LINE",
"465.281 578.844 LINE",
"505.062 596.552 OFFCURVE",
"530.947 643.851 OFFCURVE",
"530.947 685.844 CURVE SMOOTH",
"530.947 768.995 OFFCURVE",
"451.447 825.844 OFFCURVE",
"333.447 825.844 CURVE SMOOTH",
"215.448 825.844 OFFCURVE",
"135.948 768.995 OFFCURVE",
"135.948 685.844 CURVE SMOOTH",
"135.948 643.851 OFFCURVE",
"161.834 596.552 OFFCURVE",
"201.614 578.844 CURVE",
"201.614 560.844 LINE",
"177.614 555.844 LINE",
"129.959 577.358 OFFCURVE",
"98.948 634.824 OFFCURVE"
);
},
{
closed = 1;
nodes = (
"238.242 238 LINE",
"286.271 264.464 OFFCURVE",
"291.527 324.425 OFFCURVE",
"291.527 368.48 CURVE SMOOTH",
"291.527 478.833 OFFCURVE",
"322.921 580.844 OFFCURVE",
"440.242 580.844 CURVE SMOOTH",
"532.681 580.844 OFFCURVE",
"615.614 527.844 OFFCURVE",
"615.614 291.844 CURVE SMOOTH",
"615.614 56.844 OFFCURVE",
"533.283 2.844 OFFCURVE",
"447.242 2.844 CURVE SMOOTH",
"391.478 2.844 OFFCURVE",
"355.003 31.525 OFFCURVE",
"336.242 70.641 CURVE",
"359.614 122.844 LINE",
"362.614 82.844 OFFCURVE",
"394.614 39.844 OFFCURVE",
"447.242 39.844 CURVE SMOOTH",
"514.12 39.844 OFFCURVE",
"578.114 86.931 OFFCURVE",
"578.114 291.844 CURVE SMOOTH",
"578.114 497.629 OFFCURVE",
"513.943 543.844 OFFCURVE",
"440.242 543.844 CURVE SMOOTH",
"345.83 543.844 OFFCURVE",
"328.723 455.258 OFFCURVE",
"328.723 362.739 CURVE SMOOTH",
"328.723 310.831 OFFCURVE",
"320.979 240.182 OFFCURVE",
"250.242 209 CURVE"
);
},
{
closed = 1;
nodes = (
"43.112 200.987 CURVE SMOOTH",
"43.112 222.746 OFFCURVE",
"45.464 245.831 OFFCURVE",
"50.325 270 CURVE SMOOTH",
"59.058 313.411 OFFCURVE",
"75.039 351.78 OFFCURVE",
"96.723 369 CURVE",
"33 369 LINE",
"33 405 LINE",
"318.242 405 LINE",
"318.242 369 LINE",
"190.572 369 LINE SMOOTH",
"124.947 369 OFFCURVE",
"97.038 316.259 OFFCURVE",
"86.526 264 CURVE SMOOTH",
"82.358 243.278 OFFCURVE",
"80.35 223.495 OFFCURVE",
"80.35 204.875 CURVE SMOOTH",
"80.35 106.07 OFFCURVE",
"136.893 40 OFFCURVE",
"227.242 40 CURVE SMOOTH",
"316.104 40 OFFCURVE",
"349.242 103.167 OFFCURVE",
"349.242 158 CURVE SMOOTH",
"349.242 200.669 OFFCURVE",
"333.838 231.955 OFFCURVE",
"304.766 231.955 CURVE SMOOTH",
"295.599 231.955 OFFCURVE",
"285.072 228.845 OFFCURVE",
"273.242 222 CURVE",
"264.242 249 LINE",
"281.735 257.285 OFFCURVE",
"297.866 261.202 OFFCURVE",
"312.278 261.202 CURVE SMOOTH",
"357.849 261.202 OFFCURVE",
"386.242 222.041 OFFCURVE",
"386.242 158 CURVE SMOOTH",
"386.242 85.974 OFFCURVE",
"343.054 3 OFFCURVE",
"227.242 3 CURVE SMOOTH",
"113.146 3 OFFCURVE",
"43.112 82.229 OFFCURVE"
);
},
{
closed = 1;
nodes = (
"73.691 474 CURVE SMOOTH",
"73.691 553 OFFCURVE",
"133.294 591 OFFCURVE",
"190 591 CURVE SMOOTH",
"252.062 591 OFFCURVE",
"309.743 555.987 OFFCURVE",
"320.764 480 CURVE SMOOTH",
"321.951 471.812 OFFCURVE",
"322.573 463.148 OFFCURVE",
"322.573 454 CURVE SMOOTH",
"322.573 422.535 OFFCURVE",
"319 399 OFFCURVE",
"310 372 CURVE",
"288.573 402 LINE",
"288.573 416 OFFCURVE",
"288.573 435 OFFCURVE",
"288.573 454 CURVE SMOOTH",
"288.573 523.372 OFFCURVE",
"242.709 555 OFFCURVE",
"190 555 CURVE SMOOTH",
"150.845 555 OFFCURVE",
"109.691 528.692 OFFCURVE",
"109.691 474 CURVE SMOOTH",
"109.691 432 OFFCURVE",
"127.037 406 OFFCURVE",
"136.167 396 CURVE",
"114.167 376 LINE",
"102.167 387 OFFCURVE",
"73.691 419 OFFCURVE"
);
}
);
width = 648;
}
);
},
{
glyphname = si_BhRa.halant;
layers = (
{
layerId = "AFC4C3A3-2D14-4C11-872C-451CCFDE8196";
name = Light;
paths = (
{
closed = 1;
nodes = (
"102.948 -104.156 CURVE SMOOTH",
"139.948 -104.156 LINE SMOOTH",
"139.948 -187.308 OFFCURVE",
"219.448 -244.156 OFFCURVE",
"337.447 -244.156 CURVE SMOOTH",
"455.447 -244.156 OFFCURVE",
"534.947 -187.308 OFFCURVE",
"534.947 -104.156 CURVE SMOOTH",
"534.947 -42.384 OFFCURVE",
"516.569 -7.272 OFFCURVE",
"486.556 15.844 CURVE",
"487.614 37.844 LINE",
"519.303 31.844 LINE",
"552.066 3.117 OFFCURVE",
"571.947 -40.323 OFFCURVE",
"571.947 -104.156 CURVE SMOOTH",
"571.947 -213.647 OFFCURVE",
"470.067 -281.156 OFFCURVE",
"337.447 -281.156 CURVE SMOOTH",
"204.828 -281.156 OFFCURVE",
"102.948 -213.647 OFFCURVE"
);
},
{
closed = 1;
nodes = (
"552.614 637.844 CURVE",
"559.614 671.844 LINE",
"566.634 670.582 OFFCURVE",
"578.913 667.038 OFFCURVE",
"596.614 667.038 CURVE SMOOTH",
"632.542 667.038 OFFCURVE",
"663.614 687.844 OFFCURVE",
"663.614 748.844 CURVE SMOOTH",
"663.614 828.142 OFFCURVE",
"604.114 828.844 OFFCURVE",
"578.614 828.844 CURVE SMOOTH",
"575.595 828.844 OFFCURVE",
"569.614 828.844 OFFCURVE",
"569.614 828.844 CURVE",
"551.614 847.844 LINE",
"578.614 862.844 LINE",
"614.614 862.844 OFFCURVE",
"698.614 861.844 OFFCURVE",
"698.614 748.844 CURVE SMOOTH",
"698.614 663.844 OFFCURVE",
"651.31 632.038 OFFCURVE",
"596.614 632.038 CURVE SMOOTH",
"582.206 632.038 OFFCURVE",
"567.369 633.953 OFFCURVE"
);
},
{
closed = 1;
nodes = (
"543.614 862.844 LINE",
"578.614 862.844 LINE",
"578.614 854.844 LINE",
"574.614 838.844 LINE",
"574.614 661.844 LINE",
"578.614 641.844 LINE",
"578.614 495.844 LINE",
"543.614 495.844 LINE"
);
},
{
closed = 1;
nodes = (
"238.242 238 LINE",
"286.271 264.464 OFFCURVE",
"291.527 324.425 OFFCURVE",
"291.527 368.48 CURVE SMOOTH",
"291.527 478.833 OFFCURVE",
"322.921 580.844 OFFCURVE",
"440.242 580.844 CURVE SMOOTH",
"532.681 580.844 OFFCURVE",
"615.614 527.844 OFFCURVE",
"615.614 291.844 CURVE SMOOTH",
"615.614 56.844 OFFCURVE",
"533.283 2.844 OFFCURVE",
"447.242 2.844 CURVE SMOOTH",
"391.478 2.844 OFFCURVE",
"355.003 31.525 OFFCURVE",
"336.242 70.641 CURVE",
"359.614 122.844 LINE",
"362.614 82.844 OFFCURVE",
"394.614 39.844 OFFCURVE",
"447.242 39.844 CURVE SMOOTH",
"514.12 39.844 OFFCURVE",
"578.114 86.931 OFFCURVE",
"578.114 291.844 CURVE SMOOTH",
"578.114 497.629 OFFCURVE",
"513.943 543.844 OFFCURVE",
"440.242 543.844 CURVE SMOOTH",
"345.83 543.844 OFFCURVE",
"328.723 455.258 OFFCURVE",
"328.723 362.739 CURVE SMOOTH",
"328.723 310.831 OFFCURVE",
"320.979 240.182 OFFCURVE",
"250.242 209 CURVE"
);
},
{
closed = 1;
nodes = (
"43.112 200.987 CURVE SMOOTH",
"43.112 222.746 OFFCURVE",
"45.464 245.831 OFFCURVE",
"50.325 270 CURVE SMOOTH",
"59.058 313.411 OFFCURVE",
"75.039 351.78 OFFCURVE",
"96.723 369 CURVE",
"33 369 LINE",
"33 405 LINE",
"318.242 405 LINE",
"318.242 369 LINE",
"190.572 369 LINE SMOOTH",
"124.947 369 OFFCURVE",
"97.038 316.259 OFFCURVE",
"86.526 264 CURVE SMOOTH",
"82.358 243.278 OFFCURVE",
"80.35 223.495 OFFCURVE",
"80.35 204.875 CURVE SMOOTH",
"80.35 106.07 OFFCURVE",
"136.893 40 OFFCURVE",
"227.242 40 CURVE SMOOTH",
"316.104 40 OFFCURVE",
"349.242 103.167 OFFCURVE",
"349.242 158 CURVE SMOOTH",
"349.242 200.669 OFFCURVE",
"333.838 231.955 OFFCURVE",
"304.766 231.955 CURVE SMOOTH",
"295.599 231.955 OFFCURVE",
"285.072 228.845 OFFCURVE",
"273.242 222 CURVE",
"264.242 249 LINE",
"281.735 257.285 OFFCURVE",
"297.866 261.202 OFFCURVE",
"312.278 261.202 CURVE SMOOTH",
"357.849 261.202 OFFCURVE",
"386.242 222.041 OFFCURVE",
"386.242 158 CURVE SMOOTH",
"386.242 85.974 OFFCURVE",
"343.054 3 OFFCURVE",
"227.242 3 CURVE SMOOTH",
"113.146 3 OFFCURVE",
"43.112 82.229 OFFCURVE"
);
},
{
closed = 1;
nodes = (
"73.691 474 CURVE SMOOTH",
"73.691 553 OFFCURVE",
"133.294 591 OFFCURVE",
"190 591 CURVE SMOOTH",
"252.062 591 OFFCURVE",
"309.743 555.987 OFFCURVE",
"320.764 480 CURVE SMOOTH",
"321.951 471.812 OFFCURVE",
"322.573 463.148 OFFCURVE",
"322.573 454 CURVE SMOOTH",
"322.573 422.535 OFFCURVE",
"319 399 OFFCURVE",
"310 372 CURVE",
"288.573 402 LINE",
"288.573 416 OFFCURVE",
"288.573 435 OFFCURVE",
"288.573 454 CURVE SMOOTH",
"288.573 523.372 OFFCURVE",
"242.709 555 OFFCURVE",
"190 555 CURVE SMOOTH",
"150.845 555 OFFCURVE",
"109.691 528.692 OFFCURVE",
"109.691 474 CURVE SMOOTH",
"109.691 432 OFFCURVE",
"127.037 406 OFFCURVE",
"136.167 396 CURVE",
"114.167 376 LINE",
"102.167 387 OFFCURVE",
"73.691 419 OFFCURVE"
);
}
);
width = 648;
}
);
},
